<?xml version="1.0" encoding="UTF-8" standalone="no"?>
<!-- Created with Inkscape (http://www.inkscape.org/) -->

<svg
   xmlns:dc="http://purl.org/dc/elements/1.1/"
   xmlns:cc="http://creativecommons.org/ns#"
   xmlns:rdf="http://www.w3.org/1999/02/22-rdf-syntax-ns#"
   xmlns:svg="http://www.w3.org/2000/svg"
   xmlns="http://www.w3.org/2000/svg"
   xmlns:sodipodi="http://sodipodi.sourceforge.net/DTD/sodipodi-0.dtd"
   xmlns:inkscape="http://www.inkscape.org/namespaces/inkscape"
   id="svg2"
   version="1.1"
   inkscape:version="0.48.2 r9819"
   width="900"
   height="675"
   xml:space="preserve"
   sodipodi:docname="ARPIPE.eps"><metadata
     id="metadata8"><rdf:RDF><cc:Work
         rdf:about=""><dc:format>image/svg+xml</dc:format><dc:type
           rdf:resource="http://purl.org/dc/dcmitype/StillImage" /><dc:title></dc:title></cc:Work></rdf:RDF></metadata><defs
     id="defs6"><clipPath
       clipPathUnits="userSpaceOnUse"
       id="clipPath18"><path
         d="m 133.602,518 720,0 0,-540 -720,0 0,540 z"
         id="path20" /></clipPath><clipPath
       clipPathUnits="userSpaceOnUse"
       id="clipPath26"><path
         d="M 0,0 720,0 720,540 0,540 0,0 z"
         id="path28" /></clipPath></defs><sodipodi:namedview
     pagecolor="#ffffff"
     bordercolor="#666666"
     borderopacity="1"
     objecttolerance="10"
     gridtolerance="10"
     guidetolerance="10"
     inkscape:pageopacity="0"
     inkscape:pageshadow="2"
     inkscape:window-width="1920"
     inkscape:window-height="1138"
     id="namedview4"
     showgrid="false"
     inkscape:zoom="0.96480792"
     inkscape:cx="632.56408"
     inkscape:cy="342.69514"
     inkscape:window-x="1912"
     inkscape:window-y="-8"
     inkscape:window-maximized="1"
     inkscape:current-layer="g38" /><g
     id="g10"
     inkscape:groupmode="layer"
     inkscape:label="ARPIPE"
     transform="matrix(1.25,0,0,-1.25,0,675)"><g
       id="g12" /><g
       id="g38"><path
         d="m 87,360 114,0 0,-91.43 -114,0 0,91.43 z"
         style="fill:#ffffff;fill-opacity:1;fill-rule:evenodd;stroke:#000000;stroke-opacity:1;stroke-width:2;stroke-linecap:butt;stroke-linejoin:round;stroke-miterlimit:10;stroke-dasharray:none"
         id="path40" /><text
         transform="matrix(1,0,0,-1,122.95,318.43)"
         id="text42"><tspan
           style="fill:#000000;fill-opacity:1;fill-rule:nonzero;stroke:none;font-family:Times New Roman;font-variant:normal;font-weight:normal;font-size:18;writing-mode:lr;-inkscape-font-specification:TimesNewRomanPSMT"
           x="0 12.996 21.996 26.982 33.984 41.958"
           y="0"
           sodipodi:role="line"
           id="tspan44">Noise </tspan><tspan
           style="fill:#000000;fill-opacity:1;fill-rule:nonzero;stroke:none;font-family:Times New Roman;font-variant:normal;font-weight:normal;font-size:18;writing-mode:lr;-inkscape-font-specification:TimesNewRomanPSMT"
           x="-8.519994 -2.525994 5.484006 19.380006 28.380006 37.380006 45.354006"
           y="21.6"
           sodipodi:role="line"
           id="tspan46">removal</tspan></text>
<path
         d="m 234,360.051 114,0 0,-91.43 -114,0 0,91.43 z"
         style="fill:#ffffff;fill-opacity:1;fill-rule:evenodd;stroke:#000000;stroke-opacity:1;stroke-width:2;stroke-linecap:butt;stroke-linejoin:round;stroke-miterlimit:10;stroke-dasharray:none"
         id="path48" /><text
         transform="matrix(1,0,0,-1,263.98,318.5)"
         id="text50"><tspan
           style="fill:#000000;fill-opacity:1;fill-rule:nonzero;stroke:none;font-family:Times New Roman;font-variant:normal;font-weight:normal;font-size:18;writing-mode:lr;-inkscape-font-specification:TimesNewRomanPSMT"
           x="0 10.008 17.982 25.956 31.014 40.014 46.008 54.018"
           y="0"
           sodipodi:role="line"
           id="tspan52">Feature </tspan></text>
<text
         transform="matrix(1,0,0,-1,268.42,296.88)"
         id="text54"><tspan
           style="fill:#000000;fill-opacity:1;fill-rule:nonzero;stroke:none;font-family:Times New Roman;font-variant:normal;font-weight:normal;font-size:18.024;writing-mode:lr;-inkscape-font-specification:TimesNewRomanPSMT"
           x="0 9.012 16.996632 25.017312 30.00996 39.02196"
           y="0"
           sodipodi:role="line"
           id="tspan56">vector</tspan></text>
<path
         d="m 378,360 114,0 0,-91.43 -114,0 0,91.43 z"
         style="fill:#ffffff;fill-opacity:1;fill-rule:evenodd;stroke:#000000;stroke-opacity:1;stroke-width:2;stroke-linecap:butt;stroke-linejoin:round;stroke-miterlimit:10;stroke-dasharray:none"
         id="path58" /><text
         transform="matrix(1,0,0,-1,405.36,329.23)"
         id="text60"><tspan
           style="fill:#000000;fill-opacity:1;fill-rule:nonzero;stroke:none;font-family:Times New Roman;font-variant:normal;font-weight:normal;font-size:18.024;writing-mode:lr;-inkscape-font-specification:TimesNewRomanPSMT"
           x="0 13.013328 20.99796 25.990608 30.983256 39.995256 45.023952 50.034624 59.280936"
           y="0"
           sodipodi:role="line"
           id="tspan62">Activity </tspan></text>
<text
         transform="matrix(1,0,0,-1,393.96,307.63)"
         id="text64"><tspan
           style="fill:#000000;fill-opacity:1;fill-rule:nonzero;stroke:none;font-family:Times New Roman;font-variant:normal;font-weight:normal;font-size:18;writing-mode:lr;-inkscape-font-specification:TimesNewRomanPSMT"
           x="0 5.994 13.968 22.032 31.032 40.032 49.032 54.018 59.058 64.044 73.044 82.044"
           y="0"
           sodipodi:role="line"
           id="tspan66">recognition </tspan><tspan
           style="fill:#000000;fill-opacity:1;fill-rule:nonzero;stroke:none;font-family:Times New Roman;font-variant:normal;font-weight:normal;font-size:18;writing-mode:lr;-inkscape-font-specification:TimesNewRomanPSMT"
           x="18.599994 32.495994 41.495994 50.495994 58.469994"
           y="21.6"
           sodipodi:role="line"
           id="tspan68">model</tspan></text>
<path
         d="m 525.852,360.051 114,0 0,-91.43 -114,0 0,91.43 z"
         style="fill:#ffffff;fill-opacity:1;fill-rule:evenodd;stroke:#000000;stroke-opacity:1;stroke-width:2;stroke-linecap:butt;stroke-linejoin:round;stroke-miterlimit:10;stroke-dasharray:none"
         id="path70" /><text
         transform="matrix(1,0,0,-1,550.94,340.1)"
         id="text72"><tspan
           style="fill:#000000;fill-opacity:1;fill-rule:nonzero;stroke:none;font-family:Times New Roman;font-variant:normal;font-weight:normal;font-size:18;writing-mode:lr;-inkscape-font-specification:TimesNewRomanPSMT"
           x="0 10.008 19.008 28.008 34.002 38.988 47.988 56.988 63.99"
           y="0"
           sodipodi:role="line"
           id="tspan74">Spurious </tspan><tspan
           style="fill:#000000;fill-opacity:1;fill-rule:nonzero;stroke:none;font-family:Times New Roman;font-variant:normal;font-weight:normal;font-size:18;writing-mode:lr;-inkscape-font-specification:TimesNewRomanPSMT"
           x="4.800006 12.774006 20.820006 25.806006 30.864006 39.864006 44.850006 49.890006 58.998006"
           y="21.6"
           sodipodi:role="line"
           id="tspan76">activity </tspan></text>
<text
         transform="matrix(1,0,0,-1,548.78,296.88)"
         id="text78"><tspan
           style="fill:#000000;fill-opacity:1;fill-rule:nonzero;stroke:none;font-family:Times New Roman;font-variant:normal;font-weight:normal;font-size:18.024;writing-mode:lr;-inkscape-font-specification:TimesNewRomanPSMT"
           x="0 4.992648 10.99464 19.033344 28.045344 34.984584 39.977232 45.005928 50.0166 59.0286"
           y="0"
           sodipodi:role="line"
           id="tspan80">transition</tspan></text>
<text
         transform="matrix(1,0,0,-1,553.34,275.28)"
         id="text82"><tspan
           style="fill:#000000;fill-opacity:1;fill-rule:nonzero;stroke:none;font-family:Times New Roman;font-variant:normal;font-weight:normal;font-size:18;writing-mode:lr;-inkscape-font-specification:TimesNewRomanPSMT"
           x="0 5.994 14.004 27.9 36.9 45.9 53.874"
           y="0"
           sodipodi:role="line"
           id="tspan84">removal</tspan></text>
<path
         d="m 201,313.281 31.02,0.059 0,2 -31.02,-0.059 0,-2 z m 25.531,-3.32 7.469,4.379 -7.48,4.351 c -0.481,0.278 -1.09,0.118 -1.372,-0.363 -0.277,-0.476 -0.117,-1.09 0.364,-1.367 l 6.008,-3.492 -0.008,1.73 -5.992,-3.508 c -0.481,-0.281 -0.641,-0.89 -0.36,-1.371 0.281,-0.48 0.891,-0.64 1.371,-0.359 z"
         style="fill:#000000;fill-opacity:1;fill-rule:nonzero;stroke:none"
         id="path86" /><path
         d="m 348,315.34 28.02,-0.051 0,-2 -28.02,0.051 0,2 z m 22.531,3.32 7.469,-4.379 -7.48,-4.351 c -0.481,-0.27 -1.09,-0.11 -1.372,0.371 -0.277,0.469 -0.117,1.09 0.364,1.359 l 6.008,3.488 -0.008,-1.718 -5.992,3.511 c -0.481,0.278 -0.641,0.887 -0.36,1.36 0.281,0.48 0.899,0.64 1.371,0.359 z"
         style="fill:#000000;fill-opacity:1;fill-rule:nonzero;stroke:none"
         id="path88" /><path
         d="m 492,313.281 31.871,0.059 0,2 -31.871,-0.059 0,-2 z m 26.379,-3.32 7.48,4.379 -7.488,4.351 c -0.48,0.278 -1.09,0.118 -1.371,-0.363 -0.27,-0.476 -0.109,-1.09 0.359,-1.367 l 6.012,-3.492 0,1.73 -6,-3.508 c -0.473,-0.281 -0.633,-0.89 -0.351,-1.371 0.269,-0.48 0.89,-0.64 1.359,-0.359 z"
         style="fill:#000000;fill-opacity:1;fill-rule:nonzero;stroke:none"
         id="path90" /></g></g></svg>