<?xml version="1.0" encoding="UTF-8" standalone="no"?>
<!-- Created with Inkscape (http://www.inkscape.org/) -->

<svg
   xmlns:ns0="http://www.iki.fi/pav/software/textext/"
   xmlns:dc="http://purl.org/dc/elements/1.1/"
   xmlns:cc="http://creativecommons.org/ns#"
   xmlns:rdf="http://www.w3.org/1999/02/22-rdf-syntax-ns#"
   xmlns:svg="http://www.w3.org/2000/svg"
   xmlns="http://www.w3.org/2000/svg"
   xmlns:xlink="http://www.w3.org/1999/xlink"
   xmlns:sodipodi="http://sodipodi.sourceforge.net/DTD/sodipodi-0.dtd"
   xmlns:inkscape="http://www.inkscape.org/namespaces/inkscape"
   width="744.09448819"
   height="1052.3622047"
   id="svg2"
   version="1.1"
   inkscape:version="0.48.3.1 r9886"
   sodipodi:docname="serial_implementation_flow_diagram.svg">
  <sodipodi:namedview
     id="base"
     pagecolor="#ffffff"
     bordercolor="#666666"
     borderopacity="1.0"
     inkscape:pageopacity="0.0"
     inkscape:pageshadow="2"
     inkscape:zoom="1.1269613"
     inkscape:cx="-69.43988"
     inkscape:cy="683.71134"
     inkscape:document-units="px"
     inkscape:current-layer="svg2"
     showgrid="false"
     inkscape:window-width="1436"
     inkscape:window-height="861"
     inkscape:window-x="0"
     inkscape:window-y="18"
     inkscape:window-maximized="0" />
  <defs
     id="defs4">
    <marker
       inkscape:stockid="Arrow1Mend"
       orient="auto"
       refY="0.0"
       refX="0.0"
       id="Arrow1Mend"
       style="overflow:visible;">
      <path
         id="path3793"
         d="M 0.0,0.0 L 5.0,-5.0 L -12.5,0.0 L 5.0,5.0 L 0.0,0.0 z "
         style="fill-rule:evenodd;stroke:#000000;stroke-width:1.0pt;"
         transform="scale(0.4) rotate(180) translate(10,0)" />
    </marker>
    <marker
       inkscape:stockid="Arrow1Mend"
       orient="auto"
       refY="0"
       refX="0"
       id="Arrow1Mend-6"
       style="overflow:visible">
      <path
         inkscape:connector-curvature="0"
         id="path3793-4"
         d="M 0,0 5,-5 -12.5,0 5,5 0,0 z"
         style="fill-rule:evenodd;stroke:#000000;stroke-width:1pt"
         transform="matrix(-0.4,0,0,-0.4,-4,0)" />
    </marker>
    <marker
       inkscape:stockid="Arrow1Mend"
       orient="auto"
       refY="0"
       refX="0"
       id="Arrow1Mend-4"
       style="overflow:visible">
      <path
         inkscape:connector-curvature="0"
         id="path3793-7"
         d="M 0,0 5,-5 -12.5,0 5,5 0,0 z"
         style="fill-rule:evenodd;stroke:#000000;stroke-width:1pt"
         transform="matrix(-0.4,0,0,-0.4,-4,0)" />
    </marker>
    <marker
       inkscape:stockid="Arrow1Mend"
       orient="auto"
       refY="0"
       refX="0"
       id="Arrow1Mend-8"
       style="overflow:visible">
      <path
         id="path3793-0"
         d="M 0,0 5,-5 -12.5,0 5,5 0,0 z"
         style="fill-rule:evenodd;stroke:#000000;stroke-width:1pt"
         transform="matrix(-0.4,0,0,-0.4,-4,0)"
         inkscape:connector-curvature="0" />
    </marker>
    <marker
       inkscape:stockid="Arrow1Mend"
       orient="auto"
       refY="0"
       refX="0"
       id="Arrow1Mend-5"
       style="overflow:visible">
      <path
         id="path3793-1"
         d="M 0,0 5,-5 -12.5,0 5,5 0,0 z"
         style="fill-rule:evenodd;stroke:#000000;stroke-width:1pt"
         transform="matrix(-0.4,0,0,-0.4,-4,0)"
         inkscape:connector-curvature="0" />
    </marker>
    <marker
       inkscape:stockid="Arrow1Mend"
       orient="auto"
       refY="0"
       refX="0"
       id="Arrow1Mend-5-9"
       style="overflow:visible">
      <path
         id="path3793-1-4"
         d="M 0,0 5,-5 -12.5,0 5,5 0,0 z"
         style="fill-rule:evenodd;stroke:#000000;stroke-width:1pt"
         transform="matrix(-0.4,0,0,-0.4,-4,0)"
         inkscape:connector-curvature="0" />
    </marker>
    <marker
       inkscape:stockid="Arrow1Mend"
       orient="auto"
       refY="0"
       refX="0"
       id="Arrow1Mend-5-94"
       style="overflow:visible">
      <path
         id="path3793-1-7"
         d="M 0,0 5,-5 -12.5,0 5,5 0,0 z"
         style="fill-rule:evenodd;stroke:#000000;stroke-width:1pt"
         transform="matrix(-0.4,0,0,-0.4,-4,0)"
         inkscape:connector-curvature="0" />
    </marker>
    <marker
       inkscape:stockid="Arrow1Mend"
       orient="auto"
       refY="0"
       refX="0"
       id="Arrow1Mend-7"
       style="overflow:visible">
      <path
         id="path3793-5"
         d="M 0,0 5,-5 -12.5,0 5,5 0,0 z"
         style="fill-rule:evenodd;stroke:#000000;stroke-width:1pt"
         transform="matrix(-0.4,0,0,-0.4,-4,0)"
         inkscape:connector-curvature="0" />
    </marker>
    <marker
       inkscape:stockid="Arrow1Mend"
       orient="auto"
       refY="0"
       refX="0"
       id="Arrow1Mend-1"
       style="overflow:visible">
      <path
         id="path3793-71"
         d="M 0,0 5,-5 -12.5,0 5,5 0,0 z"
         style="fill-rule:evenodd;stroke:#000000;stroke-width:1pt"
         transform="matrix(-0.4,0,0,-0.4,-4,0)"
         inkscape:connector-curvature="0" />
    </marker>
    <marker
       inkscape:stockid="Arrow1Mend"
       orient="auto"
       refY="0"
       refX="0"
       id="Arrow1Mend-78"
       style="overflow:visible">
      <path
         id="path3793-73"
         d="M 0,0 5,-5 -12.5,0 5,5 0,0 z"
         style="fill-rule:evenodd;stroke:#000000;stroke-width:1pt"
         transform="matrix(-0.4,0,0,-0.4,-4,0)"
         inkscape:connector-curvature="0" />
    </marker>
    <marker
       inkscape:stockid="Arrow1Mend"
       orient="auto"
       refY="0"
       refX="0"
       id="Arrow1Mend-2"
       style="overflow:visible">
      <path
         id="path3793-72"
         d="M 0,0 5,-5 -12.5,0 5,5 0,0 z"
         style="fill-rule:evenodd;stroke:#000000;stroke-width:1pt"
         transform="matrix(-0.4,0,0,-0.4,-4,0)"
         inkscape:connector-curvature="0" />
    </marker>
    <marker
       inkscape:stockid="Arrow1Mend"
       orient="auto"
       refY="0"
       refX="0"
       id="Arrow1Mend-43"
       style="overflow:visible">
      <path
         id="path3793-6"
         d="M 0,0 5,-5 -12.5,0 5,5 0,0 z"
         style="fill-rule:evenodd;stroke:#000000;stroke-width:1pt"
         transform="matrix(-0.4,0,0,-0.4,-4,0)"
         inkscape:connector-curvature="0" />
    </marker>
  </defs>
  <metadata
     id="metadata7">
    <rdf:RDF>
      <cc:Work
         rdf:about="">
        <dc:format>image/svg+xml</dc:format>
        <dc:type
           rdf:resource="http://purl.org/dc/dcmitype/StillImage" />
        <dc:title></dc:title>
      </cc:Work>
    </rdf:RDF>
  </metadata>
  <g
     inkscape:label="Layer 1"
     inkscape:groupmode="layer"
     id="layer1">
    <rect
       style="fill:none;stroke:#000000;stroke-width:2;stroke-miterlimit:4;stroke-opacity:1;stroke-dasharray:none"
       id="rect2985"
       width="105.56094"
       height="39.39595"
       x="109.34901"
       y="109.505"
       ry="19.697975" />
    <text
       xml:space="preserve"
       style="font-size:16px;font-style:normal;font-weight:normal;line-height:125%;letter-spacing:0px;word-spacing:0px;fill:#000000;fill-opacity:1;stroke:none;font-family:Sans"
       x="142.23494"
       y="135.02719"
       id="text3755"
       sodipodi:linespacing="125%"><tspan
         sodipodi:role="line"
         id="tspan3757"
         x="142.23494"
         y="135.02719"
         style="font-size:16px">Start</tspan></text>
    <path
       style="fill:none;stroke:#000000;stroke-width:1;stroke-linecap:butt;stroke-linejoin:miter;stroke-miterlimit:4;stroke-opacity:1;stroke-dasharray:none;marker-end:url(#Arrow1Mend)"
       d="m 162.55533,149.75027 -0.50507,38.24887"
       id="path4224"
       inkscape:connector-curvature="0" />
    <rect
       style="fill:none;stroke:#000000;stroke-width:2.29875064;stroke-miterlimit:4;stroke-opacity:1;stroke-dasharray:none"
       id="rect4410"
       width="202.33124"
       height="53.172375"
       x="242.62633"
       y="251.29028"
       ry="0"
       transform="matrix(0.99999992,3.9388378e-4,-0.6537525,0.75670845,0,0)" />
    <text
       xml:space="preserve"
       style="font-size:16px;font-style:normal;font-weight:normal;line-height:125%;letter-spacing:0px;word-spacing:0px;fill:#000000;fill-opacity:1;stroke:none;font-family:Sans"
       x="98.246666"
       y="214.82095"
       id="text3755-9"
       sodipodi:linespacing="125%"><tspan
         id="tspan5080"
         sodipodi:role="line"
         x="98.246666"
         y="214.82095"
         style="font-size:16px">Read input data</tspan></text>
    <rect
       style="fill:none;stroke:#000000;stroke-width:2.02830911;stroke-miterlimit:4;stroke-opacity:1;stroke-dasharray:none"
       id="rect4457"
       width="246.75098"
       height="43.941635"
       x="38.753994"
       y="271.51425" />
    <path
       style="fill:none;stroke:#000000;stroke-width:1;stroke-linecap:butt;stroke-linejoin:miter;stroke-miterlimit:4;stroke-opacity:1;stroke-dasharray:none;marker-end:url(#Arrow1Mend)"
       d="m 162.55533,230.80167 -0.50507,38.24887"
       id="path4224-9"
       inkscape:connector-curvature="0" />
    <text
       xml:space="preserve"
       style="font-size:16px;font-style:normal;font-weight:normal;line-height:125%;letter-spacing:0px;word-spacing:0px;fill:#000000;fill-opacity:1;stroke:none;font-family:Sans"
       x="77.31308"
       y="288.55521"
       id="text3755-9-2"
       sodipodi:linespacing="125%"><tspan
         sodipodi:role="line"
         id="tspan3757-6-5"
         x="77.31308"
         y="288.55521"
         style="font-size:16px">Calculate LOS / NLOS</tspan></text>
    <path
       style="fill:none;stroke:#000000;stroke-width:1;stroke-linecap:butt;stroke-linejoin:miter;stroke-miterlimit:4;stroke-opacity:1;stroke-dasharray:none;marker-end:url(#Arrow1Mend)"
       d="m 162.55533,316.66465 -0.50507,38.24887"
       id="path4224-9-9"
       inkscape:connector-curvature="0" />
    <rect
       style="fill:none;stroke:#000000;stroke-width:1.61661613;stroke-miterlimit:4;stroke-opacity:1;stroke-dasharray:none"
       id="rect3710"
       width="81.780251"
       height="81.780251"
       x="-356.95871"
       y="460.2189"
       transform="matrix(0.8747986,-0.48448674,0.8747986,0.48448674,0,0)" />
    <g
       transform="matrix(0.35,0,0,0.35,7.3706275,273.94333)"
       id="g4523">
      <g
         style="font-style:normal;font-variant:normal;font-weight:normal;font-stretch:normal;letter-spacing:normal;word-spacing:normal;text-anchor:start;fill:none;stroke:#000000;stroke-linecap:butt;stroke-linejoin:miter;stroke-miterlimit:10.43299961;stroke-opacity:1;stroke-dasharray:none;stroke-dashoffset:0"
         id="content"
         transform="matrix(1.0629921,0,0,-1.0629921,-186.02362,789.27165)"
         xml:space="preserve"
         stroke-miterlimit="10.433"
         font-style="normal"
         font-variant="normal"
         font-weight="normal"
         font-stretch="normal"
         font-size-adjust="none"
         letter-spacing="normal"
         word-spacing="normal"><path
           style="fill:#000000;stroke-width:0"
           inkscape:connector-curvature="0"
           d="m 459.91,408.96965 -0.02,-0.07 -0.01,-0.08 -0.02,-0.07 -0.01,-0.08 -0.04,-0.16 -0.04,-0.16 -0.03,-0.16 -0.04,-0.16 -0.04,-0.16 -0.04,-0.16 -0.01,-0.08 -0.02,-0.07 -0.02,-0.07 -0.01,-0.07 -0.02,-0.07 -0.01,-0.07 -0.01,-0.06 -0.01,-0.06 -0.01,-0.06 -0.01,-0.05 -0.01,-0.05 -0.01,-0.04 -0.01,-0.04 0,-0.04 0,-0.03 0,-0.02 c 0,-0.89 0.7,-1.35 1.43,-1.35 0.61,0 1.5,0.39 1.85,1.39 0.11,0.21 1.8,6.99 2,7.88 0.39,1.64 1.3,5.12 1.59,6.48 0.21,0.64 1.6,2.99 2.78,4.08 0.41,0.34 1.85,1.64 4,1.64 1.28,0 2.03,-0.59 2.08,-0.59 -1.48,-0.25 -2.58,-1.46 -2.58,-2.74 0,-0.79 0.55,-1.75 1.89,-1.75 1.35,0 2.74,1.14 2.74,2.94 0,1.75 -1.6,3.23 -4.13,3.23 -3.25,0 -5.43,-2.43 -6.39,-3.82 -0.39,2.23 -2.18,3.82 -4.53,3.82 -2.28,0 -3.23,-1.93 -3.69,-2.82 -0.89,-1.71 -1.54,-4.69 -1.54,-4.85 0,-0.5 0.5,-0.5 0.61,-0.5 0.5,0 0.54,0.07 0.84,1.16 0.84,3.53 1.84,5.92 3.64,5.92 0.84,0 1.55,-0.39 1.55,-2.28 0,-1.05 -0.16,-1.61 -0.8,-4.19 z"
           id="path4526" /></g>    </g>
    <text
       xml:space="preserve"
       style="font-size:16px;font-style:normal;font-weight:normal;line-height:125%;letter-spacing:0px;word-spacing:0px;fill:#000000;fill-opacity:1;stroke:none;font-family:Sans"
       x="123.31799"
       y="401.09897"
       id="text3755-9-2-6"
       sodipodi:linespacing="125%"><tspan
         sodipodi:role="line"
         id="tspan3757-6-5-4"
         x="123.31799"
         y="401.09897"
         style="font-size:16px">within LOS?</tspan></text>
    <path
       inkscape:connector-curvature="0"
       id="path4671"
       d="m 233.34523,395.76304 59.2546,0 0,40.81896"
       style="fill:none;stroke:#000000;stroke-width:1;stroke-linecap:butt;stroke-linejoin:miter;stroke-opacity:1;marker-end:url(#Arrow1Mend-5);stroke-miterlimit:4;stroke-dasharray:none" />
    <path
       inkscape:connector-curvature="0"
       id="path4671-2"
       d="m 89.339934,395.67106 -60.180077,0 0,41.71197"
       style="fill:none;stroke:#000000;stroke-width:1;stroke-linecap:butt;stroke-linejoin:miter;stroke-opacity:1;marker-end:url(#Arrow1Mend-5);stroke-miterlimit:4;stroke-dasharray:none" />
    <rect
       style="fill:none;stroke:#000000;stroke-width:1.74199462;stroke-miterlimit:4;stroke-opacity:1;stroke-dasharray:none"
       id="rect4457-9"
       width="182.00537"
       height="43.941635"
       x="-65.827995"
       y="439.6369" />
    <text
       xml:space="preserve"
       style="font-size:16px;font-style:normal;font-weight:normal;line-height:125%;letter-spacing:0px;word-spacing:0px;fill:#000000;fill-opacity:1;stroke:none;font-family:Sans"
       x="-38.504997"
       y="457.57257"
       id="text3755-9-2-3"
       sodipodi:linespacing="125%"><tspan
         sodipodi:role="line"
         id="tspan3757-6-5-5"
         x="-38.504997"
         y="457.57257"
         style="font-size:16px">Apply COST-231</tspan><tspan
         id="tspan3135"
         sodipodi:role="line"
         x="-38.504997"
         y="477.57257"
         style="font-size:16px">       NLOS</tspan></text>
    <g
       id="g3139">
      <rect
         y="439.6369"
         x="203.50989"
         height="43.941635"
         width="182.00537"
         id="rect4457-9-9"
         style="fill:none;stroke:#000000;stroke-width:1.74199462;stroke-miterlimit:4;stroke-opacity:1;stroke-dasharray:none" />
      <text
         sodipodi:linespacing="125%"
         id="text3755-9-2-3-4"
         y="457.57257"
         x="230.83289"
         style="font-size:16px;font-style:normal;font-weight:normal;line-height:125%;letter-spacing:0px;word-spacing:0px;fill:#000000;fill-opacity:1;stroke:none;font-family:Sans"
         xml:space="preserve"><tspan
           style="font-size:16px"
           y="457.57257"
           x="230.83289"
           id="tspan3757-6-5-5-1"
           sodipodi:role="line">Apply COST-231</tspan><tspan
           style="font-size:16px"
           y="477.57257"
           x="230.83289"
           sodipodi:role="line"
           id="tspan3137">         LOS</tspan></text>
    </g>
    <text
       xml:space="preserve"
       style="font-size:12px;font-style:normal;font-weight:normal;line-height:125%;letter-spacing:0px;word-spacing:0px;fill:#000000;fill-opacity:1;stroke:none;font-family:Sans"
       x="244.61153"
       y="391.56641"
       id="text3755-9-2-3-4-9"
       sodipodi:linespacing="125%"><tspan
         sodipodi:role="line"
         id="tspan3757-6-5-5-1-1"
         x="244.61153"
         y="391.56641"
         style="font-size:12px">Yes</tspan></text>
    <text
       xml:space="preserve"
       style="font-size:12px;font-style:normal;font-weight:normal;line-height:125%;letter-spacing:0px;word-spacing:0px;fill:#000000;fill-opacity:1;stroke:none;font-family:Sans"
       x="59.007767"
       y="392.81393"
       id="text3755-9-2-3-4-9-3"
       sodipodi:linespacing="125%"><tspan
         sodipodi:role="line"
         id="tspan3757-6-5-5-1-1-9"
         x="59.007767"
         y="392.81393"
         style="font-size:12px">No</tspan></text>
    <path
       inkscape:connector-curvature="0"
       id="path4671-2-9"
       d="m 29.36778,483.249 0,44.8204 264.43355,0 c 0,-45.06962 0,-45.14843 0,-45.14843"
       style="fill:none;stroke:#000000;stroke-width:1;stroke-linecap:butt;stroke-linejoin:miter;stroke-miterlimit:4;stroke-opacity:1;stroke-dasharray:none;marker-end:none" />
    <path
       style="fill:none;stroke:#000000;stroke-width:1;stroke-linecap:butt;stroke-linejoin:miter;stroke-miterlimit:4;stroke-opacity:1;stroke-dasharray:none;marker-end:url(#Arrow1Mend)"
       d="m 162.0104,528.27855 -0.50507,38.24887"
       id="path4224-9-9-2"
       inkscape:connector-curvature="0" />
    <g
       id="g3130">
      <rect
         y="569.21893"
         x="38.209064"
         height="43.941635"
         width="246.75098"
         id="rect4457-5"
         style="fill:none;stroke:#000000;stroke-width:2.02830911;stroke-miterlimit:4;stroke-opacity:1;stroke-dasharray:none" />
      <text
         sodipodi:linespacing="125%"
         id="text3755-9-2-0"
         y="596.29901"
         x="49.217365"
         style="font-size:16px;font-style:normal;font-weight:normal;line-height:125%;letter-spacing:0px;word-spacing:0px;fill:#000000;fill-opacity:1;stroke:none;font-family:Sans"
         xml:space="preserve"><tspan
           style="font-size:16px"
           y="596.29901"
           x="49.217365"
           id="tspan3757-6-5-42"
           sodipodi:role="line">Calculate antenna influence</tspan></text>
    </g>
    <text
       xml:space="preserve"
       style="font-size:16px;font-style:normal;font-weight:normal;line-height:125%;letter-spacing:0px;word-spacing:0px;fill:#000000;fill-opacity:1;stroke:none;font-family:Sans"
       x="94.287674"
       y="669.0224"
       id="text3755-9-2-0-6"
       sodipodi:linespacing="125%"><tspan
         sodipodi:role="line"
         id="tspan3757-6-5-42-9"
         x="94.287674"
         y="669.0224"
         style="font-size:16px">Save transmitter </tspan><tspan
         id="tspan5446"
         sodipodi:role="line"
         x="94.287674"
         y="689.0224"
         style="font-size:16px"> path-loss to DB</tspan></text>
    <path
       style="fill:none;stroke:#000000;stroke-width:1;stroke-linecap:butt;stroke-linejoin:miter;stroke-miterlimit:4;stroke-opacity:1;stroke-dasharray:none;marker-end:url(#Arrow1Mend)"
       d="m 162.0104,613.72922 -0.50507,38.24887"
       id="path4224-9-9-2-0"
       inkscape:connector-curvature="0" />
    <g
       transform="translate(-0.22183547,-5.3275322)"
       id="g5723">
      <path
         inkscape:connector-curvature="0"
         id="path4224-9-9-2-0-9-5"
         d="m 162.0104,781.66237 -0.50507,38.24887"
         style="fill:none;stroke:#000000;stroke-width:1;stroke-linecap:butt;stroke-linejoin:miter;stroke-miterlimit:4;stroke-opacity:1;stroke-dasharray:none;marker-end:url(#Arrow1Mend)" />
      <g
         id="g3217">
        <rect
           style="fill:none;stroke:#000000;stroke-width:2;stroke-miterlimit:4;stroke-opacity:1;stroke-dasharray:none"
           id="rect2985-4"
           width="105.56094"
           height="39.39595"
           x="108.80408"
           y="822.2738"
           ry="19.697975" />
        <text
           xml:space="preserve"
           style="font-size:16px;font-style:normal;font-weight:normal;line-height:125%;letter-spacing:0px;word-spacing:0px;fill:#000000;fill-opacity:1;stroke:none;font-family:Sans"
           x="143.30721"
           y="846.24524"
           id="text3755-3"
           sodipodi:linespacing="125%"><tspan
             sodipodi:role="line"
             id="tspan3757-1"
             x="143.30721"
             y="846.24524"
             style="font-size:16px">Stop</tspan></text>
      </g>
    </g>
    <g
       transform="translate(208.42111,267.57538)"
       id="g5438">
      <text
         sodipodi:linespacing="125%"
         id="text3755-9-2-0-0"
         y="483.08151"
         x="-132.74199"
         style="font-size:16px;font-style:normal;font-weight:normal;line-height:125%;letter-spacing:0px;word-spacing:0px;fill:#000000;fill-opacity:1;stroke:none;font-family:Sans"
         xml:space="preserve"><tspan
           style="font-size:16px"
           y="483.08151"
           x="-132.74199"
           id="tspan3757-6-5-42-93"
           sodipodi:role="line">Create final coverage</tspan><tspan
           style="font-size:16px"
           y="503.08151"
           x="-132.74199"
           sodipodi:role="line"
           id="tspan3116">         prediction</tspan></text>
      <path
         inkscape:connector-curvature="0"
         id="path4224-9-9-2-0-9-3"
         d="m -46.632547,428.01082 -0.50507,38.24887"
         style="fill:none;stroke:#000000;stroke-width:1;stroke-linecap:butt;stroke-linejoin:miter;stroke-miterlimit:4;stroke-opacity:1;stroke-dasharray:none;marker-end:url(#Arrow1Mend)" />
      <rect
         transform="matrix(0.99999992,3.9388378e-4,-0.6537525,0.75670845,0,0)"
         ry="0"
         y="618.99896"
         x="273.82892"
         height="53.172375"
         width="202.33124"
         id="rect4410-9"
         style="fill:none;stroke:#000000;stroke-width:2.29875064;stroke-miterlimit:4;stroke-opacity:1;stroke-dasharray:none" />
    </g>
    <rect
       style="fill:none;stroke:#000000;stroke-width:2.31389308;stroke-miterlimit:4;stroke-opacity:1;stroke-dasharray:none"
       id="rect4410-2"
       width="204.19823"
       height="53.382622"
       x="647.43115"
       y="867.94928"
       ry="0"
       transform="matrix(0.99999992,3.902825e-4,-0.65718634,0.75372814,0,0)" />
    <g
       id="g3185"
       ns0:preamble=""
       ns0:text="{$\\forall r,r\\in {transmission radius}$}"
       transform="matrix(1.8,0,0,1.8,-358.03363,16.069458)">
      <defs
         id="defs3187">
        <g
           id="g3189">
          <symbol
             id="textext-e93a7992-0"
             overflow="visible"
             style="overflow:visible">
            <path
               id="path3192"
               d=""
               style="stroke:none"
               inkscape:connector-curvature="0" />
          </symbol>
          <symbol
             id="textext-e93a7992-1"
             overflow="visible"
             style="overflow:visible">
            <path
               id="path3195"
               d="m 5.5,-6.546875 c 0.046875,-0.109375 0.046875,-0.125 0.046875,-0.171875 0,-0.09375 -0.078125,-0.203125 -0.203125,-0.203125 -0.125,0 -0.1875,0.125 -0.234375,0.234375 L 4.28125,-4.5 1.25,-4.5 0.421875,-6.6875 C 0.375,-6.828125 0.328125,-6.921875 0.203125,-6.921875 0.09375,-6.921875 0,-6.8125 0,-6.71875 c 0,0.015625 0,0.046875 0.0625,0.171875 l 2.484375,6.53125 C 2.59375,0.125 2.640625,0.21875 2.765625,0.21875 c 0.140625,0 0.1875,-0.109375 0.21875,-0.203125 z m -4.078125,2.453125 2.703125,0 -1.359375,3.546875 z"
               style="stroke:none"
               inkscape:connector-curvature="0" />
          </symbol>
          <symbol
             id="textext-e93a7992-2"
             overflow="visible"
             style="overflow:visible">
            <path
               id="path3198"
               d="m 5.46875,-2.296875 c 0.15625,0 0.34375,0 0.34375,-0.203125 0,-0.1875 -0.1875,-0.1875 -0.34375,-0.1875 l -4.234375,0 C 1.359375,-4.03125 2.5,-4.984375 3.90625,-4.984375 l 1.5625,0 c 0.15625,0 0.34375,0 0.34375,-0.203125 0,-0.203125 -0.1875,-0.203125 -0.34375,-0.203125 l -1.578125,0 c -1.703125,0 -3.0625,1.296875 -3.0625,2.890625 0,1.609375 1.359375,2.90625 3.0625,2.90625 l 1.578125,0 c 0.15625,0 0.34375,0 0.34375,-0.203125 C 5.8125,0 5.625,0 5.46875,0 L 3.90625,0 C 2.5,0 1.359375,-0.953125 1.234375,-2.296875 z"
               style="stroke:none"
               inkscape:connector-curvature="0" />
          </symbol>
          <symbol
             id="textext-e93a7992-3"
             overflow="visible"
             style="overflow:visible">
            <path
               id="path3201"
               d=""
               style="stroke:none"
               inkscape:connector-curvature="0" />
          </symbol>
          <symbol
             id="textext-e93a7992-4"
             overflow="visible"
             style="overflow:visible">
            <path
               id="path3204"
               d="m 0.875,-0.59375 c -0.03125,0.15625 -0.09375,0.390625 -0.09375,0.4375 0,0.171875 0.140625,0.265625 0.296875,0.265625 0.125,0 0.296875,-0.078125 0.375,-0.28125 C 1.46875,-0.203125 1.796875,-1.5625 1.84375,-1.75 c 0.078125,-0.328125 0.265625,-1.015625 0.3125,-1.296875 0.046875,-0.125 0.328125,-0.59375 0.5625,-0.8125 0.078125,-0.0625 0.375,-0.328125 0.796875,-0.328125 0.265625,0 0.40625,0.125 0.421875,0.125 -0.296875,0.046875 -0.515625,0.28125 -0.515625,0.546875 0,0.15625 0.109375,0.34375 0.375,0.34375 0.265625,0 0.546875,-0.234375 0.546875,-0.59375 0,-0.34375 -0.3125,-0.640625 -0.828125,-0.640625 C 2.875,-4.40625 2.4375,-3.921875 2.25,-3.640625 2.15625,-4.09375 1.796875,-4.40625 1.328125,-4.40625 0.875,-4.40625 0.6875,-4.015625 0.59375,-3.84375 0.421875,-3.5 0.296875,-2.90625 0.296875,-2.875 c 0,0.109375 0.09375,0.109375 0.109375,0.109375 0.109375,0 0.109375,-0.015625 0.171875,-0.234375 0.171875,-0.703125 0.375,-1.1875 0.734375,-1.1875 0.15625,0 0.296875,0.078125 0.296875,0.453125 0,0.21875 -0.03125,0.328125 -0.15625,0.84375 z"
               style="stroke:none"
               inkscape:connector-curvature="0" />
          </symbol>
          <symbol
             id="textext-e93a7992-5"
             overflow="visible"
             style="overflow:visible">
            <path
               id="path3207"
               d="m 2.03125,-0.015625 c 0,-0.65625 -0.25,-1.046875 -0.640625,-1.046875 -0.328125,0 -0.53125,0.25 -0.53125,0.53125 C 0.859375,-0.265625 1.0625,0 1.390625,0 1.5,0 1.640625,-0.046875 1.734375,-0.125 1.765625,-0.15625 1.78125,-0.15625 1.78125,-0.15625 c 0.015625,0 0.015625,0 0.015625,0.140625 0,0.75 -0.34375,1.34375 -0.671875,1.671875 -0.109375,0.109375 -0.109375,0.125 -0.109375,0.15625 0,0.078125 0.046875,0.109375 0.09375,0.109375 0.109375,0 0.921875,-0.765625 0.921875,-1.9375 z"
               style="stroke:none"
               inkscape:connector-curvature="0" />
          </symbol>
          <symbol
             id="textext-e93a7992-6"
             overflow="visible"
             style="overflow:visible">
            <path
               id="path3210"
               d="m 2.046875,-3.984375 0.9375,0 c 0.203125,0 0.3125,0 0.3125,-0.203125 0,-0.109375 -0.109375,-0.109375 -0.28125,-0.109375 l -0.875,0 C 2.5,-5.71875 2.546875,-5.90625 2.546875,-5.96875 c 0,-0.171875 -0.125,-0.265625 -0.296875,-0.265625 -0.03125,0 -0.3125,0 -0.390625,0.359375 l -0.390625,1.578125 -0.9375,0 c -0.203125,0 -0.296875,0 -0.296875,0.1875 0,0.125 0.078125,0.125 0.28125,0.125 l 0.875,0 C 0.671875,-1.15625 0.625,-0.984375 0.625,-0.8125 0.625,-0.265625 1,0.109375 1.546875,0.109375 2.5625,0.109375 3.125,-1.34375 3.125,-1.421875 3.125,-1.53125 3.046875,-1.53125 3.015625,-1.53125 2.921875,-1.53125 2.90625,-1.5 2.859375,-1.390625 2.4375,-0.34375 1.90625,-0.109375 1.5625,-0.109375 c -0.203125,0 -0.3125,-0.125 -0.3125,-0.453125 0,-0.25 0.03125,-0.3125 0.0625,-0.484375 z"
               style="stroke:none"
               inkscape:connector-curvature="0" />
          </symbol>
          <symbol
             id="textext-e93a7992-7"
             overflow="visible"
             style="overflow:visible">
            <path
               id="path3213"
               d="M 3.71875,-3.765625 C 3.53125,-4.140625 3.25,-4.40625 2.796875,-4.40625 c -1.15625,0 -2.390625,1.46875 -2.390625,2.921875 0,0.9375 0.546875,1.59375 1.3125,1.59375 0.203125,0 0.703125,-0.046875 1.296875,-0.75 0.078125,0.421875 0.4375,0.75 0.90625,0.75 0.359375,0 0.578125,-0.234375 0.75,-0.546875 0.15625,-0.359375 0.296875,-0.96875 0.296875,-0.984375 0,-0.109375 -0.09375,-0.109375 -0.125,-0.109375 -0.09375,0 -0.109375,0.046875 -0.140625,0.1875 -0.171875,0.640625 -0.34375,1.234375 -0.75,1.234375 -0.28125,0 -0.296875,-0.265625 -0.296875,-0.453125 0,-0.21875 0.015625,-0.3125 0.125,-0.75 C 3.890625,-1.71875 3.90625,-1.828125 4,-2.203125 L 4.359375,-3.59375 c 0.0625,-0.28125 0.0625,-0.296875 0.0625,-0.34375 0,-0.171875 -0.109375,-0.265625 -0.28125,-0.265625 -0.25,0 -0.390625,0.21875 -0.421875,0.4375 z M 3.078125,-1.1875 C 3.015625,-1 3.015625,-0.984375 2.875,-0.8125 2.4375,-0.265625 2.03125,-0.109375 1.75,-0.109375 c -0.5,0 -0.640625,-0.546875 -0.640625,-0.9375 0,-0.5 0.3125,-1.71875 0.546875,-2.1875 0.3125,-0.578125 0.75,-0.953125 1.15625,-0.953125 0.640625,0 0.78125,0.8125 0.78125,0.875 0,0.0625 -0.015625,0.125 -0.03125,0.171875 z"
               style="stroke:none"
               inkscape:connector-curvature="0" />
          </symbol>
          <symbol
             id="textext-e93a7992-8"
             overflow="visible"
             style="overflow:visible">
            <path
               id="path3216"
               d="m 0.875,-0.59375 c -0.03125,0.15625 -0.09375,0.390625 -0.09375,0.4375 0,0.171875 0.140625,0.265625 0.296875,0.265625 0.125,0 0.296875,-0.078125 0.375,-0.28125 0,-0.015625 0.125,-0.484375 0.1875,-0.734375 l 0.21875,-0.890625 C 1.90625,-2.03125 1.96875,-2.25 2.03125,-2.46875 c 0.03125,-0.171875 0.109375,-0.46875 0.125,-0.5 0.140625,-0.3125 0.671875,-1.21875 1.625,-1.21875 0.453125,0 0.53125,0.375 0.53125,0.703125 0,0.609375 -0.484375,1.890625 -0.640625,2.3125 C 3.578125,-0.9375 3.5625,-0.8125 3.5625,-0.703125 c 0,0.46875 0.359375,0.8125 0.828125,0.8125 0.9375,0 1.296875,-1.453125 1.296875,-1.53125 0,-0.109375 -0.078125,-0.109375 -0.109375,-0.109375 -0.109375,0 -0.109375,0.03125 -0.15625,0.1875 -0.203125,0.671875 -0.53125,1.234375 -1.015625,1.234375 -0.171875,0 -0.234375,-0.09375 -0.234375,-0.328125 0,-0.25 0.078125,-0.484375 0.171875,-0.703125 0.1875,-0.53125 0.609375,-1.625 0.609375,-2.203125 0,-0.65625 -0.421875,-1.0625 -1.140625,-1.0625 -0.90625,0 -1.390625,0.640625 -1.5625,0.875 -0.046875,-0.5625 -0.453125,-0.875 -0.921875,-0.875 -0.453125,0 -0.640625,0.390625 -0.734375,0.5625 C 0.421875,-3.5 0.296875,-2.90625 0.296875,-2.875 c 0,0.109375 0.09375,0.109375 0.109375,0.109375 0.109375,0 0.109375,-0.015625 0.171875,-0.234375 0.171875,-0.703125 0.375,-1.1875 0.734375,-1.1875 0.1875,0 0.296875,0.125 0.296875,0.453125 0,0.21875 -0.03125,0.328125 -0.15625,0.84375 z"
               style="stroke:none"
               inkscape:connector-curvature="0" />
          </symbol>
          <symbol
             id="textext-e93a7992-9"
             overflow="visible"
             style="overflow:visible">
            <path
               id="path3219"
               d="M 3.890625,-3.734375 C 3.625,-3.71875 3.421875,-3.5 3.421875,-3.28125 c 0,0.140625 0.09375,0.296875 0.3125,0.296875 0.21875,0 0.453125,-0.171875 0.453125,-0.5625 C 4.1875,-4 3.765625,-4.40625 3,-4.40625 c -1.3125,0 -1.6875,1.015625 -1.6875,1.453125 0,0.78125 0.734375,0.921875 1.03125,0.984375 0.515625,0.109375 1.03125,0.21875 1.03125,0.765625 0,0.25 -0.21875,1.09375 -1.421875,1.09375 -0.140625,0 -0.90625,0 -1.140625,-0.53125 0.390625,0.046875 0.640625,-0.25 0.640625,-0.53125 0,-0.21875 -0.171875,-0.34375 -0.375,-0.34375 -0.265625,0 -0.5625,0.203125 -0.5625,0.65625 0,0.5625 0.578125,0.96875 1.421875,0.96875 1.625,0 2.015625,-1.203125 2.015625,-1.65625 0,-0.359375 -0.1875,-0.609375 -0.3125,-0.71875 -0.265625,-0.28125 -0.5625,-0.34375 -1,-0.421875 -0.359375,-0.078125 -0.75,-0.15625 -0.75,-0.609375 C 1.890625,-3.578125 2.125,-4.1875 3,-4.1875 c 0.25,0 0.75,0.078125 0.890625,0.453125 z"
               style="stroke:none"
               inkscape:connector-curvature="0" />
          </symbol>
          <symbol
             id="textext-e93a7992-10"
             overflow="visible"
             style="overflow:visible">
            <path
               id="path3222"
               d="m 0.875,-0.59375 c -0.03125,0.15625 -0.09375,0.390625 -0.09375,0.4375 0,0.171875 0.140625,0.265625 0.296875,0.265625 0.125,0 0.296875,-0.078125 0.375,-0.28125 0,-0.015625 0.125,-0.484375 0.1875,-0.734375 l 0.21875,-0.890625 C 1.90625,-2.03125 1.96875,-2.25 2.03125,-2.46875 c 0.03125,-0.171875 0.109375,-0.46875 0.125,-0.5 0.140625,-0.3125 0.671875,-1.21875 1.625,-1.21875 0.453125,0 0.53125,0.375 0.53125,0.703125 0,0.25 -0.0625,0.53125 -0.140625,0.828125 L 3.890625,-1.5 3.6875,-0.75 c -0.03125,0.203125 -0.125,0.546875 -0.125,0.59375 0,0.171875 0.140625,0.265625 0.28125,0.265625 0.3125,0 0.375,-0.25 0.453125,-0.5625 0.140625,-0.5625 0.515625,-2.015625 0.59375,-2.40625 0.03125,-0.125 0.5625,-1.328125 1.65625,-1.328125 0.421875,0 0.53125,0.34375 0.53125,0.703125 0,0.5625 -0.421875,1.703125 -0.625,2.234375 -0.078125,0.234375 -0.125,0.34375 -0.125,0.546875 0,0.46875 0.34375,0.8125 0.8125,0.8125 0.9375,0 1.3125,-1.453125 1.3125,-1.53125 0,-0.109375 -0.09375,-0.109375 -0.125,-0.109375 -0.09375,0 -0.09375,0.03125 -0.140625,0.1875 -0.15625,0.53125 -0.46875,1.234375 -1.015625,1.234375 -0.171875,0 -0.25,-0.09375 -0.25,-0.328125 0,-0.25 0.09375,-0.484375 0.1875,-0.703125 0.1875,-0.53125 0.609375,-1.625 0.609375,-2.203125 0,-0.640625 -0.40625,-1.0625 -1.15625,-1.0625 -0.734375,0 -1.25,0.4375 -1.625,0.96875 0,-0.125 -0.03125,-0.46875 -0.3125,-0.703125 -0.25,-0.21875 -0.5625,-0.265625 -0.8125,-0.265625 -0.90625,0 -1.390625,0.640625 -1.5625,0.875 -0.046875,-0.578125 -0.46875,-0.875 -0.921875,-0.875 -0.453125,0 -0.640625,0.390625 -0.734375,0.5625 -0.171875,0.359375 -0.296875,0.9375 -0.296875,0.96875 0,0.109375 0.09375,0.109375 0.109375,0.109375 0.109375,0 0.109375,-0.015625 0.171875,-0.234375 0.171875,-0.703125 0.375,-1.1875 0.734375,-1.1875 0.15625,0 0.296875,0.078125 0.296875,0.453125 0,0.21875 -0.03125,0.328125 -0.15625,0.84375 z"
               style="stroke:none"
               inkscape:connector-curvature="0" />
          </symbol>
          <symbol
             id="textext-e93a7992-11"
             overflow="visible"
             style="overflow:visible">
            <path
               id="path3225"
               d="m 2.828125,-6.234375 c 0,-0.203125 -0.140625,-0.359375 -0.359375,-0.359375 -0.28125,0 -0.546875,0.265625 -0.546875,0.53125 0,0.1875 0.140625,0.359375 0.375,0.359375 0.234375,0 0.53125,-0.234375 0.53125,-0.53125 z m -0.75,3.75 c 0.109375,-0.28125 0.109375,-0.3125 0.21875,-0.578125 0.078125,-0.203125 0.125,-0.34375 0.125,-0.53125 0,-0.4375 -0.3125,-0.8125 -0.8125,-0.8125 -0.9375,0 -1.3125,1.453125 -1.3125,1.53125 0,0.109375 0.09375,0.109375 0.109375,0.109375 0.109375,0 0.109375,-0.03125 0.15625,-0.1875 0.28125,-0.9375 0.671875,-1.234375 1.015625,-1.234375 0.078125,0 0.25,0 0.25,0.3125 0,0.21875 -0.078125,0.421875 -0.109375,0.53125 -0.078125,0.25 -0.53125,1.40625 -0.6875,1.84375 -0.109375,0.25 -0.234375,0.578125 -0.234375,0.796875 0,0.46875 0.34375,0.8125 0.8125,0.8125 0.9375,0 1.3125,-1.4375 1.3125,-1.53125 0,-0.109375 -0.09375,-0.109375 -0.125,-0.109375 -0.09375,0 -0.09375,0.03125 -0.140625,0.1875 -0.1875,0.625 -0.515625,1.234375 -1.015625,1.234375 -0.171875,0 -0.25,-0.09375 -0.25,-0.328125 0,-0.25 0.0625,-0.390625 0.296875,-1 z"
               style="stroke:none"
               inkscape:connector-curvature="0" />
          </symbol>
          <symbol
             id="textext-e93a7992-12"
             overflow="visible"
             style="overflow:visible">
            <path
               id="path3228"
               d="m 4.671875,-2.71875 c 0,-1.046875 -0.6875,-1.6875 -1.59375,-1.6875 -1.328125,0 -2.671875,1.421875 -2.671875,2.828125 0,0.984375 0.671875,1.6875 1.59375,1.6875 1.328125,0 2.671875,-1.375 2.671875,-2.828125 z m -2.65625,2.609375 c -0.4375,0 -0.875,-0.3125 -0.875,-1.09375 0,-0.484375 0.265625,-1.5625 0.578125,-2.0625 0.5,-0.765625 1.078125,-0.921875 1.359375,-0.921875 0.578125,0 0.875,0.484375 0.875,1.078125 0,0.390625 -0.203125,1.4375 -0.578125,2.078125 -0.359375,0.578125 -0.90625,0.921875 -1.359375,0.921875 z"
               style="stroke:none"
               inkscape:connector-curvature="0" />
          </symbol>
          <symbol
             id="textext-e93a7992-13"
             overflow="visible"
             style="overflow:visible">
            <path
               id="path3231"
               d="m 5.140625,-6.8125 c 0,0 0,-0.109375 -0.125,-0.109375 -0.15625,0 -1.09375,0.09375 -1.265625,0.109375 -0.078125,0.015625 -0.140625,0.0625 -0.140625,0.1875 0,0.125 0.09375,0.125 0.234375,0.125 0.484375,0 0.5,0.0625 0.5,0.171875 L 4.3125,-6.125 3.71875,-3.765625 C 3.53125,-4.140625 3.25,-4.40625 2.796875,-4.40625 c -1.15625,0 -2.390625,1.46875 -2.390625,2.921875 0,0.9375 0.546875,1.59375 1.3125,1.59375 0.203125,0 0.703125,-0.046875 1.296875,-0.75 0.078125,0.421875 0.4375,0.75 0.90625,0.75 0.359375,0 0.578125,-0.234375 0.75,-0.546875 0.15625,-0.359375 0.296875,-0.96875 0.296875,-0.984375 0,-0.109375 -0.09375,-0.109375 -0.125,-0.109375 -0.09375,0 -0.109375,0.046875 -0.140625,0.1875 -0.171875,0.640625 -0.34375,1.234375 -0.75,1.234375 -0.28125,0 -0.296875,-0.265625 -0.296875,-0.453125 0,-0.25 0.015625,-0.3125 0.046875,-0.484375 z m -2.0625,5.625 C 3.015625,-1 3.015625,-0.984375 2.875,-0.8125 2.4375,-0.265625 2.03125,-0.109375 1.75,-0.109375 c -0.5,0 -0.640625,-0.546875 -0.640625,-0.9375 0,-0.5 0.3125,-1.71875 0.546875,-2.1875 0.3125,-0.578125 0.75,-0.953125 1.15625,-0.953125 0.640625,0 0.78125,0.8125 0.78125,0.875 0,0.0625 -0.015625,0.125 -0.03125,0.171875 z"
               style="stroke:none"
               inkscape:connector-curvature="0" />
          </symbol>
          <symbol
             id="textext-e93a7992-14"
             overflow="visible"
             style="overflow:visible">
            <path
               id="path3234"
               d="M 3.484375,-0.5625 C 3.59375,-0.15625 3.953125,0.109375 4.375,0.109375 4.71875,0.109375 4.953125,-0.125 5.109375,-0.4375 5.28125,-0.796875 5.40625,-1.40625 5.40625,-1.421875 c 0,-0.109375 -0.078125,-0.109375 -0.109375,-0.109375 -0.109375,0 -0.109375,0.046875 -0.140625,0.1875 -0.140625,0.5625 -0.328125,1.234375 -0.75,1.234375 -0.203125,0 -0.3125,-0.125 -0.3125,-0.453125 0,-0.21875 0.125,-0.6875 0.203125,-1.046875 L 4.578125,-2.6875 C 4.609375,-2.828125 4.703125,-3.203125 4.75,-3.359375 4.796875,-3.59375 4.890625,-3.96875 4.890625,-4.03125 c 0,-0.171875 -0.140625,-0.265625 -0.28125,-0.265625 -0.046875,0 -0.3125,0.015625 -0.390625,0.34375 -0.1875,0.734375 -0.625,2.484375 -0.75,3 -0.015625,0.046875 -0.40625,0.84375 -1.140625,0.84375 -0.515625,0 -0.609375,-0.453125 -0.609375,-0.8125 0,-0.5625 0.28125,-1.34375 0.53125,-2.03125 0.125,-0.3125 0.171875,-0.453125 0.171875,-0.640625 0,-0.4375 -0.3125,-0.8125 -0.8125,-0.8125 -0.953125,0 -1.3125,1.453125 -1.3125,1.53125 0,0.109375 0.09375,0.109375 0.109375,0.109375 0.109375,0 0.109375,-0.03125 0.15625,-0.1875 0.25,-0.859375 0.640625,-1.234375 1.015625,-1.234375 0.09375,0 0.25,0.015625 0.25,0.328125 0,0.234375 -0.109375,0.53125 -0.171875,0.671875 -0.375,1 -0.578125,1.609375 -0.578125,2.09375 0,0.953125 0.6875,1.203125 1.21875,1.203125 0.65625,0 1.015625,-0.453125 1.1875,-0.671875 z"
               style="stroke:none"
               inkscape:connector-curvature="0" />
          </symbol>
        </g>
      </defs>
      <g
         id="g4197"
         transform="translate(0,27.063928)"
         ns0:preamble=""
         ns0:text="{$\\forall r, r\\in \\{transmission\\, radius\\}$}">
        <defs
           id="defs4199">
          <g
             id="g4201">
            <symbol
               id="textext-ab3927ee-0"
               overflow="visible"
               style="overflow:visible">
              <path
                 id="path4204"
                 d=""
                 style="stroke:none"
                 inkscape:connector-curvature="0" />
            </symbol>
            <symbol
               id="textext-ab3927ee-1"
               overflow="visible"
               style="overflow:visible">
              <path
                 id="path4207"
                 d="m 5.5,-6.546875 c 0.046875,-0.109375 0.046875,-0.125 0.046875,-0.171875 0,-0.09375 -0.078125,-0.203125 -0.203125,-0.203125 -0.125,0 -0.1875,0.125 -0.234375,0.234375 L 4.28125,-4.5 1.25,-4.5 0.421875,-6.6875 C 0.375,-6.828125 0.328125,-6.921875 0.203125,-6.921875 0.09375,-6.921875 0,-6.8125 0,-6.71875 c 0,0.015625 0,0.046875 0.0625,0.171875 l 2.484375,6.53125 C 2.59375,0.125 2.640625,0.21875 2.765625,0.21875 c 0.140625,0 0.1875,-0.109375 0.21875,-0.203125 z m -4.078125,2.453125 2.703125,0 -1.359375,3.546875 z"
                 style="stroke:none"
                 inkscape:connector-curvature="0" />
            </symbol>
            <symbol
               id="textext-ab3927ee-2"
               overflow="visible"
               style="overflow:visible">
              <path
                 id="path4210"
                 d="m 5.46875,-2.296875 c 0.15625,0 0.34375,0 0.34375,-0.203125 0,-0.1875 -0.1875,-0.1875 -0.34375,-0.1875 l -4.234375,0 C 1.359375,-4.03125 2.5,-4.984375 3.90625,-4.984375 l 1.5625,0 c 0.15625,0 0.34375,0 0.34375,-0.203125 0,-0.203125 -0.1875,-0.203125 -0.34375,-0.203125 l -1.578125,0 c -1.703125,0 -3.0625,1.296875 -3.0625,2.890625 0,1.609375 1.359375,2.90625 3.0625,2.90625 l 1.578125,0 c 0.15625,0 0.34375,0 0.34375,-0.203125 C 5.8125,0 5.625,0 5.46875,0 L 3.90625,0 C 2.5,0 1.359375,-0.953125 1.234375,-2.296875 z"
                 style="stroke:none"
                 inkscape:connector-curvature="0" />
            </symbol>
            <symbol
               id="textext-ab3927ee-3"
               overflow="visible"
               style="overflow:visible">
              <path
                 id="path4213"
                 d="m 2.828125,-6.15625 c 0,-0.390625 0.25,-1.03125 1.34375,-1.09375 C 4.21875,-7.265625 4.25,-7.3125 4.25,-7.359375 c 0,-0.125 -0.078125,-0.125 -0.1875,-0.125 -0.984375,0 -1.90625,0.515625 -1.90625,1.25 l 0,2.28125 c 0,0.390625 0,0.703125 -0.40625,1.03125 -0.34375,0.296875 -0.71875,0.3125 -0.9375,0.3125 C 0.75,-2.59375 0.71875,-2.546875 0.71875,-2.5 c 0,0.109375 0.0625,0.109375 0.15625,0.125 0.65625,0.03125 1.140625,0.390625 1.25,0.875 0.03125,0.109375 0.03125,0.140625 0.03125,0.5 l 0,1.96875 c 0,0.421875 0,0.734375 0.46875,1.109375 C 3.015625,2.375 3.671875,2.5 4.0625,2.5 4.171875,2.5 4.25,2.5 4.25,2.375 4.25,2.28125 4.203125,2.28125 4.09375,2.265625 3.46875,2.234375 2.984375,1.90625 2.84375,1.40625 2.828125,1.3125 2.828125,1.296875 2.828125,0.9375 l 0,-2.09375 c 0,-0.453125 -0.09375,-0.625 -0.40625,-0.953125 C 2.21875,-2.3125 1.921875,-2.40625 1.640625,-2.5 c 0.828125,-0.21875 1.1875,-0.6875 1.1875,-1.265625 z"
                 style="stroke:none"
                 inkscape:connector-curvature="0" />
            </symbol>
            <symbol
               id="textext-ab3927ee-4"
               overflow="visible"
               style="overflow:visible">
              <path
                 id="path4216"
                 d="m 2.15625,1.171875 c 0,0.390625 -0.265625,1.03125 -1.34375,1.09375 C 0.75,2.28125 0.71875,2.328125 0.71875,2.375 0.71875,2.5 0.828125,2.5 0.921875,2.5 1.890625,2.5 2.8125,2 2.828125,1.25 l 0,-2.28125 c 0,-0.390625 0,-0.703125 0.390625,-1.03125 C 3.5625,-2.359375 3.953125,-2.375 4.171875,-2.375 4.21875,-2.390625 4.25,-2.4375 4.25,-2.5 4.25,-2.59375 4.203125,-2.59375 4.09375,-2.609375 3.4375,-2.640625 2.953125,-3 2.84375,-3.484375 2.828125,-3.59375 2.828125,-3.625 2.828125,-3.984375 l 0,-1.96875 c 0,-0.421875 0,-0.734375 -0.484375,-1.109375 C 1.9375,-7.375 1.25,-7.484375 0.921875,-7.484375 c -0.09375,0 -0.203125,0 -0.203125,0.125 0,0.09375 0.0625,0.09375 0.15625,0.109375 0.625,0.03125 1.125,0.359375 1.25,0.859375 0.03125,0.09375 0.03125,0.109375 0.03125,0.46875 l 0,2.09375 c 0,0.453125 0.078125,0.625 0.390625,0.953125 0.21875,0.203125 0.5,0.296875 0.78125,0.375 -0.8125,0.234375 -1.171875,0.703125 -1.171875,1.28125 z"
                 style="stroke:none"
                 inkscape:connector-curvature="0" />
            </symbol>
            <symbol
               id="textext-ab3927ee-5"
               overflow="visible"
               style="overflow:visible">
              <path
                 id="path4219"
                 d=""
                 style="stroke:none"
                 inkscape:connector-curvature="0" />
            </symbol>
            <symbol
               id="textext-ab3927ee-6"
               overflow="visible"
               style="overflow:visible">
              <path
                 id="path4222"
                 d="m 0.875,-0.59375 c -0.03125,0.15625 -0.09375,0.390625 -0.09375,0.4375 0,0.171875 0.140625,0.265625 0.296875,0.265625 0.125,0 0.296875,-0.078125 0.375,-0.28125 C 1.46875,-0.203125 1.796875,-1.5625 1.84375,-1.75 c 0.078125,-0.328125 0.265625,-1.015625 0.3125,-1.296875 0.046875,-0.125 0.328125,-0.59375 0.5625,-0.8125 0.078125,-0.0625 0.375,-0.328125 0.796875,-0.328125 0.265625,0 0.40625,0.125 0.421875,0.125 -0.296875,0.046875 -0.515625,0.28125 -0.515625,0.546875 0,0.15625 0.109375,0.34375 0.375,0.34375 0.265625,0 0.546875,-0.234375 0.546875,-0.59375 0,-0.34375 -0.3125,-0.640625 -0.828125,-0.640625 C 2.875,-4.40625 2.4375,-3.921875 2.25,-3.640625 2.15625,-4.09375 1.796875,-4.40625 1.328125,-4.40625 0.875,-4.40625 0.6875,-4.015625 0.59375,-3.84375 0.421875,-3.5 0.296875,-2.90625 0.296875,-2.875 c 0,0.109375 0.09375,0.109375 0.109375,0.109375 0.109375,0 0.109375,-0.015625 0.171875,-0.234375 0.171875,-0.703125 0.375,-1.1875 0.734375,-1.1875 0.15625,0 0.296875,0.078125 0.296875,0.453125 0,0.21875 -0.03125,0.328125 -0.15625,0.84375 z"
                 style="stroke:none"
                 inkscape:connector-curvature="0" />
            </symbol>
            <symbol
               id="textext-ab3927ee-7"
               overflow="visible"
               style="overflow:visible">
              <path
                 id="path4225"
                 d="m 2.03125,-0.015625 c 0,-0.65625 -0.25,-1.046875 -0.640625,-1.046875 -0.328125,0 -0.53125,0.25 -0.53125,0.53125 C 0.859375,-0.265625 1.0625,0 1.390625,0 1.5,0 1.640625,-0.046875 1.734375,-0.125 1.765625,-0.15625 1.78125,-0.15625 1.78125,-0.15625 c 0.015625,0 0.015625,0 0.015625,0.140625 0,0.75 -0.34375,1.34375 -0.671875,1.671875 -0.109375,0.109375 -0.109375,0.125 -0.109375,0.15625 0,0.078125 0.046875,0.109375 0.09375,0.109375 0.109375,0 0.921875,-0.765625 0.921875,-1.9375 z"
                 style="stroke:none"
                 inkscape:connector-curvature="0" />
            </symbol>
            <symbol
               id="textext-ab3927ee-8"
               overflow="visible"
               style="overflow:visible">
              <path
                 id="path4228"
                 d="m 2.046875,-3.984375 0.9375,0 c 0.203125,0 0.3125,0 0.3125,-0.203125 0,-0.109375 -0.109375,-0.109375 -0.28125,-0.109375 l -0.875,0 C 2.5,-5.71875 2.546875,-5.90625 2.546875,-5.96875 c 0,-0.171875 -0.125,-0.265625 -0.296875,-0.265625 -0.03125,0 -0.3125,0 -0.390625,0.359375 l -0.390625,1.578125 -0.9375,0 c -0.203125,0 -0.296875,0 -0.296875,0.1875 0,0.125 0.078125,0.125 0.28125,0.125 l 0.875,0 C 0.671875,-1.15625 0.625,-0.984375 0.625,-0.8125 0.625,-0.265625 1,0.109375 1.546875,0.109375 2.5625,0.109375 3.125,-1.34375 3.125,-1.421875 3.125,-1.53125 3.046875,-1.53125 3.015625,-1.53125 2.921875,-1.53125 2.90625,-1.5 2.859375,-1.390625 2.4375,-0.34375 1.90625,-0.109375 1.5625,-0.109375 c -0.203125,0 -0.3125,-0.125 -0.3125,-0.453125 0,-0.25 0.03125,-0.3125 0.0625,-0.484375 z"
                 style="stroke:none"
                 inkscape:connector-curvature="0" />
            </symbol>
            <symbol
               id="textext-ab3927ee-9"
               overflow="visible"
               style="overflow:visible">
              <path
                 id="path4231"
                 d="M 3.71875,-3.765625 C 3.53125,-4.140625 3.25,-4.40625 2.796875,-4.40625 c -1.15625,0 -2.390625,1.46875 -2.390625,2.921875 0,0.9375 0.546875,1.59375 1.3125,1.59375 0.203125,0 0.703125,-0.046875 1.296875,-0.75 0.078125,0.421875 0.4375,0.75 0.90625,0.75 0.359375,0 0.578125,-0.234375 0.75,-0.546875 0.15625,-0.359375 0.296875,-0.96875 0.296875,-0.984375 0,-0.109375 -0.09375,-0.109375 -0.125,-0.109375 -0.09375,0 -0.109375,0.046875 -0.140625,0.1875 -0.171875,0.640625 -0.34375,1.234375 -0.75,1.234375 -0.28125,0 -0.296875,-0.265625 -0.296875,-0.453125 0,-0.21875 0.015625,-0.3125 0.125,-0.75 C 3.890625,-1.71875 3.90625,-1.828125 4,-2.203125 L 4.359375,-3.59375 c 0.0625,-0.28125 0.0625,-0.296875 0.0625,-0.34375 0,-0.171875 -0.109375,-0.265625 -0.28125,-0.265625 -0.25,0 -0.390625,0.21875 -0.421875,0.4375 z M 3.078125,-1.1875 C 3.015625,-1 3.015625,-0.984375 2.875,-0.8125 2.4375,-0.265625 2.03125,-0.109375 1.75,-0.109375 c -0.5,0 -0.640625,-0.546875 -0.640625,-0.9375 0,-0.5 0.3125,-1.71875 0.546875,-2.1875 0.3125,-0.578125 0.75,-0.953125 1.15625,-0.953125 0.640625,0 0.78125,0.8125 0.78125,0.875 0,0.0625 -0.015625,0.125 -0.03125,0.171875 z"
                 style="stroke:none"
                 inkscape:connector-curvature="0" />
            </symbol>
            <symbol
               id="textext-ab3927ee-10"
               overflow="visible"
               style="overflow:visible">
              <path
                 id="path4234"
                 d="m 0.875,-0.59375 c -0.03125,0.15625 -0.09375,0.390625 -0.09375,0.4375 0,0.171875 0.140625,0.265625 0.296875,0.265625 0.125,0 0.296875,-0.078125 0.375,-0.28125 0,-0.015625 0.125,-0.484375 0.1875,-0.734375 l 0.21875,-0.890625 C 1.90625,-2.03125 1.96875,-2.25 2.03125,-2.46875 c 0.03125,-0.171875 0.109375,-0.46875 0.125,-0.5 0.140625,-0.3125 0.671875,-1.21875 1.625,-1.21875 0.453125,0 0.53125,0.375 0.53125,0.703125 0,0.609375 -0.484375,1.890625 -0.640625,2.3125 C 3.578125,-0.9375 3.5625,-0.8125 3.5625,-0.703125 c 0,0.46875 0.359375,0.8125 0.828125,0.8125 0.9375,0 1.296875,-1.453125 1.296875,-1.53125 0,-0.109375 -0.078125,-0.109375 -0.109375,-0.109375 -0.109375,0 -0.109375,0.03125 -0.15625,0.1875 -0.203125,0.671875 -0.53125,1.234375 -1.015625,1.234375 -0.171875,0 -0.234375,-0.09375 -0.234375,-0.328125 0,-0.25 0.078125,-0.484375 0.171875,-0.703125 0.1875,-0.53125 0.609375,-1.625 0.609375,-2.203125 0,-0.65625 -0.421875,-1.0625 -1.140625,-1.0625 -0.90625,0 -1.390625,0.640625 -1.5625,0.875 -0.046875,-0.5625 -0.453125,-0.875 -0.921875,-0.875 -0.453125,0 -0.640625,0.390625 -0.734375,0.5625 C 0.421875,-3.5 0.296875,-2.90625 0.296875,-2.875 c 0,0.109375 0.09375,0.109375 0.109375,0.109375 0.109375,0 0.109375,-0.015625 0.171875,-0.234375 0.171875,-0.703125 0.375,-1.1875 0.734375,-1.1875 0.1875,0 0.296875,0.125 0.296875,0.453125 0,0.21875 -0.03125,0.328125 -0.15625,0.84375 z"
                 style="stroke:none"
                 inkscape:connector-curvature="0" />
            </symbol>
            <symbol
               id="textext-ab3927ee-11"
               overflow="visible"
               style="overflow:visible">
              <path
                 id="path4237"
                 d="M 3.890625,-3.734375 C 3.625,-3.71875 3.421875,-3.5 3.421875,-3.28125 c 0,0.140625 0.09375,0.296875 0.3125,0.296875 0.21875,0 0.453125,-0.171875 0.453125,-0.5625 C 4.1875,-4 3.765625,-4.40625 3,-4.40625 c -1.3125,0 -1.6875,1.015625 -1.6875,1.453125 0,0.78125 0.734375,0.921875 1.03125,0.984375 0.515625,0.109375 1.03125,0.21875 1.03125,0.765625 0,0.25 -0.21875,1.09375 -1.421875,1.09375 -0.140625,0 -0.90625,0 -1.140625,-0.53125 0.390625,0.046875 0.640625,-0.25 0.640625,-0.53125 0,-0.21875 -0.171875,-0.34375 -0.375,-0.34375 -0.265625,0 -0.5625,0.203125 -0.5625,0.65625 0,0.5625 0.578125,0.96875 1.421875,0.96875 1.625,0 2.015625,-1.203125 2.015625,-1.65625 0,-0.359375 -0.1875,-0.609375 -0.3125,-0.71875 -0.265625,-0.28125 -0.5625,-0.34375 -1,-0.421875 -0.359375,-0.078125 -0.75,-0.15625 -0.75,-0.609375 C 1.890625,-3.578125 2.125,-4.1875 3,-4.1875 c 0.25,0 0.75,0.078125 0.890625,0.453125 z"
                 style="stroke:none"
                 inkscape:connector-curvature="0" />
            </symbol>
            <symbol
               id="textext-ab3927ee-12"
               overflow="visible"
               style="overflow:visible">
              <path
                 id="path4240"
                 d="m 0.875,-0.59375 c -0.03125,0.15625 -0.09375,0.390625 -0.09375,0.4375 0,0.171875 0.140625,0.265625 0.296875,0.265625 0.125,0 0.296875,-0.078125 0.375,-0.28125 0,-0.015625 0.125,-0.484375 0.1875,-0.734375 l 0.21875,-0.890625 C 1.90625,-2.03125 1.96875,-2.25 2.03125,-2.46875 c 0.03125,-0.171875 0.109375,-0.46875 0.125,-0.5 0.140625,-0.3125 0.671875,-1.21875 1.625,-1.21875 0.453125,0 0.53125,0.375 0.53125,0.703125 0,0.25 -0.0625,0.53125 -0.140625,0.828125 L 3.890625,-1.5 3.6875,-0.75 c -0.03125,0.203125 -0.125,0.546875 -0.125,0.59375 0,0.171875 0.140625,0.265625 0.28125,0.265625 0.3125,0 0.375,-0.25 0.453125,-0.5625 0.140625,-0.5625 0.515625,-2.015625 0.59375,-2.40625 0.03125,-0.125 0.5625,-1.328125 1.65625,-1.328125 0.421875,0 0.53125,0.34375 0.53125,0.703125 0,0.5625 -0.421875,1.703125 -0.625,2.234375 -0.078125,0.234375 -0.125,0.34375 -0.125,0.546875 0,0.46875 0.34375,0.8125 0.8125,0.8125 0.9375,0 1.3125,-1.453125 1.3125,-1.53125 0,-0.109375 -0.09375,-0.109375 -0.125,-0.109375 -0.09375,0 -0.09375,0.03125 -0.140625,0.1875 -0.15625,0.53125 -0.46875,1.234375 -1.015625,1.234375 -0.171875,0 -0.25,-0.09375 -0.25,-0.328125 0,-0.25 0.09375,-0.484375 0.1875,-0.703125 0.1875,-0.53125 0.609375,-1.625 0.609375,-2.203125 0,-0.640625 -0.40625,-1.0625 -1.15625,-1.0625 -0.734375,0 -1.25,0.4375 -1.625,0.96875 0,-0.125 -0.03125,-0.46875 -0.3125,-0.703125 -0.25,-0.21875 -0.5625,-0.265625 -0.8125,-0.265625 -0.90625,0 -1.390625,0.640625 -1.5625,0.875 -0.046875,-0.578125 -0.46875,-0.875 -0.921875,-0.875 -0.453125,0 -0.640625,0.390625 -0.734375,0.5625 -0.171875,0.359375 -0.296875,0.9375 -0.296875,0.96875 0,0.109375 0.09375,0.109375 0.109375,0.109375 0.109375,0 0.109375,-0.015625 0.171875,-0.234375 0.171875,-0.703125 0.375,-1.1875 0.734375,-1.1875 0.15625,0 0.296875,0.078125 0.296875,0.453125 0,0.21875 -0.03125,0.328125 -0.15625,0.84375 z"
                 style="stroke:none"
                 inkscape:connector-curvature="0" />
            </symbol>
            <symbol
               id="textext-ab3927ee-13"
               overflow="visible"
               style="overflow:visible">
              <path
                 id="path4243"
                 d="m 2.828125,-6.234375 c 0,-0.203125 -0.140625,-0.359375 -0.359375,-0.359375 -0.28125,0 -0.546875,0.265625 -0.546875,0.53125 0,0.1875 0.140625,0.359375 0.375,0.359375 0.234375,0 0.53125,-0.234375 0.53125,-0.53125 z m -0.75,3.75 c 0.109375,-0.28125 0.109375,-0.3125 0.21875,-0.578125 0.078125,-0.203125 0.125,-0.34375 0.125,-0.53125 0,-0.4375 -0.3125,-0.8125 -0.8125,-0.8125 -0.9375,0 -1.3125,1.453125 -1.3125,1.53125 0,0.109375 0.09375,0.109375 0.109375,0.109375 0.109375,0 0.109375,-0.03125 0.15625,-0.1875 0.28125,-0.9375 0.671875,-1.234375 1.015625,-1.234375 0.078125,0 0.25,0 0.25,0.3125 0,0.21875 -0.078125,0.421875 -0.109375,0.53125 -0.078125,0.25 -0.53125,1.40625 -0.6875,1.84375 -0.109375,0.25 -0.234375,0.578125 -0.234375,0.796875 0,0.46875 0.34375,0.8125 0.8125,0.8125 0.9375,0 1.3125,-1.4375 1.3125,-1.53125 0,-0.109375 -0.09375,-0.109375 -0.125,-0.109375 -0.09375,0 -0.09375,0.03125 -0.140625,0.1875 -0.1875,0.625 -0.515625,1.234375 -1.015625,1.234375 -0.171875,0 -0.25,-0.09375 -0.25,-0.328125 0,-0.25 0.0625,-0.390625 0.296875,-1 z"
                 style="stroke:none"
                 inkscape:connector-curvature="0" />
            </symbol>
            <symbol
               id="textext-ab3927ee-14"
               overflow="visible"
               style="overflow:visible">
              <path
                 id="path4246"
                 d="m 4.671875,-2.71875 c 0,-1.046875 -0.6875,-1.6875 -1.59375,-1.6875 -1.328125,0 -2.671875,1.421875 -2.671875,2.828125 0,0.984375 0.671875,1.6875 1.59375,1.6875 1.328125,0 2.671875,-1.375 2.671875,-2.828125 z m -2.65625,2.609375 c -0.4375,0 -0.875,-0.3125 -0.875,-1.09375 0,-0.484375 0.265625,-1.5625 0.578125,-2.0625 0.5,-0.765625 1.078125,-0.921875 1.359375,-0.921875 0.578125,0 0.875,0.484375 0.875,1.078125 0,0.390625 -0.203125,1.4375 -0.578125,2.078125 -0.359375,0.578125 -0.90625,0.921875 -1.359375,0.921875 z"
                 style="stroke:none"
                 inkscape:connector-curvature="0" />
            </symbol>
            <symbol
               id="textext-ab3927ee-15"
               overflow="visible"
               style="overflow:visible">
              <path
                 id="path4249"
                 d="m 5.140625,-6.8125 c 0,0 0,-0.109375 -0.125,-0.109375 -0.15625,0 -1.09375,0.09375 -1.265625,0.109375 -0.078125,0.015625 -0.140625,0.0625 -0.140625,0.1875 0,0.125 0.09375,0.125 0.234375,0.125 0.484375,0 0.5,0.0625 0.5,0.171875 L 4.3125,-6.125 3.71875,-3.765625 C 3.53125,-4.140625 3.25,-4.40625 2.796875,-4.40625 c -1.15625,0 -2.390625,1.46875 -2.390625,2.921875 0,0.9375 0.546875,1.59375 1.3125,1.59375 0.203125,0 0.703125,-0.046875 1.296875,-0.75 0.078125,0.421875 0.4375,0.75 0.90625,0.75 0.359375,0 0.578125,-0.234375 0.75,-0.546875 0.15625,-0.359375 0.296875,-0.96875 0.296875,-0.984375 0,-0.109375 -0.09375,-0.109375 -0.125,-0.109375 -0.09375,0 -0.109375,0.046875 -0.140625,0.1875 -0.171875,0.640625 -0.34375,1.234375 -0.75,1.234375 -0.28125,0 -0.296875,-0.265625 -0.296875,-0.453125 0,-0.25 0.015625,-0.3125 0.046875,-0.484375 z m -2.0625,5.625 C 3.015625,-1 3.015625,-0.984375 2.875,-0.8125 2.4375,-0.265625 2.03125,-0.109375 1.75,-0.109375 c -0.5,0 -0.640625,-0.546875 -0.640625,-0.9375 0,-0.5 0.3125,-1.71875 0.546875,-2.1875 0.3125,-0.578125 0.75,-0.953125 1.15625,-0.953125 0.640625,0 0.78125,0.8125 0.78125,0.875 0,0.0625 -0.015625,0.125 -0.03125,0.171875 z"
                 style="stroke:none"
                 inkscape:connector-curvature="0" />
            </symbol>
            <symbol
               id="textext-ab3927ee-16"
               overflow="visible"
               style="overflow:visible">
              <path
                 id="path4252"
                 d="M 3.484375,-0.5625 C 3.59375,-0.15625 3.953125,0.109375 4.375,0.109375 4.71875,0.109375 4.953125,-0.125 5.109375,-0.4375 5.28125,-0.796875 5.40625,-1.40625 5.40625,-1.421875 c 0,-0.109375 -0.078125,-0.109375 -0.109375,-0.109375 -0.109375,0 -0.109375,0.046875 -0.140625,0.1875 -0.140625,0.5625 -0.328125,1.234375 -0.75,1.234375 -0.203125,0 -0.3125,-0.125 -0.3125,-0.453125 0,-0.21875 0.125,-0.6875 0.203125,-1.046875 L 4.578125,-2.6875 C 4.609375,-2.828125 4.703125,-3.203125 4.75,-3.359375 4.796875,-3.59375 4.890625,-3.96875 4.890625,-4.03125 c 0,-0.171875 -0.140625,-0.265625 -0.28125,-0.265625 -0.046875,0 -0.3125,0.015625 -0.390625,0.34375 -0.1875,0.734375 -0.625,2.484375 -0.75,3 -0.015625,0.046875 -0.40625,0.84375 -1.140625,0.84375 -0.515625,0 -0.609375,-0.453125 -0.609375,-0.8125 0,-0.5625 0.28125,-1.34375 0.53125,-2.03125 0.125,-0.3125 0.171875,-0.453125 0.171875,-0.640625 0,-0.4375 -0.3125,-0.8125 -0.8125,-0.8125 -0.953125,0 -1.3125,1.453125 -1.3125,1.53125 0,0.109375 0.09375,0.109375 0.109375,0.109375 0.109375,0 0.109375,-0.03125 0.15625,-0.1875 0.25,-0.859375 0.640625,-1.234375 1.015625,-1.234375 0.09375,0 0.25,0.015625 0.25,0.328125 0,0.234375 -0.109375,0.53125 -0.171875,0.671875 -0.375,1 -0.578125,1.609375 -0.578125,2.09375 0,0.953125 0.6875,1.203125 1.21875,1.203125 0.65625,0 1.015625,-0.453125 1.1875,-0.671875 z"
                 style="stroke:none"
                 inkscape:connector-curvature="0" />
            </symbol>
          </g>
        </defs>
        <g
           id="textext-ab3927ee-17">
          <g
             id="g4255"
             style="fill:#000000;fill-opacity:1">
            <use
               id="use4257"
               y="134.765"
               x="223.43201"
               xlink:href="#textext-ab3927ee-1"
               width="744.09448"
               height="1052.3622" />
          </g>
          <g
             id="g4259"
             style="fill:#000000;fill-opacity:1">
            <use
               id="use4261"
               y="134.765"
               x="228.967"
               xlink:href="#textext-ab3927ee-6"
               width="744.09448"
               height="1052.3622" />
          </g>
          <g
             id="g4263"
             style="fill:#000000;fill-opacity:1">
            <use
               id="use4265"
               y="134.765"
               x="233.18317"
               xlink:href="#textext-ab3927ee-7"
               width="744.09448"
               height="1052.3622" />
          </g>
          <g
             id="g4267"
             style="fill:#000000;fill-opacity:1">
            <use
               id="use4269"
               y="134.765"
               x="237.61453"
               xlink:href="#textext-ab3927ee-6"
               width="744.09448"
               height="1052.3622" />
          </g>
          <g
             id="g4271"
             style="fill:#000000;fill-opacity:1">
            <use
               id="use4273"
               y="134.765"
               x="245.15199"
               xlink:href="#textext-ab3927ee-2"
               width="744.09448"
               height="1052.3622" />
          </g>
          <g
             id="g4275"
             style="fill:#000000;fill-opacity:1">
            <use
               id="use4277"
               y="134.765"
               x="254.56367"
               xlink:href="#textext-ab3927ee-3"
               width="744.09448"
               height="1052.3622" />
          </g>
          <g
             id="g4279"
             style="fill:#000000;fill-opacity:1">
            <use
               id="use4281"
               y="134.765"
               x="259.54199"
               xlink:href="#textext-ab3927ee-8"
               width="744.09448"
               height="1052.3622" />
            <use
               id="use4283"
               y="134.765"
               x="263.1395"
               xlink:href="#textext-ab3927ee-6"
               width="744.09448"
               height="1052.3622" />
          </g>
          <g
             id="g4285"
             style="fill:#000000;fill-opacity:1">
            <use
               id="use4287"
               y="134.765"
               x="267.91357"
               xlink:href="#textext-ab3927ee-9"
               width="744.09448"
               height="1052.3622" />
            <use
               id="use4289"
               y="134.765"
               x="273.17981"
               xlink:href="#textext-ab3927ee-10"
               width="744.09448"
               height="1052.3622" />
            <use
               id="use4291"
               y="134.765"
               x="279.15936"
               xlink:href="#textext-ab3927ee-11"
               width="744.09448"
               height="1052.3622" />
            <use
               id="use4293"
               y="134.765"
               x="283.82983"
               xlink:href="#textext-ab3927ee-12"
               width="744.09448"
               height="1052.3622" />
            <use
               id="use4295"
               y="134.765"
               x="292.577"
               xlink:href="#textext-ab3927ee-13"
               width="744.09448"
               height="1052.3622" />
            <use
               id="use4297"
               y="134.765"
               x="296.00909"
               xlink:href="#textext-ab3927ee-11"
               width="744.09448"
               height="1052.3622" />
            <use
               id="use4299"
               y="134.765"
               x="300.67957"
               xlink:href="#textext-ab3927ee-11"
               width="744.09448"
               height="1052.3622" />
            <use
               id="use4301"
               y="134.765"
               x="305.35004"
               xlink:href="#textext-ab3927ee-13"
               width="744.09448"
               height="1052.3622" />
            <use
               id="use4303"
               y="134.765"
               x="308.78217"
               xlink:href="#textext-ab3927ee-14"
               width="744.09448"
               height="1052.3622" />
            <use
               id="use4305"
               y="134.765"
               x="313.61102"
               xlink:href="#textext-ab3927ee-10"
               width="744.09448"
               height="1052.3622" />
          </g>
          <g
             id="g4307"
             style="fill:#000000;fill-opacity:1">
            <use
               id="use4309"
               y="134.765"
               x="321.24435"
               xlink:href="#textext-ab3927ee-6"
               width="744.09448"
               height="1052.3622" />
          </g>
          <g
             id="g4311"
             style="fill:#000000;fill-opacity:1">
            <use
               id="use4313"
               y="134.765"
               x="326.01843"
               xlink:href="#textext-ab3927ee-9"
               width="744.09448"
               height="1052.3622" />
            <use
               id="use4315"
               y="134.765"
               x="331.28467"
               xlink:href="#textext-ab3927ee-15"
               width="744.09448"
               height="1052.3622" />
            <use
               id="use4317"
               y="134.765"
               x="336.47021"
               xlink:href="#textext-ab3927ee-13"
               width="744.09448"
               height="1052.3622" />
            <use
               id="use4319"
               y="134.765"
               x="339.90231"
               xlink:href="#textext-ab3927ee-16"
               width="744.09448"
               height="1052.3622" />
            <use
               id="use4321"
               y="134.765"
               x="345.60593"
               xlink:href="#textext-ab3927ee-11"
               width="744.09448"
               height="1052.3622" />
          </g>
          <g
             id="g4323"
             style="fill:#000000;fill-opacity:1">
            <use
               id="use4325"
               y="134.765"
               x="350.27701"
               xlink:href="#textext-ab3927ee-4"
               width="744.09448"
               height="1052.3622" />
          </g>
        </g>
      </g>
    </g>
  </g>
</svg>
