<?xml version="1.0" encoding="UTF-8" standalone="no"?>
<svg
   xmlns:dc="http://purl.org/dc/elements/1.1/"
   xmlns:cc="http://creativecommons.org/ns#"
   xmlns:rdf="http://www.w3.org/1999/02/22-rdf-syntax-ns#"
   xmlns:svg="http://www.w3.org/2000/svg"
   xmlns="http://www.w3.org/2000/svg"
   xmlns:sodipodi="http://sodipodi.sourceforge.net/DTD/sodipodi-0.dtd"
   xmlns:inkscape="http://www.inkscape.org/namespaces/inkscape"
   version="1.1"
   width="700"
   height="400"
   id="svg2"
   inkscape:version="0.48.2 r9819"
   sodipodi:docname="spider.svg.2012_10_16_17_10_40.0.svg">
  <metadata
     id="metadata396">
    <rdf:RDF>
      <cc:Work
         rdf:about="">
        <dc:format>image/svg+xml</dc:format>
        <dc:type
           rdf:resource="http://purl.org/dc/dcmitype/StillImage" />
      </cc:Work>
    </rdf:RDF>
  </metadata>
  <sodipodi:namedview
     pagecolor="#ffffff"
     bordercolor="#666666"
     borderopacity="1"
     objecttolerance="10"
     gridtolerance="10"
     guidetolerance="10"
     inkscape:pageopacity="0"
     inkscape:pageshadow="2"
     inkscape:window-width="1578"
     inkscape:window-height="1122"
     id="namedview394"
     showgrid="false"
     inkscape:zoom="1.6685714"
     inkscape:cx="210.46012"
     inkscape:cy="187.46532"
     inkscape:window-x="2018"
     inkscape:window-y="0"
     inkscape:window-maximized="0"
     inkscape:current-layer="svg2" />
  <defs
     id="defs4">
    <clipPath
       id="highcharts-6">
      <rect
         rx="0"
         ry="0"
         fill="none"
         x="0"
         y="0"
         width="9999"
         height="400"
         stroke-width="0"
         id="rect7" />
    </clipPath>
    <clipPath
       id="highcharts-7">
      <rect
         fill="none"
         x="0"
         y="0"
         width="488"
         height="345"
         id="rect10" />
    </clipPath>
  </defs>
  <path
     style="fill:none;stroke:#c0c0c0;stroke-width:1"
     inkscape:connector-curvature="0"
     id="path16"
     d="M 254,212.5 289.71703,79.202236" />
  <path
     style="fill:none;stroke:#c0c0c0;stroke-width:1"
     inkscape:connector-curvature="0"
     id="path18"
     d="M 254,212.5 323,92.988494" />
  <path
     style="fill:none;stroke:#c0c0c0;stroke-width:1"
     inkscape:connector-curvature="0"
     id="path20"
     d="m 254,212.5 97.58074,-97.58074" />
  <path
     style="fill:none;stroke:#c0c0c0;stroke-width:1"
     inkscape:connector-curvature="0"
     id="path22"
     d="m 254,212.5 119.51151,-69" />
  <path
     style="fill:none;stroke:#c0c0c0;stroke-width:1"
     inkscape:connector-curvature="0"
     id="path24"
     d="M 254,212.5 387.29776,176.78297" />
  <path
     style="fill:none;stroke:#c0c0c0;stroke-width:1"
     inkscape:connector-curvature="0"
     id="path26"
     d="m 254,212.5 138,0" />
  <path
     style="fill:none;stroke:#c0c0c0;stroke-width:1"
     inkscape:connector-curvature="0"
     id="path28"
     d="m 254,212.5 133.29776,35.71703" />
  <path
     style="fill:none;stroke:#c0c0c0;stroke-width:1"
     inkscape:connector-curvature="0"
     id="path30"
     d="m 254,212.5 119.51151,69" />
  <path
     style="fill:none;stroke:#c0c0c0;stroke-width:1"
     inkscape:connector-curvature="0"
     id="path32"
     d="m 254,212.5 97.58074,97.58074" />
  <path
     style="fill:none;stroke:#c0c0c0;stroke-width:1"
     inkscape:connector-curvature="0"
     id="path34"
     d="m 254,212.5 69,119.51151" />
  <path
     style="fill:none;stroke:#c0c0c0;stroke-width:1"
     inkscape:connector-curvature="0"
     id="path36"
     d="m 254,212.5 35.71703,133.29776" />
  <path
     style="fill:none;stroke:#c0c0c0;stroke-width:1"
     inkscape:connector-curvature="0"
     id="path38"
     d="m 254,212.5 0,138" />
  <path
     style="fill:none;stroke:#c0c0c0;stroke-width:1"
     inkscape:connector-curvature="0"
     id="path40"
     d="M 254,212.5 218.28297,345.79776" />
  <path
     style="fill:none;stroke:#c0c0c0;stroke-width:1"
     inkscape:connector-curvature="0"
     id="path42"
     d="M 254,212.5 185,332.01151" />
  <path
     style="fill:none;stroke:#c0c0c0;stroke-width:1"
     inkscape:connector-curvature="0"
     id="path44"
     d="m 254,212.5 -97.58074,97.58074" />
  <path
     style="fill:none;stroke:#c0c0c0;stroke-width:1"
     inkscape:connector-curvature="0"
     id="path46"
     d="m 254,212.5 -119.51151,69" />
  <path
     style="fill:none;stroke:#c0c0c0;stroke-width:1"
     inkscape:connector-curvature="0"
     id="path48"
     d="M 254,212.5 120.70224,248.21703" />
  <path
     style="fill:none;stroke:#c0c0c0;stroke-width:1"
     inkscape:connector-curvature="0"
     id="path50"
     d="m 254,212.5 -138,0" />
  <path
     style="fill:none;stroke:#c0c0c0;stroke-width:1"
     inkscape:connector-curvature="0"
     id="path52"
     d="M 254,212.5 120.70224,176.78297" />
  <path
     style="fill:none;stroke:#c0c0c0;stroke-width:1"
     inkscape:connector-curvature="0"
     id="path54"
     d="m 254,212.5 -119.51151,-69" />
  <path
     style="fill:none;stroke:#c0c0c0;stroke-width:1"
     inkscape:connector-curvature="0"
     id="path56"
     d="M 254,212.5 156.41926,114.91926" />
  <path
     style="fill:none;stroke:#c0c0c0;stroke-width:1"
     inkscape:connector-curvature="0"
     id="path58"
     d="M 254,212.5 185,92.988494" />
  <path
     style="fill:none;stroke:#c0c0c0;stroke-width:1"
     inkscape:connector-curvature="0"
     id="path60"
     d="M 254,212.5 218.28297,79.202236" />
  <path
     style="fill:none;stroke:#c0c0c0;stroke-width:1"
     inkscape:connector-curvature="0"
     id="path62"
     d="m 254,212.5 0,-138" />
  <path
     style="fill:none;stroke:#c0c0c0;stroke-width:1"
     inkscape:connector-curvature="0"
     id="path64"
     d="m 254,212.5 0,-138" />
  <path
     id="path64-1"
     d="m 498.56474,273.93176 0,-138"
     inkscape:connector-curvature="0"
     style="fill:none;stroke:#c0c0c0;stroke-width:1" />
  <g
     class="highcharts-grid"
     id="g66">
    <path
       fill="none"
       d="M 254 143.5 L 254 143.5 L 236.14148588792602 145.8511179860543 L 219.49999999999997 152.74424713887376 L 205.20963209812822 163.70963209812822 L 194.2442471388737 178.00000000000006 L 187.35111798605428 194.64148588792608 L 185 212.5 L 187.3511179860543 230.35851411207398 L 194.24424713887373 247.00000000000003 L 205.20963209812825 261.29036790187183 L 219.5 272.25575286112627 L 236.14148588792608 279.1488820139457 L 254 281.5 L 271.858514112074 279.1488820139457 L 288.5 272.25575286112627 L 302.7903679018718 261.2903679018718 L 313.75575286112627 247 L 320.6488820139457 230.35851411207392 L 323 212.5 L 320.6488820139457 194.64148588792605 L 313.75575286112627 178 L 302.7903679018718 163.70963209812822 L 288.5 152.74424713887373 L 271.8585141120739 145.8511179860543 L 254 143.5"
       stroke="#C0C0C0"
       stroke-width="1"
       id="path68" />
    <path
       fill="none"
       d="M 254 74.5 L 253.99999999999997 74.5 L 218.28297177585205 79.20223597210861 L 184.99999999999994 92.9884942777475 L 156.41926419625642 114.91926419625645 L 134.4884942777474 143.50000000000009 L 120.70223597210855 176.7829717758522 L 116 212.50000000000003 L 120.70223597210861 248.21702822414795 L 134.4884942777475 281.50000000000006 L 156.4192641962565 310.0807358037436 L 185.00000000000003 332.01150572225254 L 218.2829717758522 345.79776402789145 L 254 350.5 L 289.7170282241479 345.7977640278914 L 323.00000000000006 332.01150572225254 L 351.58073580374355 310.08073580374355 L 373.51150572225254 281.5 L 387.2977640278914 248.21702822414784 L 392 212.5 L 387.2977640278914 176.7829717758521 L 373.51150572225254 143.5 L 351.58073580374355 114.91926419625645 L 323 92.98849427774746 L 289.71702822414784 79.20223597210858 L 254 74.5"
       stroke="#C0C0C0"
       stroke-width="1"
       id="path70" />
    <path
       fill="none"
       d="M 254 212.5 L 254 212.5 L 254 212.5 L 254 212.5 L 254 212.5 L 254 212.5 L 254 212.5 L 254 212.5 L 254 212.5 L 254 212.5 L 254 212.5 L 254 212.5 L 254 212.5 L 254 212.5 L 254 212.5 L 254 212.5 L 254 212.5 L 254 212.5 L 254 212.5 L 254 212.5 L 254 212.5 L 254 212.5 L 254 212.5 L 254 212.5 L 254 212.5 L 254 212.5"
       stroke="#C0C0C0"
       stroke-width="1"
       id="path72" />
  </g>
  <g
     class="highcharts-axis"
     id="g74" />
  <g
     class="highcharts-axis"
     id="g76" />
  <g
     class="highcharts-series-group"
     id="g78">
    <g
       class="highcharts-series"
       visibility="visible"
       transform="translate(10,40)"
       clip-path="url(#highcharts-7)"
       id="g80">
      <path
         d="M 244 34.5 L 279.71702822414784 39.20223597210858 L 313 52.98849427774746 L 341.58073580374355 74.91926419625645 L 363.51150572225254 103.5 L 377.2977640278914 136.7829717758521 L 375.1 172.5 L 244 172.5 L 244 172.5 L 244 172.5 L 244 172.5 L 244 172.5 L 244 172.5 L 244 172.5 L 203.75000000000003 242.21504500464732 L 146.4192641962565 270.0807358037436 L 124.48849427774749 241.50000000000006 L 110.70223597210861 208.21702822414795 L 106 172.50000000000003 L 110.70223597210855 136.7829717758522 L 124.4884942777474 103.50000000000009 L 146.41926419625642 74.91926419625645 L 174.99999999999994 52.988494277747506 L 208.28297177585205 39.20223597210861 L 244 34.5"
         transform="translate(1, 1)"
         id="path82"
         stroke-opacity="0.05"
         stroke-width="5"
         stroke="black"
         fill="none" />
      <path
         d="M 244 34.5 L 279.71702822414784 39.20223597210858 L 313 52.98849427774746 L 341.58073580374355 74.91926419625645 L 363.51150572225254 103.5 L 377.2977640278914 136.7829717758521 L 375.1 172.5 L 244 172.5 L 244 172.5 L 244 172.5 L 244 172.5 L 244 172.5 L 244 172.5 L 244 172.5 L 203.75000000000003 242.21504500464732 L 146.4192641962565 270.0807358037436 L 124.48849427774749 241.50000000000006 L 110.70223597210861 208.21702822414795 L 106 172.50000000000003 L 110.70223597210855 136.7829717758522 L 124.4884942777474 103.50000000000009 L 146.41926419625642 74.91926419625645 L 174.99999999999994 52.988494277747506 L 208.28297177585205 39.20223597210861 L 244 34.5"
         transform="translate(1, 1)"
         id="path84"
         stroke-opacity="0.10"
         stroke-width="3"
         stroke="black"
         fill="none" />
      <path
         d="M 244 34.5 L 279.71702822414784 39.20223597210858 L 313 52.98849427774746 L 341.58073580374355 74.91926419625645 L 363.51150572225254 103.5 L 377.2977640278914 136.7829717758521 L 375.1 172.5 L 244 172.5 L 244 172.5 L 244 172.5 L 244 172.5 L 244 172.5 L 244 172.5 L 244 172.5 L 203.75000000000003 242.21504500464732 L 146.4192641962565 270.0807358037436 L 124.48849427774749 241.50000000000006 L 110.70223597210861 208.21702822414795 L 106 172.50000000000003 L 110.70223597210855 136.7829717758522 L 124.4884942777474 103.50000000000009 L 146.41926419625642 74.91926419625645 L 174.99999999999994 52.988494277747506 L 208.28297177585205 39.20223597210861 L 244 34.5"
         transform="translate(1, 1)"
         id="path86"
         stroke-opacity="0.15"
         stroke-width="1"
         stroke="black"
         fill="none" />
      <path
         d="M 244 34.5 L 279.71702822414784 39.20223597210858 L 313 52.98849427774746 L 341.58073580374355 74.91926419625645 L 363.51150572225254 103.5 L 377.2977640278914 136.7829717758521 L 375.1 172.5 L 244 172.5 L 244 172.5 L 244 172.5 L 244 172.5 L 244 172.5 L 244 172.5 L 244 172.5 L 203.75000000000003 242.21504500464732 L 146.4192641962565 270.0807358037436 L 124.48849427774749 241.50000000000006 L 110.70223597210861 208.21702822414795 L 106 172.50000000000003 L 110.70223597210855 136.7829717758522 L 124.4884942777474 103.50000000000009 L 146.41926419625642 74.91926419625645 L 174.99999999999994 52.988494277747506 L 208.28297177585205 39.20223597210861 L 244 34.5"
         id="path88"
         stroke-width="2"
         stroke="#4572A7"
         fill="none" />
    </g>
    <g
       class="highcharts-markers"
       visibility="visible"
       transform="translate(10,40)"
       clip-path="none"
       id="g90">
      <path
         d="M 208.28297177585205 35.20223597210861 C 213.61097177585205 35.20223597210861 213.61097177585205 43.20223597210861 208.28297177585205 43.20223597210861 C 202.95497177585204 43.20223597210861 202.95497177585204 35.20223597210861 208.28297177585205 35.20223597210861 Z"
         id="path92"
         stroke-width="0"
         stroke="#FFFFFF"
         fill="#4572A7" />
      <path
         d="M 174.99999999999994 48.988494277747506 C 180.32799999999995 48.988494277747506 180.32799999999995 56.988494277747506 174.99999999999994 56.988494277747506 C 169.67199999999994 56.988494277747506 169.67199999999994 48.988494277747506 174.99999999999994 48.988494277747506 Z"
         id="path94"
         stroke-width="0"
         stroke="#FFFFFF"
         fill="#4572A7" />
      <path
         d="M 146.41926419625642 70.91926419625645 C 151.74726419625642 70.91926419625645 151.74726419625642 78.91926419625645 146.41926419625642 78.91926419625645 C 141.09126419625642 78.91926419625645 141.09126419625642 70.91926419625645 146.41926419625642 70.91926419625645 Z"
         id="path96"
         stroke-width="0"
         stroke="#FFFFFF"
         fill="#4572A7" />
      <path
         d="M 124.4884942777474 99.50000000000009 C 129.8164942777474 99.50000000000009 129.8164942777474 107.50000000000009 124.4884942777474 107.50000000000009 C 119.1604942777474 107.50000000000009 119.1604942777474 99.50000000000009 124.4884942777474 99.50000000000009 Z"
         id="path98"
         stroke-width="0"
         stroke="#FFFFFF"
         fill="#4572A7" />
      <path
         d="M 110.70223597210855 132.7829717758522 C 116.03023597210856 132.7829717758522 116.03023597210856 140.7829717758522 110.70223597210855 140.7829717758522 C 105.37423597210855 140.7829717758522 105.37423597210855 132.7829717758522 110.70223597210855 132.7829717758522 Z"
         id="path100"
         stroke-width="0"
         stroke="#FFFFFF"
         fill="#4572A7" />
      <path
         d="M 106 168.50000000000003 C 111.328 168.50000000000003 111.328 176.50000000000003 106 176.50000000000003 C 100.672 176.50000000000003 100.672 168.50000000000003 106 168.50000000000003 Z"
         id="path102"
         stroke-width="0"
         stroke="#FFFFFF"
         fill="#4572A7" />
      <path
         d="M 110.70223597210861 204.21702822414795 C 116.03023597210861 204.21702822414795 116.03023597210861 212.21702822414795 110.70223597210861 212.21702822414795 C 105.37423597210861 212.21702822414795 105.37423597210861 204.21702822414795 110.70223597210861 204.21702822414795 Z"
         id="path104"
         stroke-width="0"
         stroke="#FFFFFF"
         fill="#4572A7" />
      <path
         d="M 124.48849427774749 237.50000000000006 C 129.8164942777475 237.50000000000006 129.8164942777475 245.50000000000006 124.48849427774749 245.50000000000006 C 119.16049427774749 245.50000000000006 119.16049427774749 237.50000000000006 124.48849427774749 237.50000000000006 Z"
         id="path106"
         stroke-width="0"
         stroke="#FFFFFF"
         fill="#4572A7" />
      <path
         d="M 146.4192641962565 266.0807358037436 C 151.7472641962565 266.0807358037436 151.7472641962565 274.0807358037436 146.4192641962565 274.0807358037436 C 141.0912641962565 274.0807358037436 141.0912641962565 266.0807358037436 146.4192641962565 266.0807358037436 Z"
         id="path108"
         stroke-width="0"
         stroke="#FFFFFF"
         fill="#4572A7" />
      <path
         d="M 203.75000000000003 238.21504500464732 C 209.07800000000003 238.21504500464732 209.07800000000003 246.21504500464732 203.75000000000003 246.21504500464732 C 198.42200000000003 246.21504500464732 198.42200000000003 238.21504500464732 203.75000000000003 238.21504500464732 Z"
         id="path110"
         stroke-width="0"
         stroke="#FFFFFF"
         fill="#4572A7" />
      <path
         d="M 244 168.5 C 249.328 168.5 249.328 176.5 244 176.5 C 238.672 176.5 238.672 168.5 244 168.5 Z"
         id="path112"
         stroke-width="0"
         stroke="#FFFFFF"
         fill="#4572A7" />
      <path
         d="M 244 168.5 C 249.328 168.5 249.328 176.5 244 176.5 C 238.672 176.5 238.672 168.5 244 168.5 Z"
         id="path114"
         stroke-width="0"
         stroke="#FFFFFF"
         fill="#4572A7" />
      <path
         d="M 244 168.5 C 249.328 168.5 249.328 176.5 244 176.5 C 238.672 176.5 238.672 168.5 244 168.5 Z"
         id="path116"
         stroke-width="0"
         stroke="#FFFFFF"
         fill="#4572A7" />
      <path
         d="M 244 168.5 C 249.328 168.5 249.328 176.5 244 176.5 C 238.672 176.5 238.672 168.5 244 168.5 Z"
         id="path118"
         stroke-width="0"
         stroke="#FFFFFF"
         fill="#4572A7" />
      <path
         d="M 244 168.5 C 249.328 168.5 249.328 176.5 244 176.5 C 238.672 176.5 238.672 168.5 244 168.5 Z"
         id="path120"
         stroke-width="0"
         stroke="#FFFFFF"
         fill="#4572A7" />
      <path
         d="M 244 168.5 C 249.328 168.5 249.328 176.5 244 176.5 C 238.672 176.5 238.672 168.5 244 168.5 Z"
         id="path122"
         stroke-width="0"
         stroke="#FFFFFF"
         fill="#4572A7" />
      <path
         d="M 244 168.5 C 249.328 168.5 249.328 176.5 244 176.5 C 238.672 176.5 238.672 168.5 244 168.5 Z"
         id="path124"
         stroke-width="0"
         stroke="#FFFFFF"
         fill="#4572A7" />
      <path
         d="M 375.1 168.5 C 380.428 168.5 380.428 176.5 375.1 176.5 C 369.77200000000005 176.5 369.77200000000005 168.5 375.1 168.5 Z"
         id="path126"
         stroke-width="0"
         stroke="#FFFFFF"
         fill="#4572A7" />
      <path
         d="M 377.2977640278914 132.7829717758521 C 382.62576402789136 132.7829717758521 382.62576402789136 140.7829717758521 377.2977640278914 140.7829717758521 C 371.9697640278914 140.7829717758521 371.9697640278914 132.7829717758521 377.2977640278914 132.7829717758521 Z"
         id="path128"
         stroke-width="0"
         stroke="#FFFFFF"
         fill="#4572A7" />
      <path
         d="M 363.51150572225254 99.5 C 368.8395057222525 99.5 368.8395057222525 107.5 363.51150572225254 107.5 C 358.18350572225256 107.5 358.18350572225256 99.5 363.51150572225254 99.5 Z"
         id="path130"
         stroke-width="0"
         stroke="#FFFFFF"
         fill="#4572A7" />
      <path
         d="M 341.58073580374355 70.91926419625645 C 346.9087358037435 70.91926419625645 346.9087358037435 78.91926419625645 341.58073580374355 78.91926419625645 C 336.2527358037436 78.91926419625645 336.2527358037436 70.91926419625645 341.58073580374355 70.91926419625645 Z"
         id="path132"
         stroke-width="0"
         stroke="#FFFFFF"
         fill="#4572A7" />
      <path
         d="M 313 48.98849427774746 C 318.328 48.98849427774746 318.328 56.98849427774746 313 56.98849427774746 C 307.672 56.98849427774746 307.672 48.98849427774746 313 48.98849427774746 Z"
         id="path134"
         stroke-width="0"
         stroke="#FFFFFF"
         fill="#4572A7" />
      <path
         d="M 279.71702822414784 35.20223597210858 C 285.0450282241478 35.20223597210858 285.0450282241478 43.20223597210858 279.71702822414784 43.20223597210858 C 274.38902822414786 43.20223597210858 274.38902822414786 35.20223597210858 279.71702822414784 35.20223597210858 Z"
         id="path136"
         stroke-width="0"
         stroke="#FFFFFF"
         fill="#4572A7" />
      <path
         d="M 244 30.5 C 249.328 30.5 249.328 38.5 244 38.5 C 238.672 38.5 238.672 30.5 244 30.5 Z"
         id="path138"
         stroke-width="0"
         stroke="#FFFFFF"
         fill="#4572A7" />
    </g>
    <g
       class="highcharts-series"
       visibility="visible"
       transform="translate(10,40)"
       clip-path="url(#highcharts-7)"
       id="g140">
      <path
         d="M 244 69 L 270.86541688164164 72.23689923119471 L 295.75 82.8663707083106 L 317.1855518528077 99.31444814719234 L 333.6336292916894 120.75 L 343.97332302091854 145.7122288318891 L 339.7 172.5 L 308.42725261348085 189.76323030833814 L 268.16210876558586 186.45 L 256.16223663640864 184.6622366364086 L 252.6 187.39563694509235 L 248.45168757576334 189.11392421217198 L 244 189.7 L 239.54831242423666 189.11392421217198 L 223.6 207.8338364744051 L 195.20963209812825 221.29036790187183 L 156.87784437928548 222.8 L 129.3446044194876 203.22182065366928 L 140.5 172.5 L 156.29393497295257 148.99923070469114 L 169.34861019378135 129.40000000000003 L 183.0473954617196 111.54739546171962 L 200.89999999999998 97.84861019378141 L 221.68979831216265 89.23719377388232 L 244 69"
         transform="translate(1, 1)"
         id="path142"
         stroke-opacity="0.05"
         stroke-width="5"
         stroke="black"
         fill="none" />
      <path
         d="M 244 69 L 270.86541688164164 72.23689923119471 L 295.75 82.8663707083106 L 317.1855518528077 99.31444814719234 L 333.6336292916894 120.75 L 343.97332302091854 145.7122288318891 L 339.7 172.5 L 308.42725261348085 189.76323030833814 L 268.16210876558586 186.45 L 256.16223663640864 184.6622366364086 L 252.6 187.39563694509235 L 248.45168757576334 189.11392421217198 L 244 189.7 L 239.54831242423666 189.11392421217198 L 223.6 207.8338364744051 L 195.20963209812825 221.29036790187183 L 156.87784437928548 222.8 L 129.3446044194876 203.22182065366928 L 140.5 172.5 L 156.29393497295257 148.99923070469114 L 169.34861019378135 129.40000000000003 L 183.0473954617196 111.54739546171962 L 200.89999999999998 97.84861019378141 L 221.68979831216265 89.23719377388232 L 244 69"
         transform="translate(1, 1)"
         id="path144"
         stroke-opacity="0.10"
         stroke-width="3"
         stroke="black"
         fill="none" />
      <path
         d="M 244 69 L 270.86541688164164 72.23689923119471 L 295.75 82.8663707083106 L 317.1855518528077 99.31444814719234 L 333.6336292916894 120.75 L 343.97332302091854 145.7122288318891 L 339.7 172.5 L 308.42725261348085 189.76323030833814 L 268.16210876558586 186.45 L 256.16223663640864 184.6622366364086 L 252.6 187.39563694509235 L 248.45168757576334 189.11392421217198 L 244 189.7 L 239.54831242423666 189.11392421217198 L 223.6 207.8338364744051 L 195.20963209812825 221.29036790187183 L 156.87784437928548 222.8 L 129.3446044194876 203.22182065366928 L 140.5 172.5 L 156.29393497295257 148.99923070469114 L 169.34861019378135 129.40000000000003 L 183.0473954617196 111.54739546171962 L 200.89999999999998 97.84861019378141 L 221.68979831216265 89.23719377388232 L 244 69"
         transform="translate(1, 1)"
         id="path146"
         stroke-opacity="0.15"
         stroke-width="1"
         stroke="black"
         fill="none" />
      <path
         d="M 244 69 L 270.86541688164164 72.23689923119471 L 295.75 82.8663707083106 L 317.1855518528077 99.31444814719234 L 333.6336292916894 120.75 L 343.97332302091854 145.7122288318891 L 339.7 172.5 L 308.42725261348085 189.76323030833814 L 268.16210876558586 186.45 L 256.16223663640864 184.6622366364086 L 252.6 187.39563694509235 L 248.45168757576334 189.11392421217198 L 244 189.7 L 239.54831242423666 189.11392421217198 L 223.6 207.8338364744051 L 195.20963209812825 221.29036790187183 L 156.87784437928548 222.8 L 129.3446044194876 203.22182065366928 L 140.5 172.5 L 156.29393497295257 148.99923070469114 L 169.34861019378135 129.40000000000003 L 183.0473954617196 111.54739546171962 L 200.89999999999998 97.84861019378141 L 221.68979831216265 89.23719377388232 L 244 69"
         id="path148"
         stroke-width="2"
         stroke="#AA4643"
         fill="none" />
    </g>
    <g
       class="highcharts-markers"
       visibility="visible"
       transform="translate(10,40)"
       clip-path="none"
       id="g150">
      <path
         d="M 221.68979831216265 85.23719377388232 L 225.68979831216265 89.23719377388232 221.68979831216265 93.23719377388232 217.68979831216265 89.23719377388232 Z"
         id="path152"
         stroke-width="0"
         stroke="#FFFFFF"
         fill="#AA4643" />
      <path
         d="M 200.89999999999998 93.84861019378141 L 204.9 97.84861019378141 200.89999999999998 101.84861019378141 196.89999999999998 97.84861019378141 Z"
         id="path154"
         stroke-width="0"
         stroke="#FFFFFF"
         fill="#AA4643" />
      <path
         d="M 183.0473954617196 107.54739546171962 L 187.0473954617196 111.54739546171962 183.0473954617196 115.54739546171962 179.0473954617196 111.54739546171962 Z"
         id="path156"
         stroke-width="0"
         stroke="#FFFFFF"
         fill="#AA4643" />
      <path
         d="M 169.34861019378135 125.40000000000003 L 173.34861019378135 129.40000000000003 169.34861019378135 133.40000000000003 165.34861019378135 129.40000000000003 Z"
         id="path158"
         stroke-width="0"
         stroke="#FFFFFF"
         fill="#AA4643" />
      <path
         d="M 156.29393497295257 144.99923070469114 L 160.29393497295257 148.99923070469114 156.29393497295257 152.99923070469114 152.29393497295257 148.99923070469114 Z"
         id="path160"
         stroke-width="0"
         stroke="#FFFFFF"
         fill="#AA4643" />
      <path
         d="M 140.5 168.5 L 144.5 172.5 140.5 176.5 136.5 172.5 Z"
         id="path162"
         stroke-width="0"
         stroke="#FFFFFF"
         fill="#AA4643" />
      <path
         d="M 129.3446044194876 199.22182065366928 L 133.3446044194876 203.22182065366928 129.3446044194876 207.22182065366928 125.34460441948761 203.22182065366928 Z"
         id="path164"
         stroke-width="0"
         stroke="#FFFFFF"
         fill="#AA4643" />
      <path
         d="M 156.87784437928548 218.8 L 160.87784437928548 222.8 156.87784437928548 226.8 152.87784437928548 222.8 Z"
         id="path166"
         stroke-width="0"
         stroke="#FFFFFF"
         fill="#AA4643" />
      <path
         d="M 195.20963209812825 217.29036790187183 L 199.20963209812825 221.29036790187183 195.20963209812825 225.29036790187183 191.20963209812825 221.29036790187183 Z"
         id="path168"
         stroke-width="0"
         stroke="#FFFFFF"
         fill="#AA4643" />
      <path
         d="M 223.6 203.8338364744051 L 227.6 207.8338364744051 223.6 211.8338364744051 219.6 207.8338364744051 Z"
         id="path170"
         stroke-width="0"
         stroke="#FFFFFF"
         fill="#AA4643" />
      <path
         d="M 239.54831242423666 185.11392421217198 L 243.54831242423666 189.11392421217198 239.54831242423666 193.11392421217198 235.54831242423666 189.11392421217198 Z"
         id="path172"
         stroke-width="0"
         stroke="#FFFFFF"
         fill="#AA4643" />
      <path
         d="M 244 185.7 L 248 189.7 244 193.7 240 189.7 Z"
         id="path174"
         stroke-width="0"
         stroke="#FFFFFF"
         fill="#AA4643" />
      <path
         d="M 248.45168757576334 185.11392421217198 L 252.45168757576334 189.11392421217198 248.45168757576334 193.11392421217198 244.45168757576334 189.11392421217198 Z"
         id="path176"
         stroke-width="0"
         stroke="#FFFFFF"
         fill="#AA4643" />
      <path
         d="M 252.6 183.39563694509235 L 256.6 187.39563694509235 252.6 191.39563694509235 248.6 187.39563694509235 Z"
         id="path178"
         stroke-width="0"
         stroke="#FFFFFF"
         fill="#AA4643" />
      <path
         d="M 256.16223663640864 180.6622366364086 L 260.16223663640864 184.6622366364086 256.16223663640864 188.6622366364086 252.16223663640864 184.6622366364086 Z"
         id="path180"
         stroke-width="0"
         stroke="#FFFFFF"
         fill="#AA4643" />
      <path
         d="M 268.16210876558586 182.45 L 272.16210876558586 186.45 268.16210876558586 190.45 264.16210876558586 186.45 Z"
         id="path182"
         stroke-width="0"
         stroke="#FFFFFF"
         fill="#AA4643" />
      <path
         d="M 308.42725261348085 185.76323030833814 L 312.42725261348085 189.76323030833814 308.42725261348085 193.76323030833814 304.42725261348085 189.76323030833814 Z"
         id="path184"
         stroke-width="0"
         stroke="#FFFFFF"
         fill="#AA4643" />
      <path
         d="M 339.7 168.5 L 343.7 172.5 339.7 176.5 335.7 172.5 Z"
         id="path186"
         stroke-width="0"
         stroke="#FFFFFF"
         fill="#AA4643" />
      <path
         d="M 343.97332302091854 141.7122288318891 L 347.97332302091854 145.7122288318891 343.97332302091854 149.7122288318891 339.97332302091854 145.7122288318891 Z"
         id="path188"
         stroke-width="0"
         stroke="#FFFFFF"
         fill="#AA4643" />
      <path
         d="M 333.6336292916894 116.75 L 337.6336292916894 120.75 333.6336292916894 124.75 329.6336292916894 120.75 Z"
         id="path190"
         stroke-width="0"
         stroke="#FFFFFF"
         fill="#AA4643" />
      <path
         d="M 317.1855518528077 95.31444814719234 L 321.1855518528077 99.31444814719234 317.1855518528077 103.31444814719234 313.1855518528077 99.31444814719234 Z"
         id="path192"
         stroke-width="0"
         stroke="#FFFFFF"
         fill="#AA4643" />
      <path
         d="M 295.75 78.8663707083106 L 299.75 82.8663707083106 295.75 86.8663707083106 291.75 82.8663707083106 Z"
         id="path194"
         stroke-width="0"
         stroke="#FFFFFF"
         fill="#AA4643" />
      <path
         d="M 270.86541688164164 68.23689923119471 L 274.86541688164164 72.23689923119471 270.86541688164164 76.23689923119471 266.86541688164164 72.23689923119471 Z"
         id="path196"
         stroke-width="0"
         stroke="#FFFFFF"
         fill="#AA4643" />
      <path
         d="M 244 65 L 248 69 244 73 240 69 Z"
         id="path198"
         stroke-width="0"
         stroke="#FFFFFF"
         fill="#AA4643" />
    </g>
  </g>
  <g
     class="highcharts-legend"
     transform="translate(446.27055,68.647264)"
     id="g204">
    <g
       clip-path="url(#highcharts-6)"
       id="g208">
      <g
         id="g210">
        <g
           class="highcharts-legend-item"
           transform="translate(8,3)"
           id="g212">
          <path
             d="m 0,11 16,0"
             id="path214"
             inkscape:connector-curvature="0"
             style="fill:none;stroke:#4572a7;stroke-width:2" />
          <path
             d="m 8,7 c 5.328,0 5.328,8 0,8 C 2.672,15 2.672,7 8,7 z"
             id="path216"
             inkscape:connector-curvature="0"
             style="fill:#4572a7;stroke:#ffffff;stroke-width:0" />
          <text
             x="21"
             y="15"
             style="font-size:12px;text-anchor:start;color:#3e576f;fill:#3e576f"
             id="text218">
            <tspan
               x="21"
               id="tspan220">Landmark</tspan>
          </text>
        </g>
        <g
           class="highcharts-legend-item"
           transform="translate(8,19)"
           id="g222">
          <path
             d="m 0,11 16,0"
             id="path224"
             inkscape:connector-curvature="0"
             style="fill:none;stroke:#aa4643;stroke-width:2" />
          <path
             d="m 8,7 4,4 -4,4 -4,-4 z"
             id="path226"
             inkscape:connector-curvature="0"
             style="fill:#aa4643;stroke:#ffffff;stroke-width:0" />
          <text
             x="21"
             y="15"
             style="font-size:12px;text-anchor:start;color:#3e576f;fill:#3e576f"
             id="text228">
            <tspan
               x="21"
               id="tspan230">Activity</tspan>
          </text>
        </g>
      </g>
    </g>
  </g>
  <g
     class="highcharts-axis-labels"
     id="g232">
    <text
       x="254"
       y="54.261814"
       style="font-size:11px;line-height:14px;text-anchor:middle;color:#666666;fill:#666666;visibility:visible;font-family:'&quot;lucida grande&quot;, &quot;lucida sans unicode&quot;, verdana, arial, helvetica, sans-serif'"
       visibility="visible"
       id="text234">
      <tspan
         x="254"
         id="tspan236" />
      <tspan
         dy="14"
         x="254"
         id="tspan238">0:00</tspan>
    </text>
    <text
       x="292.77524"
       y="56.553501"
       style="font-size:11px;line-height:14px;text-anchor:middle;color:#666666;fill:#666666;visibility:visible;font-family:'&quot;lucida grande&quot;, &quot;lucida sans unicode&quot;, verdana, arial, helvetica, sans-serif'"
       visibility="visible"
       id="text240">
      <tspan
         x="292.77524"
         id="tspan242" />
      <tspan
         dy="14"
         x="292.77524"
         id="tspan244">1:00</tspan>
    </text>
    <text
       x="330.72473"
       y="73.561302"
       style="font-size:11px;line-height:14px;text-anchor:start;color:#666666;fill:#666666;visibility:visible;font-family:'&quot;lucida grande&quot;, &quot;lucida sans unicode&quot;, verdana, arial, helvetica, sans-serif'"
       visibility="visible"
       id="text246">
      <tspan
         x="330.72473"
         id="tspan248" />
      <tspan
         dy="14"
         x="330.72473"
         id="tspan250">2:00</tspan>
    </text>
    <text
       x="361.13855"
       y="101.17207"
       style="font-size:11px;line-height:14px;text-anchor:start;color:#666666;fill:#666666;visibility:visible;font-family:'&quot;lucida grande&quot;, &quot;lucida sans unicode&quot;, verdana, arial, helvetica, sans-serif'"
       visibility="visible"
       id="text252">
      <tspan
         x="361.13855"
         id="tspan254" />
      <tspan
         dy="14"
         x="361.13855"
         id="tspan256">3:00</tspan>
    </text>
    <text
       x="386.35205"
       y="132.1852"
       style="font-size:11px;line-height:14px;text-anchor:start;color:#666666;fill:#666666;visibility:visible;font-family:'&quot;lucida grande&quot;, &quot;lucida sans unicode&quot;, verdana, arial, helvetica, sans-serif'"
       visibility="visible"
       id="text258">
      <tspan
         x="386.35205"
         id="tspan260" />
      <tspan
         dy="14"
         x="386.35205"
         id="tspan262">4:00</tspan>
    </text>
    <text
       x="402.38596"
       y="168.33673"
       style="font-size:11px;line-height:14px;text-anchor:start;color:#666666;fill:#666666;visibility:visible;font-family:'&quot;lucida grande&quot;, &quot;lucida sans unicode&quot;, verdana, arial, helvetica, sans-serif'"
       visibility="visible"
       id="text264">
      <tspan
         x="402.38596"
         id="tspan266" />
      <tspan
         dy="14"
         x="402.38596"
         id="tspan268">5:00</tspan>
    </text>
    <text
       x="407"
       y="202.91678"
       style="font-size:11px;line-height:14px;text-anchor:start;color:#666666;fill:#666666;visibility:visible"
       visibility="visible"
       id="text270">
      <tspan
         x="407"
         id="tspan272" />
      <tspan
         dy="14"
         x="407"
         id="tspan274">6:00</tspan>
    </text>
    <text
       x="400.13855"
       y="241.91678"
       style="font-size:11px;line-height:14px;text-anchor:start;color:#666666;fill:#666666;visibility:visible"
       visibility="visible"
       id="text276">
      <tspan
         x="400.13855"
         id="tspan278" />
      <tspan
         dy="14"
         x="400.13855"
         id="tspan280">7:00</tspan>
    </text>
    <text
       x="384.17957"
       y="279.4917"
       style="font-size:11px;line-height:14px;text-anchor:start;color:#666666;fill:#666666;visibility:visible"
       visibility="visible"
       id="text282">
      <tspan
         x="384.17957"
         id="tspan284" />
      <tspan
         dy="14"
         x="384.17957"
         id="tspan286">8:00</tspan>
    </text>
    <text
       x="360.3894"
       y="309.90549"
       style="font-size:11px;line-height:14px;text-anchor:start;color:#666666;fill:#666666;visibility:visible"
       visibility="visible"
       id="text288">
      <tspan
         x="360.3894"
         id="tspan290" />
      <tspan
         dy="14"
         x="360.3894"
         id="tspan292">9:00</tspan>
    </text>
    <text
       x="330.50000000000006"
       y="350.1018867790191"
       style="font-family:'lucida grande', 'lucida sans unicode', verdana, arial, helvetica, sans-serif;font-size:11px;width:1px;color:#666;line-height:14px;fill:#666;"
       text-anchor="start"
       visibility="visible"
       id="text294">
      <tspan
         x="330.50000000000006"
         id="tspan296">10:00</tspan>
    </text>
    <text
       x="293.59931390068573"
       y="365.3866514222275"
       style="font-family:'lucida grande', 'lucida sans unicode', verdana, arial, helvetica, sans-serif;font-size:11px;width:1px;color:#666;line-height:14px;fill:#666;"
       text-anchor="middle"
       visibility="visible"
       id="text298">
      <tspan
         x="293.59931390068573"
         id="tspan300">11:00</tspan>
    </text>
    <text
       x="254"
       y="370.6"
       style="font-family:'lucida grande', 'lucida sans unicode', verdana, arial, helvetica, sans-serif;font-size:11px;width:1px;color:#666;line-height:14px;fill:#666;"
       text-anchor="middle"
       visibility="visible"
       id="text302">
      <tspan
         x="254"
         id="tspan304">12:00</tspan>
    </text>
    <text
       x="214.40068609931438"
       y="365.3866514222275"
       style="font-family:'lucida grande', 'lucida sans unicode', verdana, arial, helvetica, sans-serif;font-size:11px;width:1px;color:#666;line-height:14px;fill:#666;"
       text-anchor="middle"
       visibility="visible"
       id="text306">
      <tspan
         x="214.40068609931438"
         id="tspan308">13:00</tspan>
    </text>
    <text
       x="177.50000000000003"
       y="350.10188677901914"
       style="font-family:'lucida grande', 'lucida sans unicode', verdana, arial, helvetica, sans-serif;font-size:11px;width:1px;color:#666;line-height:14px;fill:#666;"
       text-anchor="end"
       visibility="visible"
       id="text310">
      <tspan
         x="177.50000000000003"
         id="tspan312">14:00</tspan>
    </text>
    <text
       x="145.8126624784583"
       y="325.7873375215419"
       style="font-family:'lucida grande', 'lucida sans unicode', verdana, arial, helvetica, sans-serif;font-size:11px;width:1px;color:#666;line-height:14px;fill:#666;"
       text-anchor="end"
       visibility="visible"
       id="text314">
      <tspan
         x="145.8126624784583"
         id="tspan316">15:00</tspan>
    </text>
    <text
       x="121.49811322098091"
       y="294.1000000000001"
       style="font-family:'lucida grande', 'lucida sans unicode', verdana, arial, helvetica, sans-serif;font-size:11px;width:1px;color:#666;line-height:14px;fill:#666;"
       text-anchor="end"
       visibility="visible"
       id="text318">
      <tspan
         x="121.49811322098091"
         id="tspan320">16:00</tspan>
    </text>
    <text
       x="106.21334857777259"
       y="257.1993139006858"
       style="font-family:'lucida grande', 'lucida sans unicode', verdana, arial, helvetica, sans-serif;font-size:11px;width:1px;color:#666;line-height:14px;fill:#666;"
       text-anchor="end"
       visibility="visible"
       id="text322">
      <tspan
         x="106.21334857777259"
         id="tspan324">17:00</tspan>
    </text>
    <text
       x="101"
       y="217.6"
       style="font-family:'lucida grande', 'lucida sans unicode', verdana, arial, helvetica, sans-serif;font-size:11px;width:1px;color:#666;line-height:14px;fill:#666;"
       text-anchor="end"
       visibility="visible"
       id="text326">
      <tspan
         x="101"
         id="tspan328">18:00</tspan>
    </text>
    <text
       x="106.21334857777254"
       y="178.00068609931438"
       style="font-family:'lucida grande', 'lucida sans unicode', verdana, arial, helvetica, sans-serif;font-size:11px;width:1px;color:#666;line-height:14px;fill:#666;"
       text-anchor="end"
       visibility="visible"
       id="text330">
      <tspan
         x="106.21334857777254"
         id="tspan332">19:00</tspan>
    </text>
    <text
       x="121.49811322098083"
       y="141.1000000000001"
       style="font-family:'lucida grande', 'lucida sans unicode', verdana, arial, helvetica, sans-serif;font-size:11px;width:1px;color:#666;line-height:14px;fill:#666;"
       text-anchor="end"
       visibility="visible"
       id="text334">
      <tspan
         x="121.49811322098083"
         id="tspan336">20:00</tspan>
    </text>
    <text
       x="145.8126624784582"
       y="109.41266247845823"
       style="font-family:'lucida grande', 'lucida sans unicode', verdana, arial, helvetica, sans-serif;font-size:11px;width:1px;color:#666;line-height:14px;fill:#666;"
       text-anchor="end"
       visibility="visible"
       id="text338">
      <tspan
         x="145.8126624784582"
         id="tspan340">21:00</tspan>
    </text>
    <text
       x="177.49999999999994"
       y="85.09811322098093"
       style="font-family:'lucida grande', 'lucida sans unicode', verdana, arial, helvetica, sans-serif;font-size:11px;width:1px;color:#666;line-height:14px;fill:#666;"
       text-anchor="end"
       visibility="visible"
       id="text342">
      <tspan
         x="177.49999999999994"
         id="tspan344">22:00</tspan>
    </text>
    <text
       x="214.4006860993142"
       y="69.81334857777259"
       style="font-family:'lucida grande', 'lucida sans unicode', verdana, arial, helvetica, sans-serif;font-size:11px;width:1px;color:#666;line-height:14px;fill:#666;"
       text-anchor="middle"
       visibility="visible"
       id="text346">
      <tspan
         x="214.4006860993142"
         id="tspan348">23:00</tspan>
    </text>
    <text
       x="503.95471"
       y="144.5175"
       style="font-size:11px;line-height:14px;text-anchor:start;color:#666666;fill:#666666;visibility:visible"
       visibility="visible"
       id="text258-1">
      <tspan
         x="503.95471"
         id="tspan260-7">Walking</tspan>
      <tspan
         x="503.95471"
         id="tspan3270" />
      <tspan
         x="503.95471"
         id="tspan3272" />
      <tspan
         x="503.95471"
         id="tspan3274" />
    </text>
    <text
       x="506.64188"
       y="204.45062"
       style="font-size:11px;line-height:14px;text-anchor:start;color:#666666;fill:#666666;visibility:visible"
       visibility="visible"
       id="text258-1-0">Sitting</text>
    <text
       x="507.91321"
       y="267.17001"
       style="font-size:11px;line-height:14px;text-anchor:start;color:#666666;fill:#666666;visibility:visible"
       visibility="visible"
       id="text258-1-2">Lying</text>
  </g>
  <g
     class="highcharts-tracker"
     id="g384">
    <g
       visibility="visible"
       transform="translate(10,40)"
       clip-path="url(#highcharts-7)"
       id="g386">
      <path
         fill="none"
         d="M 234 34.5 L 244 34.5 L 279.71702822414784 39.20223597210858 L 313 52.98849427774746 L 341.58073580374355 74.91926419625645 L 363.51150572225254 103.5 L 377.2977640278914 136.7829717758521 L 375.1 172.5 L 244 172.5 L 244 172.5 L 244 172.5 L 244 172.5 L 244 172.5 L 244 172.5 L 244 172.5 L 203.75000000000003 242.21504500464732 L 146.4192641962565 270.0807358037436 L 124.48849427774749 241.50000000000006 L 110.70223597210861 208.21702822414795 L 106 172.50000000000003 L 110.70223597210855 136.7829717758522 L 124.4884942777474 103.50000000000009 L 146.41926419625642 74.91926419625645 L 174.99999999999994 52.988494277747506 L 208.28297177585205 39.20223597210861 L 244 34.5 L 254 34.5"
         stroke-linejoin="bevel"
         visibility="visible"
         stroke-opacity="0.000001"
         stroke="rgb(192,192,192)"
         stroke-width="22"
         style=""
         id="path388" />
    </g>
    <g
       visibility="visible"
       transform="translate(10,40)"
       clip-path="url(#highcharts-7)"
       id="g390">
      <path
         fill="none"
         d="M 234 69 L 244 69 L 270.86541688164164 72.23689923119471 L 295.75 82.8663707083106 L 317.1855518528077 99.31444814719234 L 333.6336292916894 120.75 L 343.97332302091854 145.7122288318891 L 339.7 172.5 L 308.42725261348085 189.76323030833814 L 268.16210876558586 186.45 L 256.16223663640864 184.6622366364086 L 252.6 187.39563694509235 L 248.45168757576334 189.11392421217198 L 244 189.7 L 239.54831242423666 189.11392421217198 L 223.6 207.8338364744051 L 195.20963209812825 221.29036790187183 L 156.87784437928548 222.8 L 129.3446044194876 203.22182065366928 L 140.5 172.5 L 156.29393497295257 148.99923070469114 L 169.34861019378135 129.40000000000003 L 183.0473954617196 111.54739546171962 L 200.89999999999998 97.84861019378141 L 221.68979831216265 89.23719377388232 L 244 69 L 254 69"
         stroke-linejoin="bevel"
         visibility="visible"
         stroke-opacity="0.000001"
         stroke="rgb(192,192,192)"
         stroke-width="22"
         style=""
         id="path392" />
    </g>
  </g>
</svg>
