<svg xmlns:xlink="http://www.w3.org/1999/xlink" xmlns="http://www.w3.org/2000/svg" version="1.1" width="700" height="400"><defs><clipPath id="highcharts-6"><rect rx="0" ry="0" fill="none" x="0" y="0" width="9999" height="400" stroke-width="0"></rect></clipPath><clipPath id="highcharts-7"><rect fill="none" x="0" y="0" width="488" height="345"></rect></clipPath></defs><rect rx="5" ry="5" fill="#FFFFFF" x="0" y="0" width="700" height="400" stroke-width="0"></rect><g class="highcharts-grid" ><path fill="none" d="M 254 212.5 L 289.71702822414784 79.20223597210858" stroke="#C0C0C0" stroke-width="1" ></path><path fill="none" d="M 254 212.5 L 323 92.98849427774746" stroke="#C0C0C0" stroke-width="1" ></path><path fill="none" d="M 254 212.5 L 351.58073580374355 114.91926419625645" stroke="#C0C0C0" stroke-width="1" ></path><path fill="none" d="M 254 212.5 L 373.51150572225254 143.5" stroke="#C0C0C0" stroke-width="1" ></path><path fill="none" d="M 254 212.5 L 387.2977640278914 176.7829717758521" stroke="#C0C0C0" stroke-width="1" ></path><path fill="none" d="M 254 212.5 L 392 212.5" stroke="#C0C0C0" stroke-width="1" ></path><path fill="none" d="M 254 212.5 L 387.2977640278914 248.21702822414784" stroke="#C0C0C0" stroke-width="1" ></path><path fill="none" d="M 254 212.5 L 373.51150572225254 281.5" stroke="#C0C0C0" stroke-width="1" ></path><path fill="none" d="M 254 212.5 L 351.58073580374355 310.08073580374355" stroke="#C0C0C0" stroke-width="1" ></path><path fill="none" d="M 254 212.5 L 323.00000000000006 332.01150572225254" stroke="#C0C0C0" stroke-width="1" ></path><path fill="none" d="M 254 212.5 L 289.7170282241479 345.7977640278914" stroke="#C0C0C0" stroke-width="1" ></path><path fill="none" d="M 254 212.5 L 254 350.5" stroke="#C0C0C0" stroke-width="1" ></path><path fill="none" d="M 254 212.5 L 218.2829717758522 345.79776402789145" stroke="#C0C0C0" stroke-width="1" ></path><path fill="none" d="M 254 212.5 L 185.00000000000003 332.01150572225254" stroke="#C0C0C0" stroke-width="1" ></path><path fill="none" d="M 254 212.5 L 156.4192641962565 310.0807358037436" stroke="#C0C0C0" stroke-width="1" ></path><path fill="none" d="M 254 212.5 L 134.4884942777475 281.50000000000006" stroke="#C0C0C0" stroke-width="1" ></path><path fill="none" d="M 254 212.5 L 120.70223597210861 248.21702822414795" stroke="#C0C0C0" stroke-width="1" ></path><path fill="none" d="M 254 212.5 L 116 212.50000000000003" stroke="#C0C0C0" stroke-width="1" ></path><path fill="none" d="M 254 212.5 L 120.70223597210855 176.7829717758522" stroke="#C0C0C0" stroke-width="1" ></path><path fill="none" d="M 254 212.5 L 134.4884942777474 143.50000000000009" stroke="#C0C0C0" stroke-width="1" ></path><path fill="none" d="M 254 212.5 L 156.41926419625642 114.91926419625645" stroke="#C0C0C0" stroke-width="1" ></path><path fill="none" d="M 254 212.5 L 184.99999999999994 92.9884942777475" stroke="#C0C0C0" stroke-width="1" ></path><path fill="none" d="M 254 212.5 L 218.28297177585205 79.20223597210861" stroke="#C0C0C0" stroke-width="1" ></path><path fill="none" d="M 254 212.5 L 253.99999999999997 74.5" stroke="#C0C0C0" stroke-width="1" ></path><path fill="none" d="M 254 212.5 L 254 74.5" stroke="#C0C0C0" stroke-width="1" ></path></g><g class="highcharts-grid" ><path fill="none" d="M 254 143.5 L 254 143.5 L 236.14148588792602 145.8511179860543 L 219.49999999999997 152.74424713887376 L 205.20963209812822 163.70963209812822 L 194.2442471388737 178.00000000000006 L 187.35111798605428 194.64148588792608 L 185 212.5 L 187.3511179860543 230.35851411207398 L 194.24424713887373 247.00000000000003 L 205.20963209812825 261.29036790187183 L 219.5 272.25575286112627 L 236.14148588792608 279.1488820139457 L 254 281.5 L 271.858514112074 279.1488820139457 L 288.5 272.25575286112627 L 302.7903679018718 261.2903679018718 L 313.75575286112627 247 L 320.6488820139457 230.35851411207392 L 323 212.5 L 320.6488820139457 194.64148588792605 L 313.75575286112627 178 L 302.7903679018718 163.70963209812822 L 288.5 152.74424713887373 L 271.8585141120739 145.8511179860543 L 254 143.5" stroke="#C0C0C0" stroke-width="1" ></path><path fill="none" d="M 254 74.5 L 253.99999999999997 74.5 L 218.28297177585205 79.20223597210861 L 184.99999999999994 92.9884942777475 L 156.41926419625642 114.91926419625645 L 134.4884942777474 143.50000000000009 L 120.70223597210855 176.7829717758522 L 116 212.50000000000003 L 120.70223597210861 248.21702822414795 L 134.4884942777475 281.50000000000006 L 156.4192641962565 310.0807358037436 L 185.00000000000003 332.01150572225254 L 218.2829717758522 345.79776402789145 L 254 350.5 L 289.7170282241479 345.7977640278914 L 323.00000000000006 332.01150572225254 L 351.58073580374355 310.08073580374355 L 373.51150572225254 281.5 L 387.2977640278914 248.21702822414784 L 392 212.5 L 387.2977640278914 176.7829717758521 L 373.51150572225254 143.5 L 351.58073580374355 114.91926419625645 L 323 92.98849427774746 L 289.71702822414784 79.20223597210858 L 254 74.5" stroke="#C0C0C0" stroke-width="1" ></path><path fill="none" d="M 254 212.5 L 254 212.5 L 254 212.5 L 254 212.5 L 254 212.5 L 254 212.5 L 254 212.5 L 254 212.5 L 254 212.5 L 254 212.5 L 254 212.5 L 254 212.5 L 254 212.5 L 254 212.5 L 254 212.5 L 254 212.5 L 254 212.5 L 254 212.5 L 254 212.5 L 254 212.5 L 254 212.5 L 254 212.5 L 254 212.5 L 254 212.5 L 254 212.5 L 254 212.5" stroke="#C0C0C0" stroke-width="1" ></path></g><g class="highcharts-axis" ></g><g class="highcharts-axis" ></g><g class="highcharts-series-group" ><g class="highcharts-series" visibility="visible"  transform="translate(10,40)" clip-path="url(#highcharts-7)"><path fill="none" d="M 244 34.5 L 279.71702822414784 39.20223597210858 L 313 52.98849427774746 L 341.58073580374355 74.91926419625645 L 363.51150572225254 103.5 L 377.2977640278914 136.7829717758521 L 375.1 172.5 L 244 172.5 L 244 172.5 L 244 172.5 L 244 172.5 L 244 172.5 L 244 172.5 L 244 172.5 L 203.75000000000003 242.21504500464732 L 146.4192641962565 270.0807358037436 L 124.48849427774749 241.50000000000006 L 110.70223597210861 208.21702822414795 L 106 172.50000000000003 L 110.70223597210855 136.7829717758522 L 124.4884942777474 103.50000000000009 L 146.41926419625642 74.91926419625645 L 174.99999999999994 52.988494277747506 L 208.28297177585205 39.20223597210861 L 244 34.5" stroke="black" stroke-width="5"   stroke-opacity="0.05" transform="translate(1, 1)"></path><path fill="none" d="M 244 34.5 L 279.71702822414784 39.20223597210858 L 313 52.98849427774746 L 341.58073580374355 74.91926419625645 L 363.51150572225254 103.5 L 377.2977640278914 136.7829717758521 L 375.1 172.5 L 244 172.5 L 244 172.5 L 244 172.5 L 244 172.5 L 244 172.5 L 244 172.5 L 244 172.5 L 203.75000000000003 242.21504500464732 L 146.4192641962565 270.0807358037436 L 124.48849427774749 241.50000000000006 L 110.70223597210861 208.21702822414795 L 106 172.50000000000003 L 110.70223597210855 136.7829717758522 L 124.4884942777474 103.50000000000009 L 146.41926419625642 74.91926419625645 L 174.99999999999994 52.988494277747506 L 208.28297177585205 39.20223597210861 L 244 34.5" stroke="black" stroke-width="3"   stroke-opacity="0.10" transform="translate(1, 1)"></path><path fill="none" d="M 244 34.5 L 279.71702822414784 39.20223597210858 L 313 52.98849427774746 L 341.58073580374355 74.91926419625645 L 363.51150572225254 103.5 L 377.2977640278914 136.7829717758521 L 375.1 172.5 L 244 172.5 L 244 172.5 L 244 172.5 L 244 172.5 L 244 172.5 L 244 172.5 L 244 172.5 L 203.75000000000003 242.21504500464732 L 146.4192641962565 270.0807358037436 L 124.48849427774749 241.50000000000006 L 110.70223597210861 208.21702822414795 L 106 172.50000000000003 L 110.70223597210855 136.7829717758522 L 124.4884942777474 103.50000000000009 L 146.41926419625642 74.91926419625645 L 174.99999999999994 52.988494277747506 L 208.28297177585205 39.20223597210861 L 244 34.5" stroke="black" stroke-width="1"   stroke-opacity="0.15" transform="translate(1, 1)"></path><path fill="none" d="M 244 34.5 L 279.71702822414784 39.20223597210858 L 313 52.98849427774746 L 341.58073580374355 74.91926419625645 L 363.51150572225254 103.5 L 377.2977640278914 136.7829717758521 L 375.1 172.5 L 244 172.5 L 244 172.5 L 244 172.5 L 244 172.5 L 244 172.5 L 244 172.5 L 244 172.5 L 203.75000000000003 242.21504500464732 L 146.4192641962565 270.0807358037436 L 124.48849427774749 241.50000000000006 L 110.70223597210861 208.21702822414795 L 106 172.50000000000003 L 110.70223597210855 136.7829717758522 L 124.4884942777474 103.50000000000009 L 146.41926419625642 74.91926419625645 L 174.99999999999994 52.988494277747506 L 208.28297177585205 39.20223597210861 L 244 34.5" stroke="#4572A7" stroke-width="2" ></path></g><g class="highcharts-markers" visibility="visible"  transform="translate(10,40)" clip-path="none"><path fill="#4572A7" d="M 208.28297177585205 35.20223597210861 C 213.61097177585205 35.20223597210861 213.61097177585205 43.20223597210861 208.28297177585205 43.20223597210861 C 202.95497177585204 43.20223597210861 202.95497177585204 35.20223597210861 208.28297177585205 35.20223597210861 Z" stroke="#FFFFFF" stroke-width="0"></path><path fill="#4572A7" d="M 174.99999999999994 48.988494277747506 C 180.32799999999995 48.988494277747506 180.32799999999995 56.988494277747506 174.99999999999994 56.988494277747506 C 169.67199999999994 56.988494277747506 169.67199999999994 48.988494277747506 174.99999999999994 48.988494277747506 Z" stroke="#FFFFFF" stroke-width="0"></path><path fill="#4572A7" d="M 146.41926419625642 70.91926419625645 C 151.74726419625642 70.91926419625645 151.74726419625642 78.91926419625645 146.41926419625642 78.91926419625645 C 141.09126419625642 78.91926419625645 141.09126419625642 70.91926419625645 146.41926419625642 70.91926419625645 Z" stroke="#FFFFFF" stroke-width="0"></path><path fill="#4572A7" d="M 124.4884942777474 99.50000000000009 C 129.8164942777474 99.50000000000009 129.8164942777474 107.50000000000009 124.4884942777474 107.50000000000009 C 119.1604942777474 107.50000000000009 119.1604942777474 99.50000000000009 124.4884942777474 99.50000000000009 Z" stroke="#FFFFFF" stroke-width="0"></path><path fill="#4572A7" d="M 110.70223597210855 132.7829717758522 C 116.03023597210856 132.7829717758522 116.03023597210856 140.7829717758522 110.70223597210855 140.7829717758522 C 105.37423597210855 140.7829717758522 105.37423597210855 132.7829717758522 110.70223597210855 132.7829717758522 Z" stroke="#FFFFFF" stroke-width="0"></path><path fill="#4572A7" d="M 106 168.50000000000003 C 111.328 168.50000000000003 111.328 176.50000000000003 106 176.50000000000003 C 100.672 176.50000000000003 100.672 168.50000000000003 106 168.50000000000003 Z" stroke="#FFFFFF" stroke-width="0"></path><path fill="#4572A7" d="M 110.70223597210861 204.21702822414795 C 116.03023597210861 204.21702822414795 116.03023597210861 212.21702822414795 110.70223597210861 212.21702822414795 C 105.37423597210861 212.21702822414795 105.37423597210861 204.21702822414795 110.70223597210861 204.21702822414795 Z" stroke="#FFFFFF" stroke-width="0"></path><path fill="#4572A7" d="M 124.48849427774749 237.50000000000006 C 129.8164942777475 237.50000000000006 129.8164942777475 245.50000000000006 124.48849427774749 245.50000000000006 C 119.16049427774749 245.50000000000006 119.16049427774749 237.50000000000006 124.48849427774749 237.50000000000006 Z" stroke="#FFFFFF" stroke-width="0"></path><path fill="#4572A7" d="M 146.4192641962565 266.0807358037436 C 151.7472641962565 266.0807358037436 151.7472641962565 274.0807358037436 146.4192641962565 274.0807358037436 C 141.0912641962565 274.0807358037436 141.0912641962565 266.0807358037436 146.4192641962565 266.0807358037436 Z" stroke="#FFFFFF" stroke-width="0"></path><path fill="#4572A7" d="M 203.75000000000003 238.21504500464732 C 209.07800000000003 238.21504500464732 209.07800000000003 246.21504500464732 203.75000000000003 246.21504500464732 C 198.42200000000003 246.21504500464732 198.42200000000003 238.21504500464732 203.75000000000003 238.21504500464732 Z" stroke="#FFFFFF" stroke-width="0"></path><path fill="#4572A7" d="M 244 168.5 C 249.328 168.5 249.328 176.5 244 176.5 C 238.672 176.5 238.672 168.5 244 168.5 Z" stroke="#FFFFFF" stroke-width="0"></path><path fill="#4572A7" d="M 244 168.5 C 249.328 168.5 249.328 176.5 244 176.5 C 238.672 176.5 238.672 168.5 244 168.5 Z" stroke="#FFFFFF" stroke-width="0"></path><path fill="#4572A7" d="M 244 168.5 C 249.328 168.5 249.328 176.5 244 176.5 C 238.672 176.5 238.672 168.5 244 168.5 Z" stroke="#FFFFFF" stroke-width="0"></path><path fill="#4572A7" d="M 244 168.5 C 249.328 168.5 249.328 176.5 244 176.5 C 238.672 176.5 238.672 168.5 244 168.5 Z" stroke="#FFFFFF" stroke-width="0"></path><path fill="#4572A7" d="M 244 168.5 C 249.328 168.5 249.328 176.5 244 176.5 C 238.672 176.5 238.672 168.5 244 168.5 Z" stroke="#FFFFFF" stroke-width="0"></path><path fill="#4572A7" d="M 244 168.5 C 249.328 168.5 249.328 176.5 244 176.5 C 238.672 176.5 238.672 168.5 244 168.5 Z" stroke="#FFFFFF" stroke-width="0"></path><path fill="#4572A7" d="M 244 168.5 C 249.328 168.5 249.328 176.5 244 176.5 C 238.672 176.5 238.672 168.5 244 168.5 Z" stroke="#FFFFFF" stroke-width="0"></path><path fill="#4572A7" d="M 375.1 168.5 C 380.428 168.5 380.428 176.5 375.1 176.5 C 369.77200000000005 176.5 369.77200000000005 168.5 375.1 168.5 Z" stroke="#FFFFFF" stroke-width="0"></path><path fill="#4572A7" d="M 377.2977640278914 132.7829717758521 C 382.62576402789136 132.7829717758521 382.62576402789136 140.7829717758521 377.2977640278914 140.7829717758521 C 371.9697640278914 140.7829717758521 371.9697640278914 132.7829717758521 377.2977640278914 132.7829717758521 Z" stroke="#FFFFFF" stroke-width="0"></path><path fill="#4572A7" d="M 363.51150572225254 99.5 C 368.8395057222525 99.5 368.8395057222525 107.5 363.51150572225254 107.5 C 358.18350572225256 107.5 358.18350572225256 99.5 363.51150572225254 99.5 Z" stroke="#FFFFFF" stroke-width="0"></path><path fill="#4572A7" d="M 341.58073580374355 70.91926419625645 C 346.9087358037435 70.91926419625645 346.9087358037435 78.91926419625645 341.58073580374355 78.91926419625645 C 336.2527358037436 78.91926419625645 336.2527358037436 70.91926419625645 341.58073580374355 70.91926419625645 Z" stroke="#FFFFFF" stroke-width="0"></path><path fill="#4572A7" d="M 313 48.98849427774746 C 318.328 48.98849427774746 318.328 56.98849427774746 313 56.98849427774746 C 307.672 56.98849427774746 307.672 48.98849427774746 313 48.98849427774746 Z" stroke="#FFFFFF" stroke-width="0"></path><path fill="#4572A7" d="M 279.71702822414784 35.20223597210858 C 285.0450282241478 35.20223597210858 285.0450282241478 43.20223597210858 279.71702822414784 43.20223597210858 C 274.38902822414786 43.20223597210858 274.38902822414786 35.20223597210858 279.71702822414784 35.20223597210858 Z" stroke="#FFFFFF" stroke-width="0"></path><path fill="#4572A7" d="M 244 30.5 C 249.328 30.5 249.328 38.5 244 38.5 C 238.672 38.5 238.672 30.5 244 30.5 Z" stroke="#FFFFFF" stroke-width="0"></path></g><g class="highcharts-series" visibility="visible"  transform="translate(10,40)" clip-path="url(#highcharts-7)"><path fill="none" d="M 244 69 L 270.86541688164164 72.23689923119471 L 295.75 82.8663707083106 L 317.1855518528077 99.31444814719234 L 333.6336292916894 120.75 L 343.97332302091854 145.7122288318891 L 339.7 172.5 L 308.42725261348085 189.76323030833814 L 268.16210876558586 186.45 L 256.16223663640864 184.6622366364086 L 252.6 187.39563694509235 L 248.45168757576334 189.11392421217198 L 244 189.7 L 239.54831242423666 189.11392421217198 L 223.6 207.8338364744051 L 195.20963209812825 221.29036790187183 L 156.87784437928548 222.8 L 129.3446044194876 203.22182065366928 L 140.5 172.5 L 156.29393497295257 148.99923070469114 L 169.34861019378135 129.40000000000003 L 183.0473954617196 111.54739546171962 L 200.89999999999998 97.84861019378141 L 221.68979831216265 89.23719377388232 L 244 69" stroke="black" stroke-width="5"   stroke-opacity="0.05" transform="translate(1, 1)"></path><path fill="none" d="M 244 69 L 270.86541688164164 72.23689923119471 L 295.75 82.8663707083106 L 317.1855518528077 99.31444814719234 L 333.6336292916894 120.75 L 343.97332302091854 145.7122288318891 L 339.7 172.5 L 308.42725261348085 189.76323030833814 L 268.16210876558586 186.45 L 256.16223663640864 184.6622366364086 L 252.6 187.39563694509235 L 248.45168757576334 189.11392421217198 L 244 189.7 L 239.54831242423666 189.11392421217198 L 223.6 207.8338364744051 L 195.20963209812825 221.29036790187183 L 156.87784437928548 222.8 L 129.3446044194876 203.22182065366928 L 140.5 172.5 L 156.29393497295257 148.99923070469114 L 169.34861019378135 129.40000000000003 L 183.0473954617196 111.54739546171962 L 200.89999999999998 97.84861019378141 L 221.68979831216265 89.23719377388232 L 244 69" stroke="black" stroke-width="3"   stroke-opacity="0.10" transform="translate(1, 1)"></path><path fill="none" d="M 244 69 L 270.86541688164164 72.23689923119471 L 295.75 82.8663707083106 L 317.1855518528077 99.31444814719234 L 333.6336292916894 120.75 L 343.97332302091854 145.7122288318891 L 339.7 172.5 L 308.42725261348085 189.76323030833814 L 268.16210876558586 186.45 L 256.16223663640864 184.6622366364086 L 252.6 187.39563694509235 L 248.45168757576334 189.11392421217198 L 244 189.7 L 239.54831242423666 189.11392421217198 L 223.6 207.8338364744051 L 195.20963209812825 221.29036790187183 L 156.87784437928548 222.8 L 129.3446044194876 203.22182065366928 L 140.5 172.5 L 156.29393497295257 148.99923070469114 L 169.34861019378135 129.40000000000003 L 183.0473954617196 111.54739546171962 L 200.89999999999998 97.84861019378141 L 221.68979831216265 89.23719377388232 L 244 69" stroke="black" stroke-width="1"   stroke-opacity="0.15" transform="translate(1, 1)"></path><path fill="none" d="M 244 69 L 270.86541688164164 72.23689923119471 L 295.75 82.8663707083106 L 317.1855518528077 99.31444814719234 L 333.6336292916894 120.75 L 343.97332302091854 145.7122288318891 L 339.7 172.5 L 308.42725261348085 189.76323030833814 L 268.16210876558586 186.45 L 256.16223663640864 184.6622366364086 L 252.6 187.39563694509235 L 248.45168757576334 189.11392421217198 L 244 189.7 L 239.54831242423666 189.11392421217198 L 223.6 207.8338364744051 L 195.20963209812825 221.29036790187183 L 156.87784437928548 222.8 L 129.3446044194876 203.22182065366928 L 140.5 172.5 L 156.29393497295257 148.99923070469114 L 169.34861019378135 129.40000000000003 L 183.0473954617196 111.54739546171962 L 200.89999999999998 97.84861019378141 L 221.68979831216265 89.23719377388232 L 244 69" stroke="#AA4643" stroke-width="2" ></path></g><g class="highcharts-markers" visibility="visible"  transform="translate(10,40)" clip-path="none"><path fill="#AA4643" d="M 221.68979831216265 85.23719377388232 L 225.68979831216265 89.23719377388232 221.68979831216265 93.23719377388232 217.68979831216265 89.23719377388232 Z" stroke="#FFFFFF" stroke-width="0"></path><path fill="#AA4643" d="M 200.89999999999998 93.84861019378141 L 204.9 97.84861019378141 200.89999999999998 101.84861019378141 196.89999999999998 97.84861019378141 Z" stroke="#FFFFFF" stroke-width="0"></path><path fill="#AA4643" d="M 183.0473954617196 107.54739546171962 L 187.0473954617196 111.54739546171962 183.0473954617196 115.54739546171962 179.0473954617196 111.54739546171962 Z" stroke="#FFFFFF" stroke-width="0"></path><path fill="#AA4643" d="M 169.34861019378135 125.40000000000003 L 173.34861019378135 129.40000000000003 169.34861019378135 133.40000000000003 165.34861019378135 129.40000000000003 Z" stroke="#FFFFFF" stroke-width="0"></path><path fill="#AA4643" d="M 156.29393497295257 144.99923070469114 L 160.29393497295257 148.99923070469114 156.29393497295257 152.99923070469114 152.29393497295257 148.99923070469114 Z" stroke="#FFFFFF" stroke-width="0"></path><path fill="#AA4643" d="M 140.5 168.5 L 144.5 172.5 140.5 176.5 136.5 172.5 Z" stroke="#FFFFFF" stroke-width="0"></path><path fill="#AA4643" d="M 129.3446044194876 199.22182065366928 L 133.3446044194876 203.22182065366928 129.3446044194876 207.22182065366928 125.34460441948761 203.22182065366928 Z" stroke="#FFFFFF" stroke-width="0"></path><path fill="#AA4643" d="M 156.87784437928548 218.8 L 160.87784437928548 222.8 156.87784437928548 226.8 152.87784437928548 222.8 Z" stroke="#FFFFFF" stroke-width="0"></path><path fill="#AA4643" d="M 195.20963209812825 217.29036790187183 L 199.20963209812825 221.29036790187183 195.20963209812825 225.29036790187183 191.20963209812825 221.29036790187183 Z" stroke="#FFFFFF" stroke-width="0"></path><path fill="#AA4643" d="M 223.6 203.8338364744051 L 227.6 207.8338364744051 223.6 211.8338364744051 219.6 207.8338364744051 Z" stroke="#FFFFFF" stroke-width="0"></path><path fill="#AA4643" d="M 239.54831242423666 185.11392421217198 L 243.54831242423666 189.11392421217198 239.54831242423666 193.11392421217198 235.54831242423666 189.11392421217198 Z" stroke="#FFFFFF" stroke-width="0"></path><path fill="#AA4643" d="M 244 185.7 L 248 189.7 244 193.7 240 189.7 Z" stroke="#FFFFFF" stroke-width="0"></path><path fill="#AA4643" d="M 248.45168757576334 185.11392421217198 L 252.45168757576334 189.11392421217198 248.45168757576334 193.11392421217198 244.45168757576334 189.11392421217198 Z" stroke="#FFFFFF" stroke-width="0"></path><path fill="#AA4643" d="M 252.6 183.39563694509235 L 256.6 187.39563694509235 252.6 191.39563694509235 248.6 187.39563694509235 Z" stroke="#FFFFFF" stroke-width="0"></path><path fill="#AA4643" d="M 256.16223663640864 180.6622366364086 L 260.16223663640864 184.6622366364086 256.16223663640864 188.6622366364086 252.16223663640864 184.6622366364086 Z" stroke="#FFFFFF" stroke-width="0"></path><path fill="#AA4643" d="M 268.16210876558586 182.45 L 272.16210876558586 186.45 268.16210876558586 190.45 264.16210876558586 186.45 Z" stroke="#FFFFFF" stroke-width="0"></path><path fill="#AA4643" d="M 308.42725261348085 185.76323030833814 L 312.42725261348085 189.76323030833814 308.42725261348085 193.76323030833814 304.42725261348085 189.76323030833814 Z" stroke="#FFFFFF" stroke-width="0"></path><path fill="#AA4643" d="M 339.7 168.5 L 343.7 172.5 339.7 176.5 335.7 172.5 Z" stroke="#FFFFFF" stroke-width="0"></path><path fill="#AA4643" d="M 343.97332302091854 141.7122288318891 L 347.97332302091854 145.7122288318891 343.97332302091854 149.7122288318891 339.97332302091854 145.7122288318891 Z" stroke="#FFFFFF" stroke-width="0"></path><path fill="#AA4643" d="M 333.6336292916894 116.75 L 337.6336292916894 120.75 333.6336292916894 124.75 329.6336292916894 120.75 Z" stroke="#FFFFFF" stroke-width="0"></path><path fill="#AA4643" d="M 317.1855518528077 95.31444814719234 L 321.1855518528077 99.31444814719234 317.1855518528077 103.31444814719234 313.1855518528077 99.31444814719234 Z" stroke="#FFFFFF" stroke-width="0"></path><path fill="#AA4643" d="M 295.75 78.8663707083106 L 299.75 82.8663707083106 295.75 86.8663707083106 291.75 82.8663707083106 Z" stroke="#FFFFFF" stroke-width="0"></path><path fill="#AA4643" d="M 270.86541688164164 68.23689923119471 L 274.86541688164164 72.23689923119471 270.86541688164164 76.23689923119471 266.86541688164164 72.23689923119471 Z" stroke="#FFFFFF" stroke-width="0"></path><path fill="#AA4643" d="M 244 65 L 248 69 244 73 240 69 Z" stroke="#FFFFFF" stroke-width="0"></path></g></g><text x="270" y="25" style="font-family:'lucida grande', 'lucida sans unicode', verdana, arial, helvetica, sans-serif;font-size:16px;color:#3e576f;fill:#3e576f;" text-anchor="middle" class="highcharts-title" ><tspan x="270">Energy Saving</tspan></text><g class="highcharts-legend"  transform="translate(508,110)"><rect rx="5" ry="5" fill="none" x="0.5" y="0.5" width="181" height="42" stroke-width="1" stroke="#909090" visibility="visible"></rect><g  clip-path="url(#highcharts-6)"><g><g class="highcharts-legend-item"  transform="translate(8,3)"><path fill="none" d="M 0 11 L 16 11" stroke-width="2" stroke="#4572A7"></path><path fill="#4572A7" d="M 8 7 C 13.328 7 13.328 15 8 15 C 2.6719999999999997 15 2.6719999999999997 7 8 7 Z" stroke="#FFFFFF" stroke-width="0"></path><text x="21" y="15" style="font-family:'lucida grande', 'lucida sans unicode', verdana, arial, helvetica, sans-serif;font-size:12px;cursor:pointer;color:#3e576f;fill:#3e576f;" text-anchor="start" ><tspan x="21">My Savings 68.89 %</tspan></text></g><g class="highcharts-legend-item"  transform="translate(8,19)"><path fill="none" d="M 0 11 L 16 11" stroke-width="2" stroke="#AA4643"></path><path fill="#AA4643" d="M 8 7 L 12 11 8 15 4 11 Z" stroke="#FFFFFF" stroke-width="0"></path><text x="21" y="15" style="font-family:'lucida grande', 'lucida sans unicode', verdana, arial, helvetica, sans-serif;font-size:12px;cursor:pointer;color:#3e576f;fill:#3e576f;" text-anchor="start" ><tspan x="21">Average Savings 53.33 %</tspan></text></g></g></g></g><g class="highcharts-axis-labels" ><text x="254" y="64.6" style="font-family:'lucida grande', 'lucida sans unicode', verdana, arial, helvetica, sans-serif;font-size:11px;width:1px;color:#666;line-height:14px;fill:#666;" text-anchor="middle" visibility="visible"><tspan x="254"></tspan><tspan dy="14px" x="254">0:00</tspan></text><text x="293.5993139006857" y="69.81334857777253" style="font-family:'lucida grande', 'lucida sans unicode', verdana, arial, helvetica, sans-serif;font-size:11px;width:1px;color:#666;line-height:14px;fill:#666;" text-anchor="middle" visibility="visible"><tspan x="293.5993139006857"></tspan><tspan dy="14px" x="293.5993139006857">1:00</tspan></text><text x="330.5" y="85.09811322098088" style="font-family:'lucida grande', 'lucida sans unicode', verdana, arial, helvetica, sans-serif;font-size:11px;width:1px;color:#666;line-height:14px;fill:#666;" text-anchor="start" visibility="visible"><tspan x="330.5"></tspan><tspan dy="14px" x="330.5">2:00</tspan></text><text x="362.1873375215418" y="109.41266247845823" style="font-family:'lucida grande', 'lucida sans unicode', verdana, arial, helvetica, sans-serif;font-size:11px;width:1px;color:#666;line-height:14px;fill:#666;" text-anchor="start" visibility="visible"><tspan x="362.1873375215418"></tspan><tspan dy="14px" x="362.1873375215418">3:00</tspan></text><text x="386.5018867790191" y="141.1" style="font-family:'lucida grande', 'lucida sans unicode', verdana, arial, helvetica, sans-serif;font-size:11px;width:1px;color:#666;line-height:14px;fill:#666;" text-anchor="start" visibility="visible"><tspan x="386.5018867790191"></tspan><tspan dy="14px" x="386.5018867790191">4:00</tspan></text><text x="401.78665142222746" y="178.0006860993143" style="font-family:'lucida grande', 'lucida sans unicode', verdana, arial, helvetica, sans-serif;font-size:11px;width:1px;color:#666;line-height:14px;fill:#666;" text-anchor="start" visibility="visible"><tspan x="401.78665142222746"></tspan><tspan dy="14px" x="401.78665142222746">5:00</tspan></text><text x="407" y="217.6" style="font-family:'lucida grande', 'lucida sans unicode', verdana, arial, helvetica, sans-serif;font-size:11px;width:1px;color:#666;line-height:14px;fill:#666;" text-anchor="start" visibility="visible"><tspan x="407"></tspan><tspan dy="14px" x="407">6:00</tspan></text><text x="401.78665142222746" y="257.1993139006857" style="font-family:'lucida grande', 'lucida sans unicode', verdana, arial, helvetica, sans-serif;font-size:11px;width:1px;color:#666;line-height:14px;fill:#666;" text-anchor="start" visibility="visible"><tspan x="401.78665142222746"></tspan><tspan dy="14px" x="401.78665142222746">7:00</tspan></text><text x="386.5018867790191" y="294.1" style="font-family:'lucida grande', 'lucida sans unicode', verdana, arial, helvetica, sans-serif;font-size:11px;width:1px;color:#666;line-height:14px;fill:#666;" text-anchor="start" visibility="visible"><tspan x="386.5018867790191"></tspan><tspan dy="14px" x="386.5018867790191">8:00</tspan></text><text x="362.1873375215418" y="325.78733752154176" style="font-family:'lucida grande', 'lucida sans unicode', verdana, arial, helvetica, sans-serif;font-size:11px;width:1px;color:#666;line-height:14px;fill:#666;" text-anchor="start" visibility="visible"><tspan x="362.1873375215418"></tspan><tspan dy="14px" x="362.1873375215418">9:00</tspan></text><text x="330.50000000000006" y="350.1018867790191" style="font-family:'lucida grande', 'lucida sans unicode', verdana, arial, helvetica, sans-serif;font-size:11px;width:1px;color:#666;line-height:14px;fill:#666;" text-anchor="start" visibility="visible"><tspan x="330.50000000000006">10:00</tspan></text><text x="293.59931390068573" y="365.3866514222275" style="font-family:'lucida grande', 'lucida sans unicode', verdana, arial, helvetica, sans-serif;font-size:11px;width:1px;color:#666;line-height:14px;fill:#666;" text-anchor="middle" visibility="visible"><tspan x="293.59931390068573">11:00</tspan></text><text x="254" y="370.6" style="font-family:'lucida grande', 'lucida sans unicode', verdana, arial, helvetica, sans-serif;font-size:11px;width:1px;color:#666;line-height:14px;fill:#666;" text-anchor="middle" visibility="visible"><tspan x="254">12:00</tspan></text><text x="214.40068609931438" y="365.3866514222275" style="font-family:'lucida grande', 'lucida sans unicode', verdana, arial, helvetica, sans-serif;font-size:11px;width:1px;color:#666;line-height:14px;fill:#666;" text-anchor="middle" visibility="visible"><tspan x="214.40068609931438">13:00</tspan></text><text x="177.50000000000003" y="350.10188677901914" style="font-family:'lucida grande', 'lucida sans unicode', verdana, arial, helvetica, sans-serif;font-size:11px;width:1px;color:#666;line-height:14px;fill:#666;" text-anchor="end" visibility="visible"><tspan x="177.50000000000003">14:00</tspan></text><text x="145.8126624784583" y="325.7873375215419" style="font-family:'lucida grande', 'lucida sans unicode', verdana, arial, helvetica, sans-serif;font-size:11px;width:1px;color:#666;line-height:14px;fill:#666;" text-anchor="end" visibility="visible"><tspan x="145.8126624784583">15:00</tspan></text><text x="121.49811322098091" y="294.1000000000001" style="font-family:'lucida grande', 'lucida sans unicode', verdana, arial, helvetica, sans-serif;font-size:11px;width:1px;color:#666;line-height:14px;fill:#666;" text-anchor="end" visibility="visible"><tspan x="121.49811322098091">16:00</tspan></text><text x="106.21334857777259" y="257.1993139006858" style="font-family:'lucida grande', 'lucida sans unicode', verdana, arial, helvetica, sans-serif;font-size:11px;width:1px;color:#666;line-height:14px;fill:#666;" text-anchor="end" visibility="visible"><tspan x="106.21334857777259">17:00</tspan></text><text x="101" y="217.6" style="font-family:'lucida grande', 'lucida sans unicode', verdana, arial, helvetica, sans-serif;font-size:11px;width:1px;color:#666;line-height:14px;fill:#666;" text-anchor="end" visibility="visible"><tspan x="101">18:00</tspan></text><text x="106.21334857777254" y="178.00068609931438" style="font-family:'lucida grande', 'lucida sans unicode', verdana, arial, helvetica, sans-serif;font-size:11px;width:1px;color:#666;line-height:14px;fill:#666;" text-anchor="end" visibility="visible"><tspan x="106.21334857777254">19:00</tspan></text><text x="121.49811322098083" y="141.1000000000001" style="font-family:'lucida grande', 'lucida sans unicode', verdana, arial, helvetica, sans-serif;font-size:11px;width:1px;color:#666;line-height:14px;fill:#666;" text-anchor="end" visibility="visible"><tspan x="121.49811322098083">20:00</tspan></text><text x="145.8126624784582" y="109.41266247845823" style="font-family:'lucida grande', 'lucida sans unicode', verdana, arial, helvetica, sans-serif;font-size:11px;width:1px;color:#666;line-height:14px;fill:#666;" text-anchor="end" visibility="visible"><tspan x="145.8126624784582">21:00</tspan></text><text x="177.49999999999994" y="85.09811322098093" style="font-family:'lucida grande', 'lucida sans unicode', verdana, arial, helvetica, sans-serif;font-size:11px;width:1px;color:#666;line-height:14px;fill:#666;" text-anchor="end" visibility="visible"><tspan x="177.49999999999994">22:00</tspan></text><text x="214.4006860993142" y="69.81334857777259" style="font-family:'lucida grande', 'lucida sans unicode', verdana, arial, helvetica, sans-serif;font-size:11px;width:1px;color:#666;line-height:14px;fill:#666;" text-anchor="middle" visibility="visible"><tspan x="214.4006860993142">23:00</tspan></text><text x="0" y="0" style="font-family:'lucida grande', 'lucida sans unicode', verdana, arial, helvetica, sans-serif;font-size:11px;width:1px;color:#666;line-height:14px;fill:#666;" text-anchor="middle" visibility="hidden"><tspan x="0">24</tspan></text></g><g class="highcharts-axis-labels" ><text x="251" y="210.5" style="font-family:'lucida grande', 'lucida sans unicode', verdana, arial, helvetica, sans-serif;font-size:11px;width:224px;color:#666;line-height:14px;fill:#666;" text-anchor="end" visibility="visible"><tspan x="251">0</tspan></text><text x="0" y="0" style="font-family:'lucida grande', 'lucida sans unicode', verdana, arial, helvetica, sans-serif;font-size:11px;width:224px;color:#666;line-height:14px;fill:#666;" text-anchor="end" visibility="hidden"><tspan x="0">100</tspan></text><text x="251" y="141.5" style="font-family:'lucida grande', 'lucida sans unicode', verdana, arial, helvetica, sans-serif;font-size:11px;width:224px;color:#666;line-height:14px;fill:#666;" text-anchor="end" visibility="visible"><tspan x="251">50</tspan></text></g><g class="highcharts-tooltip"  style="padding:0;white-space:nowrap;" visibility="hidden"><rect rx="5" ry="5" fill="none" x="0" y="0" width="10" height="10" stroke-width="5" fill-opacity="0.85"  stroke="black" stroke-opacity="0.05" transform="translate(1, 1)"></rect><rect rx="5" ry="5" fill="none" x="0" y="0" width="10" height="10" stroke-width="3" fill-opacity="0.85"  stroke="black" stroke-opacity="0.10" transform="translate(1, 1)"></rect><rect rx="5" ry="5" fill="none" x="0" y="0" width="10" height="10" stroke-width="1" fill-opacity="0.85"  stroke="black" stroke-opacity="0.15" transform="translate(1, 1)"></rect><rect rx="5" ry="5" fill="rgb(255,255,255)" x="0" y="0" width="10" height="10" stroke-width="2" fill-opacity="0.85"></rect><text x="5" y="18" style="font-family:'lucida grande', 'lucida sans unicode', verdana, arial, helvetica, sans-serif;font-size:12px;color:#333333;fill:#333333;" ></text></g><text x="690" y="395" style="font-family:'lucida grande', 'lucida sans unicode', verdana, arial, helvetica, sans-serif;font-size:10px;cursor:pointer;color:#909090;fill:#909090;" text-anchor="end" ><tspan x="690">Highcharts.com</tspan></text><g class="highcharts-tracker" ><g visibility="visible"  transform="translate(10,40)" clip-path="url(#highcharts-7)"><path fill="none" d="M 234 34.5 L 244 34.5 L 279.71702822414784 39.20223597210858 L 313 52.98849427774746 L 341.58073580374355 74.91926419625645 L 363.51150572225254 103.5 L 377.2977640278914 136.7829717758521 L 375.1 172.5 L 244 172.5 L 244 172.5 L 244 172.5 L 244 172.5 L 244 172.5 L 244 172.5 L 244 172.5 L 203.75000000000003 242.21504500464732 L 146.4192641962565 270.0807358037436 L 124.48849427774749 241.50000000000006 L 110.70223597210861 208.21702822414795 L 106 172.50000000000003 L 110.70223597210855 136.7829717758522 L 124.4884942777474 103.50000000000009 L 146.41926419625642 74.91926419625645 L 174.99999999999994 52.988494277747506 L 208.28297177585205 39.20223597210861 L 244 34.5 L 254 34.5"  stroke-linejoin="bevel" visibility="visible" stroke-opacity="0.000001" stroke="rgb(192,192,192)" stroke-width="22" style=""></path></g><g visibility="visible"  transform="translate(10,40)" clip-path="url(#highcharts-7)"><path fill="none" d="M 234 69 L 244 69 L 270.86541688164164 72.23689923119471 L 295.75 82.8663707083106 L 317.1855518528077 99.31444814719234 L 333.6336292916894 120.75 L 343.97332302091854 145.7122288318891 L 339.7 172.5 L 308.42725261348085 189.76323030833814 L 268.16210876558586 186.45 L 256.16223663640864 184.6622366364086 L 252.6 187.39563694509235 L 248.45168757576334 189.11392421217198 L 244 189.7 L 239.54831242423666 189.11392421217198 L 223.6 207.8338364744051 L 195.20963209812825 221.29036790187183 L 156.87784437928548 222.8 L 129.3446044194876 203.22182065366928 L 140.5 172.5 L 156.29393497295257 148.99923070469114 L 169.34861019378135 129.40000000000003 L 183.0473954617196 111.54739546171962 L 200.89999999999998 97.84861019378141 L 221.68979831216265 89.23719377388232 L 244 69 L 254 69"  stroke-linejoin="bevel" visibility="visible" stroke-opacity="0.000001" stroke="rgb(192,192,192)" stroke-width="22" style=""></path></g></g></svg>