<?xml version="1.0" encoding="UTF-8" standalone="no"?>
<!-- Created with Inkscape (http://www.inkscape.org/) -->
<svg xmlns:dc="http://purl.org/dc/elements/1.1/" xmlns:cc="http://web.resource.org/cc/" xmlns:rdf="http://www.w3.org/1999/02/22-rdf-syntax-ns#" xmlns:svg="http://www.w3.org/2000/svg" xmlns="http://www.w3.org/2000/svg" xmlns:xlink="http://www.w3.org/1999/xlink" xmlns:sodipodi="http://sodipodi.sourceforge.net/DTD/sodipodi-0.dtd" xmlns:inkscape="http://www.inkscape.org/namespaces/inkscape" width="226.51767" height="270.66068" id="svg4381" sodipodi:version="0.32" inkscape:version="0.44.1" version="1.0" sodipodi:docbase="/home/moni" sodipodi:docname="backpack.svg">
  <defs id="defs4383">
    <linearGradient inkscape:collect="always" xlink:href="#linearGradient11889" id="linearGradient25330" gradientUnits="userSpaceOnUse" gradientTransform="translate(53.1552, 58.0591)" x1="1190.5531" y1="107.07273" x2="1186.8003" y2="39.930092"/>
    <linearGradient inkscape:collect="always" xlink:href="#linearGradient11889" id="linearGradient25328" gradientUnits="userSpaceOnUse" gradientTransform="translate(157.012, -38.9429)" x1="713.67267" y1="-42.25745" x2="828.43903" y2="-53.830521"/>
    <linearGradient id="linearGradient11889">
      <stop style="stop-color: rgb(255, 212, 42); stop-opacity: 1;" offset="0" id="stop11891"/>
      <stop style="stop-color: rgb(255, 248, 219); stop-opacity: 1;" offset="1" id="stop11893"/>
    </linearGradient>
    <linearGradient inkscape:collect="always" xlink:href="#linearGradient11889" id="linearGradient25326" gradientUnits="userSpaceOnUse" gradientTransform="translate(95.9551, 2.41903)" x1="851.02051" y1="90.873535" x2="983.14032" y2="90.873535"/>
  </defs>
  <sodipodi:namedview id="base" pagecolor="#ffffff" bordercolor="#666666" borderopacity="1.0" gridtolerance="10000" guidetolerance="10" objecttolerance="10" inkscape:pageopacity="0.0" inkscape:pageshadow="2" inkscape:zoom="1.9175301" inkscape:cx="113.25883" inkscape:cy="135.33034" inkscape:document-units="px" inkscape:current-layer="layer1" inkscape:window-width="1024" inkscape:window-height="719" inkscape:window-x="0" inkscape:window-y="0"/>
  <metadata id="metadata4386">
    <rdf:RDF>
      <cc:Work rdf:about="">
        <dc:format>image/svg+xml</dc:format>
        <dc:type rdf:resource="http://purl.org/dc/dcmitype/StillImage"/>
      </cc:Work>
    </rdf:RDF>
  </metadata>
  <g inkscape:label="Layer 1" inkscape:groupmode="layer" id="layer1" transform="translate(-235.313, -202.746)">
    <g id="g25263" transform="translate(-704.399, 418.159)">
      <g transform="translate(-272.899, -10.6324)" id="g24068">
        <g id="g21970" transform="translate(431.137, -103.212)">
          <path sodipodi:nodetypes="cssssssscsssscsssccsssscsscsssssssc" id="path2893" d="M 803.55883,-33.808848 C 805.67074,-37.402846 799.39666,-70.064242 812.27962,-77.089048 C 826.07058,-84.608968 830.58586,-82.227016 833.60019,-85.708556 C 836.09845,-88.594037 834.9554,-92.209212 842.10281,-94.44865 C 850.11829,-96.96008 873.32655,-100.67555 899.69908,-99.98458 C 925.94344,-99.29697 929.7441,-96.46668 941.93282,-92.068904 C 948.50074,-89.699157 958.28715,-86.326617 959.62343,-83.157772 C 962.39323,-76.589473 967.02764,-81.118661 968.98368,-76.665763 C 970.88706,-72.332753 976.34419,-60.40246 977.28941,-48.16171 C 982.81795,-48.150636 987.8174,-47.942685 991.64911,-44.110972 C 995.48082,-40.279256 999.26312,-34.818757 1000.2723,-22.915961 C 1000.9721,-14.662795 1002.5733,5.5534872 1002.9363,18.26941 C 1003.1723,26.539237 1003.9908,42.117326 1002.0823,46.047486 C 1000.9322,48.416074 991.28797,57.21931 990.37926,59.00935 C 990.10547,60.799385 995.24419,58.22143 1000.6697,62.096625 C 1005.5744,65.599795 1005.8705,71.92307 1006.1294,76.06626 C 1006.5225,82.357709 1006.993,108.85641 1005.1733,112.98924 C 1002.5093,119.03951 993.18503,124.42162 987.86351,126.41438 C 988.57381,136.87284 984.41635,138.52662 984.41635,138.52662 C 984.41635,138.52662 983.65079,149.14371 981.11744,152.59837 C 978.23811,156.52484 971.59753,160.10536 960.79115,163.01683 C 937.18549,169.37674 895.32555,167.21211 888.941,167.06758 C 879.59182,166.85595 859.33444,165.99091 850.41962,163.65915 C 846.05087,162.51646 834.65471,156.0031 834.65471,156.0031 C 834.65471,156.0031 827.2177,150.89415 824.02461,148.9783 C 820.83151,147.06245 816.76149,145.45145 814.98609,143.50693 C 811.22783,139.3907 809.96761,135.65989 809.96761,135.65989 C 809.96761,135.65989 800.71615,136.71023 795.95471,127.79584 C 793.78507,123.73382 786.83045,97.092289 785.99776,90.050459 C 785.5416,86.192779 784.74411,55.96632 786.02135,52.1346 C 787.29859,48.302884 797.94213,37.104127 796.55661,35.280021 C 794.6007,32.704961 783.63416,19.880259 783.02889,6.9264212 C 782.57065,-2.8300168 785.08681,-14.082993 786.48828,-17.871027 C 787.16362,-19.696416 789.66462,-25.426898 794.73618,-30.546301 C 799.80774,-35.665703 799.89368,-32.577633 803.55883,-33.808848 z " style="fill: rgb(55, 113, 200); fill-rule: evenodd; stroke: black; stroke-width: 3; stroke-linecap: butt; stroke-linejoin: miter; stroke-miterlimit: 4; stroke-dasharray: none; stroke-opacity: 1;"/>
          <g id="g21948">
            <g id="g21940">
              <path sodipodi:nodetypes="cssssccc" id="path16531" d="M 949.46691,-48.311366 C 963.35646,-46.493277 982.35103,-49.692886 989.44268,-44.325053 C 993.50424,-41.250762 998.57617,-34.815771 999.58537,-22.912975 C 1000.2851,-14.659809 1001.8864,5.5564752 1002.2493,18.272396 C 1002.4854,26.542223 1003.3039,42.120312 1001.3954,46.050473 C 1000.6937,47.495449 994.78617,54.095072 988.91761,59.323276 C 984.90167,59.540937 978.57017,59.014537 948.76792,55.976819 C 952.56688,30.419066 949.71685,-34.925686 949.46691,-48.311366 z " style="fill: rgb(250, 177, 0); fill-opacity: 1; fill-rule: evenodd; stroke: none; stroke-width: 3; stroke-linecap: butt; stroke-linejoin: miter; stroke-miterlimit: 4; stroke-dasharray: none; stroke-opacity: 1;"/>
              <path sodipodi:nodetypes="cssssss" id="path20103" d="M 997.49531,5.4941306 C 997.73621,-5.7961321 998.43655,-16.965999 996.74163,-25.801051 C 995.04672,-34.636103 989.12024,-41.255954 986.07036,-41.376928 C 983.02048,-41.497903 982.15381,-29.568211 985.25425,-17.582883 C 988.3547,-5.5975541 988.30665,3.7369348 987.96416,11.671314 C 987.75839,16.333434 988.18809,35.729187 992.65263,25.59119 C 997.11717,15.453193 997.3857,10.710658 997.49531,5.4941306 z " style="fill: rgb(215, 94, 23); fill-opacity: 1; fill-rule: evenodd; stroke: none; stroke-width: 1px; stroke-linecap: butt; stroke-linejoin: miter; stroke-opacity: 1;"/>
            </g>
            <g id="g21944">
              <path sodipodi:nodetypes="cssssscc" id="path17420" d="M 966.5605,57.142228 C 977.61934,58.115446 982.75824,58.44205 989.34888,59.108338 C 991.02176,59.277461 997.31594,60.058036 999.69739,62.001544 C 1005.093,66.404898 1004.8982,71.827988 1005.157,75.971178 C 1005.5501,82.262627 1005.8672,108.45435 1004.0475,112.58718 C 1002.6908,115.66834 997.71027,119.71659 992.76046,123.08519 C 990.34296,124.73042 977.5222,128.95168 967.34934,128.57625 C 965.54207,118.50047 965.92496,59.865673 966.5605,57.142228 z " style="fill: rgb(250, 177, 0); fill-opacity: 1; fill-rule: evenodd; stroke: none; stroke-width: 3; stroke-linecap: butt; stroke-linejoin: miter; stroke-miterlimit: 4; stroke-dasharray: none; stroke-opacity: 1;"/>
              <path sodipodi:nodetypes="cssssz" id="path20105" d="M 992.55827,80.017066 C 992.20147,86.522811 992.67945,86.667487 995.99597,82.762467 C 999.05415,79.16164 995.74154,93.724942 999.41742,106.16551 C 1003.8054,121.01607 1002.7823,80.16329 1002.5341,74.834703 C 1002.1383,66.389228 992.03922,56.826894 992.72596,68.429387 C 992.91388,71.604338 992.90602,73.676143 992.55827,80.017066 z " style="fill: rgb(215, 94, 23); fill-opacity: 1; fill-rule: evenodd; stroke: none; stroke-width: 1px; stroke-linecap: butt; stroke-linejoin: miter; stroke-opacity: 1;"/>
            </g>
          </g>
        </g>
        <g id="g21920" transform="translate(430.326, -103.785)">
          <path sodipodi:nodetypes="csssssssssssssssssc" id="path3798" d="M 876.07842,165.73293 C 855.17105,165.00924 847.59703,162.49547 840.30685,158.69558 C 837.36089,157.16004 830.51821,152.51887 824.74713,149.00021 C 821.9028,147.26599 818.82749,145.90772 816.65585,144.19164 C 814.17794,142.23356 811.20763,138.84469 810.07176,135.34647 C 808.7854,131.38475 801.64755,-1.0329788 803.87647,-34.393656 C 804.45712,-43.084479 803.9066,-47.795022 804.03331,-53.506562 C 804.3193,-66.396113 805.88575,-70.43077 808.33049,-74.664012 C 810.44325,-78.322383 822.1905,-83.19891 826.10269,-82.129108 C 829.86639,-81.099916 837.0636,-74.407002 839.56814,-69.795181 C 844.98583,-59.819118 846.69357,-54.833502 849.73355,-43.794424 C 854.93904,-24.891718 856.40742,-14.19084 857.52833,-3.9062391 C 858.63916,6.2860092 860.18886,12.507343 861.30332,15.84341 C 862.41777,19.179478 860.35868,40.608754 859.63162,51.556689 C 859.05206,60.283664 857.25709,71.42806 856.98699,82.640639 C 856.71053,94.116769 856.77393,98.890199 856.83581,105.89795 C 856.8887,111.76966 856.31495,116.34119 857.01357,124.53629 C 857.643,131.91982 859.70211,139.2213 861.56744,144.26914 C 865.84175,155.83612 876.63566,166.84495 876.07842,165.73293 z " style="fill: rgb(95, 141, 211); fill-rule: evenodd; stroke: black; stroke-width: 2; stroke-linecap: butt; stroke-linejoin: miter; stroke-miterlimit: 4; stroke-dasharray: none; stroke-opacity: 1;"/>
          <path sodipodi:nodetypes="cssssssssss" id="path4685" d="M 821.63966,-77.513979 C 825.8526,-77.836586 828.77498,-75.737315 831.70758,-72.893827 C 834.89479,-69.803465 836.45686,-65.366957 838.14551,-62.53256 C 840.98181,-57.771852 847.70333,-35.831166 844.78405,-34.923037 C 843.27237,-34.452781 836.53551,-50.951502 832.67774,-51.955064 C 828.95563,-52.923333 828.42309,-36.601621 827.55373,-38.854864 C 821.25084,-55.191126 823.36088,-37.947736 821.05202,-39.360251 C 817.08391,-41.787866 814.70029,-51.380058 813.55969,-46.051877 C 811.33247,-35.647688 809.41155,-39.662047 809.31295,-46.822518 C 809.25503,-51.028647 807.66283,-60.537334 809.165,-67.556996 C 810.53933,-73.979274 816.71379,-77.136779 821.63966,-77.513979 z " style="fill: rgb(170, 204, 255); fill-rule: evenodd; stroke: rgb(135, 170, 222); stroke-width: 1px; stroke-linecap: butt; stroke-linejoin: miter; stroke-opacity: 1;"/>
        </g>
        <g id="g10036" transform="matrix(1, 0, 0, 1.02772, 992.101, -22.0602)">
          <g id="g5586">
            <path style="fill: black; fill-rule: evenodd; stroke: black; stroke-width: 1px; stroke-linecap: butt; stroke-linejoin: miter; stroke-opacity: 1;" d="M 234.67309,-109.96719 C 226.45814,-103.07671 221.08575,-89.440257 221.47765,-75.855002 C 221.91082,-61.005139 232.32845,-47.103055 237.92152,-44.98799 C 241.69287,-43.56182 279.42084,-44.661237 279.42084,-44.661237 C 279.42084,-44.661237 284.34881,-45.590963 286.87324,-48.115398 C 289.39768,-50.639833 289.86508,-51.003889 290.78393,-52.895357 C 292.31611,-56.049337 291.68448,-63.774818 291.68448,-65.217353 C 291.68448,-66.659887 290.38994,-78.777593 289.63949,-84.453924 C 289.30862,-86.956583 287.8676,-96.778005 286.78569,-103.71551 C 286.3109,-106.75997 284.32171,-111.34927 280.71538,-112.07054 C 277.10904,-112.7918 251.35188,-112.7918 249.90934,-112.7918 C 248.46681,-112.7918 237.77411,-112.56824 234.67309,-109.96719 z " id="path5572" sodipodi:nodetypes="csscssssssss"/>
            <path style="fill: rgb(255, 212, 42); fill-rule: evenodd; stroke: black; stroke-width: 1px; stroke-linecap: butt; stroke-linejoin: miter; stroke-opacity: 1;" d="M 236.49373,-107.45232 C 228.42152,-100.51427 224.87259,-87.04531 225.80684,-74.433754 C 226.88471,-59.883378 231.73797,-52.08374 238.88084,-47.794165 C 244.03289,-44.700156 266.30713,-46.305914 266.30713,-46.305914 C 266.30713,-46.305914 279.07686,-46.700297 282.21134,-48.409263 C 284.08467,-49.430629 286.45057,-50.086955 288.70222,-54.58302 C 290.27237,-57.718273 289.8494,-63.414769 289.8494,-64.857304 C 289.8494,-66.299838 288.56055,-75.006735 287.9545,-82.346344 C 287.53738,-87.397917 285.69312,-96.635935 284.65043,-103.40902 C 284.1816,-106.4544 281.33946,-109.43476 277.73313,-110.15603 C 274.12679,-110.8773 249.57035,-110.57712 248.12781,-110.57712 C 246.68528,-110.57712 239.5632,-110.09053 236.49373,-107.45232 z " id="path5574" sodipodi:nodetypes="csscssssssss"/>
            <path style="fill: rgb(255, 238, 170); fill-rule: evenodd; stroke: rgb(255, 238, 170); stroke-width: 1px; stroke-linecap: butt; stroke-linejoin: miter; stroke-opacity: 1;" d="M 237.1924,-101.40471 C 232.54123,-98.6804 229.17151,-81.085233 230.43081,-74.121617 C 231.1424,-70.186674 231.09613,-67.405522 232.54878,-64.276362 C 234.75557,-59.522716 237.69139,-53.455705 240.46495,-52.267036 C 245.06424,-50.295908 251.97269,-49.823699 260.51424,-50.480741 C 269.0558,-51.137784 281.13133,-50.236723 284.49947,-54.09764 C 287.86761,-57.958557 265.62961,-56.382475 268.67981,-66.090251 C 271.80087,-76.02355 254.81641,-65.959581 252.31704,-69.343815 C 250.13575,-72.297342 255.65602,-87.504217 247.33542,-82.516317 C 236.47205,-76.004126 241.22768,-87.61956 240.46495,-91.542741 C 239.79525,-94.987468 241.72066,-104.05703 237.1924,-101.40471 z " id="path5584" sodipodi:nodetypes="csssssssssz"/>
          </g>
          <path sodipodi:nodetypes="cssccsscc" id="path5591" d="M 238.46168,-110.05955 C 238.46168,-110.05955 266.26397,-111.77362 269.83998,-110.83487 C 273.416,-109.89612 276.58505,-109.0659 278.14955,-105.31091 C 279.71406,-101.55591 280.51142,-92.117103 280.01919,-84.508085 C 278.36742,-84.619433 278.96978,-84.586404 277.41414,-84.562129 C 277.23585,-89.467496 277.47904,-92.913017 276.84343,-96.970702 C 276.16317,-101.31337 275.90292,-104.54716 270.76241,-106.65934 C 265.62189,-108.77153 234.79104,-107.0775 234.79104,-107.0775 L 238.46168,-110.05955 z " style="fill: rgb(227, 226, 219); fill-rule: evenodd; stroke: black; stroke-width: 1.1718; stroke-linecap: butt; stroke-linejoin: miter; stroke-miterlimit: 4; stroke-dasharray: none; stroke-opacity: 1;"/>
          <path sodipodi:nodetypes="ccsssccsssss" id="path5597" d="M 280.60873,-80.192131 L 277.38778,-80.084599 C 277.38778,-80.084599 274.78359,-74.268094 274.36699,-70.749801 C 273.94052,-67.148222 277.13381,-66.76824 279.3189,-66.864163 C 281.76342,-66.971476 284.37536,-69.040423 283.90105,-70.728692 C 282.75667,-74.802005 280.60873,-80.192131 280.60873,-80.192131 z M 278.04698,-72.74209 C 278.41924,-72.889343 280.00153,-72.96253 280.47561,-72.64754 C 281.01247,-72.290832 281.51521,-71.275922 281.19402,-70.4157 C 280.87283,-69.555478 280.15218,-69.086327 278.86959,-68.992484 C 277.587,-68.898641 277.05709,-69.782674 276.85144,-70.639762 C 276.64579,-71.49685 277.5839,-72.55892 278.04698,-72.74209 z " style="fill: rgb(227, 226, 219); fill-opacity: 1; fill-rule: evenodd; stroke: black; stroke-width: 1.1718; stroke-linecap: butt; stroke-linejoin: miter; stroke-miterlimit: 4; stroke-dasharray: none; stroke-opacity: 1;"/>
          <path sodipodi:nodetypes="cssssscc" id="path5595" d="M 277.23454,-84.381001 C 277.23454,-84.381001 276.02991,-83.345597 275.38783,-81.684134 C 274.74575,-80.022671 273.98297,-77.892991 275.01509,-77.36046 C 276.04721,-76.82793 277.09383,-79.620265 279.10858,-79.620265 C 280.30424,-79.620265 281.94297,-77.865563 282.95175,-78.325855 C 283.96053,-78.786148 283.09861,-80.671973 282.18136,-82.21304 C 281.26411,-83.754108 280.21695,-84.365969 280.21695,-84.365969 L 277.23454,-84.381001 z " style="fill: rgb(227, 226, 219); fill-opacity: 1; fill-rule: evenodd; stroke: black; stroke-width: 1.1718; stroke-linecap: butt; stroke-linejoin: miter; stroke-miterlimit: 4; stroke-dasharray: none; stroke-opacity: 1;"/>
        </g>
        <path style="fill: black; fill-rule: evenodd; stroke: black; stroke-width: 0.976645px; stroke-linecap: butt; stroke-linejoin: miter; stroke-opacity: 1;" d="M 1227.3745,-69.794376 C 1225.8005,-65.177996 1217.1642,-54.055066 1216.6077,-50.034656 C 1215.7858,-44.096996 1216.1125,-27.614156 1216.2348,-20.073926 C 1216.3769,-11.311146 1223.9721,17.57548 1225.7302,21.16737 C 1227.5818,24.95042 1229.6717,31.52441 1239.9455,31.7415 C 1243.7076,31.82282 1249.8339,33.28578 1262.5896,33.67015 C 1266.6926,33.79112 1276.5756,33.38672 1280.5112,33.07354 C 1285.1445,33.20971 1281.6493,18.93558 1280.5177,13.58325 C 1279.7096,9.76125 1279.4122,-6.717926 1280.01,-17.616756 C 1280.5832,-28.065466 1285.381,-48.340386 1286.1738,-56.123256 C 1286.5454,-59.771826 1286.344,-64.029136 1285.0772,-65.391776 C 1282.9663,-67.662496 1280.4049,-67.452696 1278.014,-68.022446 C 1275.6231,-68.592196 1252.8528,-67.829596 1248.6274,-67.777636 C 1245.6241,-67.739916 1234.372,-67.813026 1227.3745,-69.794376 z " id="path10045" sodipodi:nodetypes="cssssscssssssc"/>
        <g id="g21930" transform="translate(430.326, -103.785)">
          <path sodipodi:nodetypes="cssssscsssssss" id="path10049" d="M 798.27376,39.075819 C 795.91349,40.831154 791.96727,46.075137 789.68243,53.348019 C 788.021,58.636519 788.97676,82.972029 789.08834,89.946779 C 789.21803,98.052389 795.38729,118.93396 796.99158,122.25648 C 798.68126,125.75582 800.58834,131.83677 809.96344,132.03759 C 813.39652,132.11281 818.98691,133.46605 830.62693,133.8216 C 834.37104,133.9335 843.38949,133.55943 846.98087,133.26974 C 851.20892,133.3957 848.01945,120.19206 846.98683,115.24113 C 846.24945,111.70576 845.978,96.462449 846.52357,86.380989 C 847.04661,76.715889 851.42477,57.961498 852.14815,50.762303 C 852.48727,47.387359 852.30347,43.449336 851.14754,42.188889 C 849.22128,40.088461 846.88393,40.282522 844.70216,39.755508 C 842.52038,39.228485 822.40474,39.365666 818.54888,39.413726 C 815.8083,39.448617 799.95725,37.823805 798.27376,39.075819 z " style="fill: rgb(255, 212, 42); fill-opacity: 1; fill-rule: evenodd; stroke: black; stroke-width: 0.897289px; stroke-linecap: butt; stroke-linejoin: miter; stroke-opacity: 1;"/>
          <path sodipodi:nodetypes="cssssss" id="path10061" d="M 839.16324,86.692749 C 840.70487,89.362389 840.74721,92.059379 841.41351,95.954919 C 842.4135,101.80147 841.71274,103.34437 842.75824,108.97368 C 843.98382,115.57252 842.68345,125.18952 840.97763,116.24581 C 839.39204,107.91229 835.09732,105.53198 834.91507,103.43625 C 834.66862,100.60231 838.63158,100.54728 837.45435,96.582099 C 836.31166,92.733289 838.19711,85.019699 839.16324,86.692749 z " style="fill: rgb(250, 177, 0); fill-opacity: 1; fill-rule: evenodd; stroke: rgb(255, 190, 0); stroke-width: 0.521791px; stroke-linecap: butt; stroke-linejoin: miter; stroke-opacity: 1;"/>
          <path sodipodi:nodetypes="cssszsssz" id="path10948" d="M 800.16732,43.535573 C 795.51615,46.335403 794.10042,51.385373 793.37053,59.585845 C 792.70122,67.105757 793.87428,82.169899 794.11373,92.169449 C 794.26483,98.479309 796.63976,107.54934 800.12546,116.2901 C 802.59997,122.49521 806.1906,125.49888 818.85207,128.01584 C 846.8257,133.57667 811.80164,122.13054 807.53097,112.61195 C 801.31315,98.753489 800.75612,72.448065 805.46917,55.403029 C 808.86965,43.104981 826.86908,48.602476 826.10635,44.57054 C 825.43665,41.030322 804.69558,40.809728 800.16732,43.535573 z " style="fill: rgb(255, 238, 170); fill-rule: evenodd; stroke: rgb(255, 238, 170); stroke-width: 1.01377px; stroke-linecap: butt; stroke-linejoin: miter; stroke-opacity: 1;"/>
        </g>
        <path sodipodi:nodetypes="cssccsscc" id="path10051" d="M 1278.7915,-64.278451 C 1271.1531,-60.600982 1269.217,-59.189847 1265.1543,-52.126682 C 1262.4254,-47.382264 1260.2034,-34.859096 1259.7971,-30.27762 C 1257.1865,-0.837611 1269.3302,17.32599 1268.8369,25.14593 C 1267.1852,25.0315 1266.8509,25.06544 1265.2952,25.09038 C 1266.0926,15.49791 1255.0984,1.005939 1256.7325,-28.703208 C 1256.9647,-32.925669 1256.829,-45.399119 1264.4256,-56.77379 C 1268.4997,-62.874089 1273.7481,-64.294112 1273.7481,-64.294112 L 1278.7915,-64.278451 z " style="fill: rgb(227, 226, 219); fill-rule: evenodd; stroke: black; stroke-width: 1.18793; stroke-linecap: butt; stroke-linejoin: miter; stroke-miterlimit: 4; stroke-dasharray: none; stroke-opacity: 1;"/>
        <g id="g10057" transform="translate(678.714, -115.196)">
          <path style="fill: rgb(227, 226, 219); fill-opacity: 1; fill-rule: evenodd; stroke: black; stroke-width: 1.18793; stroke-linecap: butt; stroke-linejoin: miter; stroke-miterlimit: 4; stroke-dasharray: none; stroke-opacity: 1;" d="M 581.24066,99.283709 L 578.01971,99.394221 C 578.01971,99.394221 575.41552,105.37197 574.99892,108.98779 C 574.57245,112.68921 577.76574,113.07972 579.95083,112.98114 C 582.39535,112.87085 585.00729,110.74455 584.53298,109.00948 C 583.3886,104.82325 581.24066,99.283709 581.24066,99.283709 z M 578.67891,106.94027 C 579.05117,106.78894 580.63346,106.71372 581.10754,107.03744 C 581.6444,107.40404 582.14714,108.44708 581.82595,109.33115 C 581.50476,110.21522 580.78411,110.69738 579.50152,110.79382 C 578.21893,110.89027 577.68902,109.98173 577.48337,109.10088 C 577.27772,108.22003 578.21583,107.12852 578.67891,106.94027 z " id="path10053" sodipodi:nodetypes="ccsssccsssss"/>
          <path style="fill: rgb(227, 226, 219); fill-opacity: 1; fill-rule: evenodd; stroke: black; stroke-width: 1.18793; stroke-linecap: butt; stroke-linejoin: miter; stroke-miterlimit: 4; stroke-dasharray: none; stroke-opacity: 1;" d="M 577.86647,94.978719 C 577.86647,94.978719 576.66184,96.042825 576.01976,97.750346 C 575.37768,99.457866 574.6149,101.64658 575.64702,102.19388 C 576.67914,102.74117 577.72576,99.871427 579.74051,99.871427 C 580.93617,99.871427 582.5749,101.67477 583.58368,101.20172 C 584.59246,100.72867 583.73054,98.790565 582.81329,97.206778 C 581.89604,95.62299 580.84888,94.994168 580.84888,94.994168 L 577.86647,94.978719 z " id="path10055" sodipodi:nodetypes="cssssscc"/>
        </g>
        <g id="g14642" transform="translate(339.395, -114.092)">
          <path sodipodi:nodetypes="cssscsccssssssc" id="path11953" d="M 967.26303,177.02452 C 974.59888,178.95446 991.15673,178.67748 998.80572,178.46742 C 1004.0291,178.32397 1039.0652,180.15896 1058.2412,172.73341 C 1067.0197,169.33411 1072.2002,165.43372 1074.4767,161.37686 C 1076.4796,157.80748 1076.3037,145.62599 1076.3038,145.62598 C 1076.3038,145.62598 1078.6837,82.259886 1077.3124,66.579431 C 1075.9017,50.448038 1075.8426,19.603723 1073.7546,8.2664252 C 1011.665,6.8837962 986.89913,10.944847 950.86424,8.0242442 C 951.97493,18.167731 952.79371,25.08931 953.77125,28.375549 C 954.7487,31.661792 952.90066,53.000642 952.52342,63.982833 C 952.22271,72.737103 949.06931,82.434347 949.071,93.660594 C 949.07268,105.15073 948.63803,108.76095 948.82773,115.76683 C 948.98761,121.63694 947.84756,128.52893 948.58148,136.69361 C 949.24276,144.04972 950.44898,149.99724 954.2502,159.85714 C 958.55601,171.02584 967.74071,178.11154 967.26303,177.02452 z " style="opacity: 1; fill: url(&quot;#linearGradient25326&quot;) rgb(0, 0, 0); fill-opacity: 1; fill-rule: evenodd; stroke: black; stroke-width: 2.71446; stroke-linecap: butt; stroke-linejoin: miter; stroke-miterlimit: 4; stroke-dasharray: none; stroke-opacity: 1;"/>
          <path sodipodi:nodetypes="csssssccssssc" id="path11960" d="M 973.75698,176.2822 C 980.36798,178.02144 994.48328,176.96548 1001.3764,176.77617 C 1006.0839,176.6469 1037.658,178.30057 1054.9392,171.60874 C 1059.5331,169.82981 1065.5637,164.25374 1068.7431,158.9899 C 1071.0387,155.18916 1071.2441,146.80813 1071.2171,143.74756 C 1071.0505,124.83407 1073.3618,90.074897 1072.1259,75.943823 C 1070.8546,61.406369 1069.5918,17.886041 1067.7102,7.6689785 C 1011.7557,6.4229655 992.66238,9.2763997 959.78488,8.2570735 C 962.39848,18.20463 962.43978,55.782698 961.39418,66.079437 C 959.81828,81.597924 956.97238,110.73202 957.14328,117.04565 C 957.28728,122.33573 956.25988,133.3848 956.92138,140.74273 C 957.51728,147.37197 957.79788,151.11913 961.22348,160.00478 C 965.10388,170.0699 974.18738,177.26181 973.75698,176.2822 z " style="opacity: 1; fill: rgb(44, 90, 160); fill-rule: evenodd; stroke: black; stroke-width: 2.44624; stroke-linecap: butt; stroke-linejoin: miter; stroke-miterlimit: 4; stroke-dasharray: none; stroke-opacity: 1;"/>
        </g>
        <path style="fill: rgb(230, 230, 230); fill-rule: evenodd; stroke: black; stroke-width: 2.12408; stroke-linecap: butt; stroke-linejoin: miter; stroke-miterlimit: 4; stroke-dasharray: none; stroke-opacity: 1;" d="M 1287.8276,-35.181105 L 1301.8971,-34.428183 C 1301.8971,-34.428183 1302.8593,-25.768183 1300.3814,-24.234243 C 1298.6036,-23.133693 1296.5592,-23.235493 1296.5592,-23.235493 L 1296.0873,-17.553463 L 1299.8462,-17.616683 L 1299.3111,-12.263353 L 1285.986,-13.024703 L 1286.222,-17.626513 L 1290.335,-17.726243 L 1290.762,-23.353493 C 1290.762,-23.353493 1287.8739,-23.526273 1286.93,-26.240163 C 1285.986,-28.954053 1287.9456,-35.06311 1287.8276,-35.181105 z " id="path14681" sodipodi:nodetypes="ccsccccccccsc"/>
        <path style="fill: rgb(230, 230, 230); fill-rule: evenodd; stroke: black; stroke-width: 2.12408; stroke-linecap: butt; stroke-linejoin: miter; stroke-miterlimit: 4; stroke-dasharray: none; stroke-opacity: 1;" d="M 1408.0929,-45.038136 L 1419.3996,-45.808321 C 1419.3996,-45.808321 1419.8115,-40.006788 1419.8205,-33.917758 C 1419.8296,-27.828727 1419.2464,-22.398867 1419.2464,-22.398867 L 1407.7588,-22.037137 L 1408.0771,-26.986737 L 1411.3985,-27.073477 L 1411.1464,-32.337877 C 1411.1464,-32.337877 1408.9435,-33.086613 1407.7676,-35.708369 C 1406.5918,-38.330123 1408.2207,-44.930824 1408.0929,-45.038136 z " id="path15568" sodipodi:nodetypes="cczcccccsc"/>
        <g transform="matrix(1.00485, -0.0562297, 0.0409574, 1.01235, 761.79, -110.711)" id="g22938">
          <path sodipodi:nodetypes="csssssscsc" id="path22048" d="M 538.82783,39.1644 C 538.82783,39.1644 538.91442,68.160316 538.82616,72.501751 C 538.68691,79.489761 538.71749,91.503291 542.12551,93.588766 C 545.99137,95.954405 551.59104,96.355985 557.52517,96.657785 C 565.35235,97.055865 574.51874,97.425275 587.04007,97.259885 C 607.97883,96.983305 624.63023,100.45127 632.86412,96.265741 C 636.24323,94.548041 636.4153,91.134616 636.65652,86.307542 C 637.31405,73.182793 635.1411,40.420128 635.07684,38.53007 C 632.82052,38.886612 608.85843,33.504091 583.39709,33.477374 C 560.50485,33.453352 538.68098,39.311243 538.82783,39.1644 z " style="fill: rgb(250, 177, 0); fill-opacity: 1; fill-rule: evenodd; stroke: black; stroke-width: 1px; stroke-linecap: butt; stroke-linejoin: miter; stroke-opacity: 1;"/>
          <path sodipodi:nodetypes="cssssscc" id="path22046" d="M 539.19458,39.104484 C 539.19458,39.104484 538.62734,68.427315 538.53908,72.76875 C 538.39983,79.75676 539.54897,89.623381 541.0998,92.41488 C 542.65063,95.206378 546.0308,96.624535 550.37313,95.694039 C 554.71546,94.76354 559.50449,92.845212 560.74516,87.572381 C 561.98582,82.29955 560.5648,67.550524 560.279,63.480944 C 559.93715,58.613301 558.45564,42.907422 558.20883,35.647494 C 553.92386,36.324601 538.88441,39.41465 539.19458,39.104484 z " style="fill: rgb(255, 238, 170); fill-opacity: 1; fill-rule: evenodd; stroke: black; stroke-width: 1px; stroke-linecap: butt; stroke-linejoin: miter; stroke-opacity: 1;"/>
          <path sodipodi:nodetypes="ccccc" id="path22936" d="M 546.8647,37.480279 L 549.35347,37.068637 L 549.60289,93.802202 L 546.82412,93.965659 L 546.8647,37.480279 z " style="fill: rgb(242, 242, 242); fill-rule: evenodd; stroke: black; stroke-width: 1px; stroke-linecap: butt; stroke-linejoin: miter; stroke-opacity: 1;"/>
        </g>
        <path sodipodi:nodetypes="cssssssssz" id="path22993" d="M 1350.1463,-68.025284 C 1351.1989,-78.663433 1359.0064,-63.862241 1362.1213,-60.562597 C 1366.1777,-56.265691 1392.4006,-56.138492 1393.5225,-54.579776 C 1396.5921,-50.314931 1379.9006,-50.078125 1374.4357,-49.661898 C 1361.1032,-48.646447 1337.386,-49.282783 1332.5791,-49.284709 C 1331.44,-49.285166 1330.6715,-50.434456 1331.0817,-51.815522 C 1332.5579,-56.785401 1332.3927,-64.585389 1331.4629,-70.387008 C 1330.6241,-75.622109 1328.9442,-81.993454 1328.8762,-85.502868 C 1328.811,-88.874121 1330.9082,-89.096416 1332.6135,-86.841736 C 1335.7032,-82.75664 1349.093,-57.381669 1350.1463,-68.025284 z " style="fill: rgb(215, 94, 23); fill-opacity: 1; fill-rule: evenodd; stroke: none; stroke-width: 1px; stroke-linecap: butt; stroke-linejoin: miter; stroke-opacity: 1;"/>
        <g id="g22947" transform="matrix(0.999317, 0.0369575, -0.0369575, 0.999317, 739.941, -188.806)">
          <path style="fill: rgb(227, 226, 219); fill-opacity: 1; fill-rule: evenodd; stroke: black; stroke-width: 1.18793; stroke-linecap: butt; stroke-linejoin: miter; stroke-miterlimit: 4; stroke-dasharray: none; stroke-opacity: 1;" d="M 581.24066,99.283709 L 578.01971,99.394221 C 578.01971,99.394221 575.41552,105.37197 574.99892,108.98779 C 574.57245,112.68921 577.76574,113.07972 579.95083,112.98114 C 582.39535,112.87085 585.00729,110.74455 584.53298,109.00948 C 583.3886,104.82325 581.24066,99.283709 581.24066,99.283709 z M 578.67891,106.94027 C 579.05117,106.78894 580.63346,106.71372 581.10754,107.03744 C 581.6444,107.40404 582.14714,108.44708 581.82595,109.33115 C 581.50476,110.21522 580.78411,110.69738 579.50152,110.79382 C 578.21893,110.89027 577.68902,109.98173 577.48337,109.10088 C 577.27772,108.22003 578.21583,107.12852 578.67891,106.94027 z " id="path22949" sodipodi:nodetypes="ccsssccsssss"/>
          <path style="fill: rgb(227, 226, 219); fill-opacity: 1; fill-rule: evenodd; stroke: black; stroke-width: 1.18793; stroke-linecap: butt; stroke-linejoin: miter; stroke-miterlimit: 4; stroke-dasharray: none; stroke-opacity: 1;" d="M 577.86647,94.978719 C 577.86647,94.978719 576.66184,96.042825 576.01976,97.750346 C 575.37768,99.457866 574.6149,101.64658 575.64702,102.19388 C 576.67914,102.74117 577.72576,99.871427 579.74051,99.871427 C 580.93617,99.871427 582.5749,101.67477 583.58368,101.20172 C 584.59246,100.72867 583.73054,98.790565 582.81329,97.206778 C 581.89604,95.62299 580.84888,94.994168 580.84888,94.994168 L 577.86647,94.978719 z " id="path22951" sodipodi:nodetypes="cssssscc"/>
        </g>
        <g id="g14638" transform="translate(421.208, -58.6306)">
          <path sodipodi:nodetypes="cssssssssssssssccsssss" id="path10973" d="M 843.33988,-129.41211 C 841.7223,-127.36516 836.80109,-127.34758 837.77759,-127.10346 C 838.25336,-126.98451 841.03499,-124.66044 844.28108,-121.58399 C 847.69754,-118.34608 850.67159,-113.09164 852.40898,-110.04964 C 854.96956,-105.56629 859.87097,-91.507002 863.29856,-76.415773 C 864.53308,-70.980377 865.66549,-62.088331 866.75137,-55.814826 C 868.771,-44.146765 870.38263,-33.734063 870.80159,-32.171693 C 871.7946,-28.468538 874.92464,-28.618364 878.7185,-29.801513 C 883.60472,-31.325323 904.48483,-35.343742 911.19382,-35.462456 C 917.88041,-35.579139 936.56607,-36.764704 945.84605,-36.201485 C 960.46565,-35.308589 978.49973,-31.866598 981.18511,-31.622473 C 983.87048,-31.378348 993.15849,-29.718118 992.7392,-37.621046 C 992.43189,-43.413278 991.49286,-52.638284 990.80568,-57.073423 C 989.97763,-62.417745 987.48207,-87.727199 986.45238,-92.976426 C 985.16566,-99.535949 983.90977,-103.41534 982.42447,-108.20155 C 980.90147,-113.10927 979.19925,-119.07986 976.6467,-122.9395 C 967.95664,-124.18271 971.56666,-125.72487 966.96729,-129.68693 C 965.24269,-131.20922 953.1792,-135.79795 942.27532,-139.57853 C 935.79527,-141.82529 929.7889,-142.85368 922.66885,-143.47256 C 902.62191,-145.21504 881.67817,-143.35582 876.27875,-142.98717 C 871.1121,-142.63441 850.51959,-139.11311 848.0769,-136.91758 C 845.66424,-134.74903 844.3956,-130.74807 843.33988,-129.41211 z " style="fill: url(&quot;#linearGradient25328&quot;) rgb(0, 0, 0); fill-opacity: 1; fill-rule: evenodd; stroke: black; stroke-width: 2; stroke-linecap: butt; stroke-linejoin: miter; stroke-miterlimit: 4; stroke-dasharray: none; stroke-opacity: 1;"/>
          <path sodipodi:nodetypes="cssssssscsssss" id="path11879" d="M 846.93009,-127.00135 C 867.82434,-108.23963 869.5101,-73.753026 871.52251,-57.593078 C 872.34863,-50.959209 875.0717,-29.363827 878.86556,-30.546976 C 883.75178,-32.070787 904.63189,-36.089205 911.34088,-36.207919 C 918.02747,-36.324602 936.71313,-37.510167 945.99311,-36.946948 C 960.61271,-36.054053 979.34071,-33.022184 981.93914,-32.301724 C 989.74507,-30.137387 985.45761,-44.382699 984.70555,-54.966727 C 983.89344,-66.395666 980.9377,-84.135321 979.23169,-91.670336 C 977.62493,-98.766946 971.71372,-122.45332 967.11435,-130.43239 C 965.38975,-131.95468 953.32626,-136.54342 942.42238,-140.32399 C 935.94233,-142.57076 929.93596,-143.59915 922.81591,-144.21803 C 902.76897,-145.96051 881.82523,-144.10129 876.42581,-143.73264 C 871.25916,-143.37988 850.68566,-139.83723 848.22396,-137.66304 C 841.22043,-131.47749 842.26859,-131.18709 846.93009,-127.00135 z " style="fill: rgb(55, 113, 200); fill-opacity: 1; fill-rule: evenodd; stroke: black; stroke-width: 2; stroke-linecap: butt; stroke-linejoin: miter; stroke-miterlimit: 4; stroke-dasharray: none; stroke-opacity: 1;"/>
        </g>
        <g id="g24052" transform="translate(116.863, -104.114)">
          <path id="path23118" d="M 1222.23,166.23777 C 1213.5259,166.2573 1203.6241,167.89311 1196.2032,162.22534 C 1189.3404,157.26067 1184.8555,149.00403 1185.3745,140.43739 C 1185.3201,131.02938 1185.5308,121.31317 1188.7654,112.37745 C 1191.9722,103.80077 1198.8425,96.578613 1207.6535,93.761752 C 1221.8693,88.09591 1237.4973,87.630288 1252.5948,88.165067 C 1263.1443,89.084871 1274.2159,91.214006 1282.8032,97.778548 C 1288.4272,103.81385 1288.5747,112.5945 1289.8278,120.29109 C 1290.9442,130.93372 1291.5167,143.01848 1284.6724,151.99301 C 1278.5231,159.94255 1268.409,163.80511 1258.5663,163.98245 C 1246.4948,165.25924 1234.3691,166.06294 1222.23,166.23777 z " style="fill: rgb(255, 212, 42); fill-opacity: 1; fill-rule: evenodd; stroke: black; stroke-width: 1px; stroke-linecap: butt; stroke-linejoin: miter; stroke-opacity: 1;"/>
          <path id="path23120" d="M 1224.7956,166.33284 C 1216.9265,166.38808 1207.8406,167.83114 1201.3882,162.19654 C 1195.6469,157.68199 1192.2442,150.42314 1192.8567,143.09807 C 1192.8401,132.1192 1193.2542,119.91303 1200.8223,111.17207 C 1206.4285,104.36686 1215.4078,102.05584 1223.6455,100.21108 C 1234.1113,98.374068 1244.8862,97.986338 1255.4459,99.150419 C 1263.3466,100.23334 1271.6554,102.23895 1277.8042,107.57959 C 1282.5491,113.55598 1282.5519,121.60045 1283.5804,128.81284 C 1284.5441,138.33646 1284.2167,149.43202 1276.7086,156.43539 C 1271.0667,162.06375 1262.9942,164.30022 1255.213,164.49313 C 1245.105,165.52208 1234.9563,166.18892 1224.7956,166.33284 z " style="fill: url(&quot;#linearGradient25330&quot;) rgb(0, 0, 0); fill-opacity: 1; fill-rule: evenodd; stroke: black; stroke-width: 0.866514px; stroke-linecap: butt; stroke-linejoin: miter; stroke-opacity: 1;"/>
          <path id="path23122" d="M 1228.1454,166.38288 C 1220.6605,166.48594 1211.9318,167.75259 1206.0021,162.0505 C 1201.0283,157.86609 1198.1948,151.33081 1198.8263,144.82898 C 1198.6639,134.13569 1199.4269,121.8896 1207.6662,114.04233 C 1214.2302,107.97037 1223.4288,106.1914 1231.9768,104.85047 C 1244.5705,103.55327 1257.8094,103.26944 1269.7604,108.04595 C 1273.9114,109.72514 1278.0613,112.3337 1279.4124,116.87089 C 1281.7209,123.65046 1282.1423,130.93739 1282.5019,138.03945 C 1282.7792,145.81142 1280.4957,154.27207 1273.8949,159.01322 C 1267.5142,164.2522 1258.9727,164.58067 1251.1334,165.16324 C 1243.4881,165.83548 1235.8202,166.2772 1228.1454,166.38288 z " style="fill: rgb(250, 177, 0); fill-opacity: 1; fill-rule: evenodd; stroke: black; stroke-width: 0.79625px; stroke-linecap: butt; stroke-linejoin: miter; stroke-opacity: 1;"/>
          <path sodipodi:nodetypes="cssscsz" id="path24032" d="M 1225.8875,94.932588 C 1223.2539,91.338087 1214.5619,94.203392 1209.5421,96.434626 C 1207.0402,97.546656 1201.3299,99.912152 1198.8091,102.62383 C 1196.1131,105.52398 1192.9598,110.18338 1191.33,114.24965 C 1190.1899,117.09419 1189.0941,124.61959 1188.0411,138.91192 C 1191.9052,118.87107 1194.5292,110.6436 1200.8641,106.0937 C 1213.6052,96.942547 1228.4196,98.388675 1225.8875,94.932588 z " style="fill: rgb(255, 238, 170); fill-rule: evenodd; stroke: rgb(255, 238, 170); stroke-width: 0.685006px; stroke-linecap: butt; stroke-linejoin: miter; stroke-opacity: 1;"/>
          <path style="fill: rgb(215, 94, 23); fill-opacity: 1; fill-rule: evenodd; stroke: none; stroke-width: 1px; stroke-linecap: butt; stroke-linejoin: miter; stroke-opacity: 1;" d="M 1226.9932,130.18426 C 1228.0458,119.54611 1238.8499,143.71176 1241.9648,147.01141 C 1246.0212,151.30831 1272.2441,151.43551 1273.366,152.99423 C 1276.4356,157.25907 1259.7441,157.49588 1254.2792,157.9121 C 1240.9467,158.92756 1224.7211,159.41331 1219.9142,159.41303 C 1212.0327,159.41258 1205.4101,159.67145 1204.8549,140.19771 C 1204.7038,134.89799 1208.7877,125.58055 1208.7197,122.07114 C 1208.6545,118.69989 1210.7517,118.47759 1212.457,120.73227 C 1213.773,122.4722 1212.8371,134.06755 1217.2648,135.73262 C 1224.8638,138.59028 1226.3885,136.29453 1226.9932,130.18426 z " id="path24034" sodipodi:nodetypes="cssssssssz"/>
          <g transform="translate(658.415, 15.5028)" id="g24036">
            <g transform="matrix(0.960796, 0.277257, -0.277257, 0.960796, 53.0629, -162.116)" id="g24048">
              <path style="fill: rgb(227, 226, 219); fill-opacity: 1; fill-rule: evenodd; stroke: black; stroke-width: 1.18793; stroke-linecap: butt; stroke-linejoin: miter; stroke-miterlimit: 4; stroke-dasharray: none; stroke-opacity: 1;" d="M 581.24066,99.283709 L 578.01971,99.394221 C 578.01971,99.394221 575.41552,105.37197 574.99892,108.98779 C 574.57245,112.68921 577.76574,113.07972 579.95083,112.98114 C 582.39535,112.87085 585.00729,110.74455 584.53298,109.00948 C 583.3886,104.82325 581.24066,99.283709 581.24066,99.283709 z M 578.67891,106.94027 C 579.05117,106.78894 580.63346,106.71372 581.10754,107.03744 C 581.6444,107.40404 582.14714,108.44708 581.82595,109.33115 C 581.50476,110.21522 580.78411,110.69738 579.50152,110.79382 C 578.21893,110.89027 577.68902,109.98173 577.48337,109.10088 C 577.27772,108.22003 578.21583,107.12852 578.67891,106.94027 z " id="path24038" sodipodi:nodetypes="ccsssccsssss"/>
              <path style="fill: rgb(227, 226, 219); fill-opacity: 1; fill-rule: evenodd; stroke: black; stroke-width: 1.18793; stroke-linecap: butt; stroke-linejoin: miter; stroke-miterlimit: 4; stroke-dasharray: none; stroke-opacity: 1;" d="M 577.86647,94.978719 C 577.86647,94.978719 576.66184,96.042825 576.01976,97.750346 C 575.37768,99.457866 574.6149,101.64658 575.64702,102.19388 C 576.67914,102.74117 577.72576,99.871427 579.74051,99.871427 C 580.93617,99.871427 582.5749,101.67477 583.58368,101.20172 C 584.59246,100.72867 583.73054,98.790565 582.81329,97.206778 C 581.89604,95.62299 580.84888,94.994168 580.84888,94.994168 L 577.86647,94.978719 z " id="path24040" sodipodi:nodetypes="cssssscc"/>
            </g>
          </g>
          <g transform="matrix(0.937705, -0.347432, 0.347432, 0.937705, 669.779, 225.899)" id="g24042">
            <path sodipodi:nodetypes="ccsssccsssss" id="path24044" d="M 581.24066,99.283709 L 578.01971,99.394221 C 578.01971,99.394221 575.41552,105.37197 574.99892,108.98779 C 574.57245,112.68921 577.76574,113.07972 579.95083,112.98114 C 582.39535,112.87085 585.00729,110.74455 584.53298,109.00948 C 583.3886,104.82325 581.24066,99.283709 581.24066,99.283709 z M 578.67891,106.94027 C 579.05117,106.78894 580.63346,106.71372 581.10754,107.03744 C 581.6444,107.40404 582.14714,108.44708 581.82595,109.33115 C 581.50476,110.21522 580.78411,110.69738 579.50152,110.79382 C 578.21893,110.89027 577.68902,109.98173 577.48337,109.10088 C 577.27772,108.22003 578.21583,107.12852 578.67891,106.94027 z " style="fill: rgb(227, 226, 219); fill-opacity: 1; fill-rule: evenodd; stroke: black; stroke-width: 1.18793; stroke-linecap: butt; stroke-linejoin: miter; stroke-miterlimit: 4; stroke-dasharray: none; stroke-opacity: 1;"/>
            <path sodipodi:nodetypes="cssssscc" id="path24046" d="M 577.86647,94.978719 C 577.86647,94.978719 576.66184,96.042825 576.01976,97.750346 C 575.37768,99.457866 574.6149,101.64658 575.64702,102.19388 C 576.67914,102.74117 577.72576,99.871427 579.74051,99.871427 C 580.93617,99.871427 582.5749,101.67477 583.58368,101.20172 C 584.59246,100.72867 583.73054,98.790565 582.81329,97.206778 C 581.89604,95.62299 580.84888,94.994168 580.84888,94.994168 L 577.86647,94.978719 z " style="fill: rgb(227, 226, 219); fill-opacity: 1; fill-rule: evenodd; stroke: black; stroke-width: 1.18793; stroke-linecap: butt; stroke-linejoin: miter; stroke-miterlimit: 4; stroke-dasharray: none; stroke-opacity: 1;"/>
          </g>
        </g>
      </g>
      <path sodipodi:nodetypes="cssssssscc" id="path25046" d="M 998.38747,-201.34818 C 1000.7642,-204.06121 1008.2662,-205.42674 1010.92,-205.80318 C 1017.1547,-206.68756 1028.9338,-209.24885 1029.7962,-206.92877 C 1030.2444,-205.72317 1019.4015,-203.21294 1017.1551,-200.7232 C 1015.062,-198.40317 1031.6919,-200.88892 1030.04,-199.83001 C 1018.1796,-192.2273 1028.9033,-190.78491 1027.852,-188.85344 C 1026.0452,-185.53401 1030.7693,-182.46616 1036.59,-182.72655 C 1045.2257,-183.11287 1041.447,-179.05796 1035.6411,-178.68389 C 1032.2306,-178.4641 1023.6481,-177.038 1016.1984,-175.55096 C 1012.884,-184.72691 1005.9624,-196.65468 998.38747,-201.34818 z " style="opacity: 0.6; fill: rgb(170, 204, 255); fill-rule: evenodd; stroke: rgb(135, 170, 222); stroke-width: 0.812445px; stroke-linecap: butt; stroke-linejoin: miter; stroke-opacity: 1;"/>
      <path sodipodi:nodetypes="csssscsscsc" id="path25048" d="M 1019.6257,-167.6659 C 1026.1001,-167.63095 1029.9618,-168.94615 1033.1916,-169.48757 C 1039.0294,-170.46618 1044.2543,-172.02466 1049.2793,-167.565 C 1049.902,-167.01238 1039.9521,-164.94137 1036.4138,-163.47321 C 1033.6736,-162.33621 1044.1661,-159.29126 1041.527,-156.88444 C 1036.6539,-152.44038 1035.9119,-142.8784 1046.6722,-140.96028 C 1058.8435,-136.49136 1043.2395,-130.98506 1048.09,-127.90622 C 1053.3965,-124.53789 1065.5607,-116.95117 1058.8811,-115.15582 C 1055.9029,-114.35533 1040.5898,-113.46637 1031.9612,-110.67534 C 1031.5412,-115.24087 1027.3811,-123.01268 1027.0481,-134.04075 C 1026.5469,-150.63594 1022.6169,-160.48751 1019.6257,-167.6659 z " style="opacity: 0.6; fill: rgb(170, 204, 255); fill-rule: evenodd; stroke: rgb(135, 170, 222); stroke-width: 1px; stroke-linecap: butt; stroke-linejoin: miter; stroke-opacity: 1;"/>
    </g>
  </g>
</svg>